#VRML V2.0 utf8
# 3D model generated by easyeda2kicad.py (https://github.com/uPesy/easyeda2kicad.py)

Shape{
    appearance Appearance {
        material  Material 	{
            diffuseColor 0.5882352941176471 0.5725490196078431 0.5254901960784314
            specularColor 0.043137254901960784 0.0392156862745098 0.0392156862745098
            ambientIntensity 0.8167
            transparency 0.0
            shininess 0.5
        }
    }
    geometry IndexedFaceSet {
        ccw TRUE
        solid FALSE
        coord DEF co Coordinate {
            point [
                -0.0201 -0.3669 1.5953, -0.0201 -0.3669 1.535, 0.007 -0.3669 1.535, 0.0866 -0.3669 1.4188, 0.0852 -0.3669 1.4186, 0.1016 -0.3669 1.4186, 0.0394 -0.3669 0.0787, 0.0394 -0.3669 0.0276, 0.0579 -0.3669 0.0276, 0.0139 -0.3669 1.5419, 0.0128 -0.3669 1.5445, 0.0128 -0.3669 1.5267, 0.2665 -0.3669 1.5267, 0.2444 -0.3669 1.5272, 0.2347 -0.3669 1.5272, 0.2277 -0.3669 1.5459, 0.2027 -0.3669 1.5459, 0.2027 -0.3669 1.5267, 0.2184 -0.3669 1.5953, 0.2665 -0.3669 1.5959, 0.2027 -0.3669 1.5959, 0.1994 -0.3669 1.5459, 0.1928 -0.3669 1.5272, 0.1812 -0.3669 1.5267, 0.1831 -0.3669 1.5272, 0.1812 -0.3669 1.5959, 0.2027 -0.3669 1.5788, 0.209 -0.3669 1.5953, 0.0579 -0.3669 1.5857, 0.0432 -0.3669 1.5339, 0.0474 -0.3669 1.5341, 0.0447 -0.3669 1.5885, 0.042 -0.3669 1.5884, 0.0262 -0.3669 1.581, 0.0361 -0.3669 1.5873, 0.0307 -0.3669 1.5848, 0.0257 -0.3669 1.5804, 0.0224 -0.3669 1.5757, 0.0201 -0.3669 1.5698, 0.019 -0.3669 1.5605, 0.0191 -0.3669 1.558, 0.0202 -0.3669 1.5512, 0.0273 -0.3669 1.5395, 0.0319 -0.3669 1.5364, 0.0368 -0.3669 1.5346, 0.0531 -0.3669 1.5875, 0.0224 -0.3669 1.5457, 0.0257 -0.3669 1.5411, 0.0549 -0.3669 1.5357, 0.0579 -0.3669 1.5371, 0.06 -0.3669 1.5849, 0.0608 -0.3669 1.5385, 0.0608 -0.3669 1.5845, 0.0705 -0.3669 1.5267, 0.0705 -0.3669 1.5959, 0.0514 -0.3669 1.5959, 0.0547 -0.3669 1.5956, 0.0579 -0.3669 1.5959, 0.0579 -0.3669 1.5946, 0.0608 -0.3669 1.5937, 0.0128 -0.3669 1.7008, 0.0399 -0.3669 1.5959, 0.0579 -0.3669 1.7008, 0.0446 -0.3669 1.5965, 0.046 -0.3669 1.5965, 0.0277 -0.3669 1.5925, 0.0349 -0.3669 1.5953, 0.0128 -0.3669 1.5959, 0.0153 -0.3669 1.581, 0.0196 -0.3669 1.5865, 0.0211 -0.3669 1.5879, 0.0088 -0.3669 1.5959, 0.0118 -0.3669 1.5737, 0.0128 -0.3669 1.5758, 0.0111 -0.3669 1.549, 0.0088 -0.3669 1.5267, 0.0098 -0.3669 1.56, 0.01 -0.3669 1.565, 0.0298 -0.3669 1.528, 0.0235 -0.3669 1.5312, 0.0185 -0.3669 1.5354, 0.0179 -0.3669 1.5361, 0.0357 -0.3669 1.5267, 0.0128 -0.3669 1.5067, 0.037 -0.3669 1.5264, 0.0419 -0.3669 1.5261, 0.0579 -0.3669 1.5067, 0.0479 -0.3669 1.5267, 0.0608 -0.3669 1.5301, 0.0596 -0.3669 1.5295, 0.0579 -0.3669 1.5267, 0.0579 -0.3669 1.5289, 0.0523 -0.3669 1.5271, 0.1597 -0.3669 1.4873, 0.1812 -0.3669 1.4873, 0.1812 -0.3669 1.5067, 0.1812 -0.3669 1.4186, 0.1812 -0.3669 1.4192, 0.1597 -0.3669 1.4192, 0.1261 -0.3669 1.4313, 0.1271 -0.3669 1.4273, 0.1273 -0.3669 1.4273, 0.1505 -0.3669 1.4679, 0.1175 -0.3669 1.5067, 0.1416 -0.3669 1.4679, 0.1175 -0.3669 1.456, 0.1284 -0.3669 1.4312, 0.1277 -0.3669 1.429, 0.1038 -0.3669 1.4679, 0.1016 -0.3669 1.5067, 0.1175 -0.3669 1.4331, 0.1133 -0.3669 1.4679, 0.1175 -0.3669 1.4186, 0.1226 -0.3669 1.4186, 0.1229 -0.3669 1.4193, 0.1175 -0.3669 1.4074, 0.1175 -0.3669 1.4074, 0.1191 -0.3669 1.4105, 0.1016 -0.3669 1.3917, 0.1056 -0.3669 1.397, 0.1056 -0.3669 1.4046, 0.1104 -0.3669 1.4036, 0.1125 -0.3669 1.4039, 0.1175 -0.3669 1.3978, 0.1145 -0.3669 1.3967, 0.1175 -0.3669 1.3917, 0.1111 -0.3669 1.3963, 0.1092 -0.3669 1.3964, 0.1143 -0.3669 1.4046, 0.1159 -0.3669 1.4056, 0.1284 -0.3669 1.4119, 0.1246 -0.3669 1.4044, 0.1812 -0.3669 1.3917, 0.1311 -0.3669 1.4186, 0.1214 -0.3669 1.4006, 0.1209 -0.3669 1.4001, 0.1179 -0.3669 1.398, 1.9685 -0.3669 1.1102, 1.9685 -0.3669 1.3917, 1.2475 -0.3669 1.3917, 1.2475 -0.3669 0.0276, 1.5354 -0.3669 0.0276, 1.5354 -0.3669 0.0787, 1.6142 -0.3669 0.0276, 2.1654 -0.3669 0.0276, 1.6142 -0.3669 0.0787, 2.1654 -0.3669 1.1102, 0.748 -0.3669 0.0787, 0.8268 -0.3669 0.0787, 0.2665 -0.3669 0.0276, 0.3543 -0.3669 0.0276, 0.3543 -0.3669 0.0787, 0.4331 -0.3669 0.0787, 0.4331 -0.3669 0.0276, 0.748 -0.3669 0.0276, 0.2665 -0.3669 1.3917, 0.2027 -0.3669 0.0276, 1.2205 -0.3669 0.0276, 1.2205 -0.3669 0.0787, 1.1417 -0.3669 0.0787, 1.1417 -0.3669 0.0276, 0.8268 -0.3669 0.0276, -0.0568 -0.3669 1.3917, -0.0568 -0.3669 0.0276, -0.0394 -0.3669 0.0787, -0.0394 -0.3669 0.0276, -0.8268 -0.3669 0.0787, -0.748 -0.3669 0.0787, -1.1417 -0.3669 0.0787, -1.1417 -0.3669 0.0276, -0.8268 -0.3669 0.0276, -1.5354 -0.3669 0.0276, -1.2205 -0.3669 0.0276, -1.5354 -0.3669 0.0787, -1.2205 -0.3669 0.0787, -0.3543 -0.3669 0.0276, -0.3543 -0.3669 0.0787, -0.4331 -0.3669 0.0787, -0.4331 -0.3669 0.0276, -0.748 -0.3669 0.0276, -1.9685 -0.3669 1.1102, -1.6142 -0.3669 0.0787, -2.1654 -0.3669 1.1102, -1.6142 -0.3669 0.0276, -2.1654 -0.3669 0.0276, -0.2684 -0.3669 1.3917, -0.2767 -0.3669 1.3885, -0.2885 -0.3669 1.387, -1.9685 -0.3669 1.3917, -0.2903 -0.3669 1.3871, -0.3296 -0.3669 1.4096, -0.3339 -0.3669 1.4186, -1.9685 -0.3669 1.4186, -0.3224 -0.3669 1.4007, -0.3017 -0.3669 1.3888, -0.3085 -0.3669 1.3917, -0.3129 -0.3669 1.3935, -0.3581 -0.3669 1.4303, -0.3732 -0.3669 1.4432, -0.3842 -0.3669 1.459, -0.3406 -0.3669 1.4218, -0.3345 -0.3669 1.42, -0.3912 -0.3669 1.477, -0.3935 -0.3669 1.496, -1.9685 -0.3669 1.5067, -0.3934 -0.3669 1.5006, -0.3923 -0.3669 1.5067, -1.9685 -0.3669 1.5267, -0.3342 -0.3669 1.572, -0.3151 -0.3669 1.5744, -0.2827 -0.3669 1.5947, -0.3901 -0.3669 1.5188, -0.3866 -0.3669 1.5267, -1.9685 -0.3669 1.5959, -0.3824 -0.3669 1.5362, -0.3708 -0.3669 1.5511, -0.294 -0.3669 1.585, -0.3095 -0.3669 1.5741, -0.304 -0.3669 1.5734, -0.3675 -0.3669 1.5542, -0.3521 -0.3669 1.5651, -0.2807 -0.3669 1.5959, -1.9685 -0.3669 1.7008, -0.2706 -0.3669 1.6022, -0.2482 -0.3669 1.6107, -0.0568 -0.3669 1.7008, -0.2246 -0.3669 1.6136, -0.2035 -0.3669 1.6113, 1.9685 -0.3669 1.5959, 1.2475 -0.3669 1.5959, 1.2475 -0.3669 1.5267, 1.9685 -0.3669 1.5267, 1.2475 -0.3669 1.5067, 1.9685 -0.3669 1.5067, 1.2475 -0.3669 1.4186, 1.9685 -0.3669 1.4186, 0.0965 -0.3669 1.4405, 0.0981 -0.3669 1.4381, 0.097 -0.3669 1.4585, 0.0979 -0.3669 1.4263, 0.0963 -0.3669 1.4241, 0.0745 -0.3669 1.4666, 0.0705 -0.3669 1.5067, 0.072 -0.3669 1.4651, 0.0705 -0.3669 1.4637, 0.099 -0.3669 1.4356, 0.0994 -0.3669 1.4324, 0.099 -0.3669 1.429, 0.0791 -0.3669 1.4682, 0.0855 -0.3669 1.469, 0.097 -0.3669 1.4668, 0.091 -0.3669 1.4685, 0.0939 -0.3669 1.4219, 0.0913 -0.3669 1.4204, 0.0847 -0.3669 1.462, 0.0822 -0.3669 1.4618, 0.0754 -0.3669 1.4555, 0.0799 -0.3669 1.4612, 0.078 -0.3669 1.4602, 0.0754 -0.3669 1.4544, 0.0758 -0.3669 1.453, 0.0764 -0.3669 1.4519, 0.0772 -0.3669 1.451, 0.0802 -0.3669 1.4491, 0.0906 -0.3669 1.4613, 0.0855 -0.3669 1.4468, 0.0954 -0.3669 1.4595, 0.0888 -0.3669 1.4455, 0.0945 -0.3669 1.4423, 0.0767 -0.3669 1.4591, 0.0759 -0.3669 1.458, 0.0755 -0.3669 1.4569, 0.0665 -0.3669 1.4297, 0.0579 -0.3669 1.4186, 0.0695 -0.3669 1.4628, 0.0679 -0.3669 1.4605, 0.0696 -0.3669 1.4278, 0.0705 -0.3669 1.4275, 0.0705 -0.3669 1.4455, 0.069 -0.3669 1.447, 0.0679 -0.3669 1.4488, 0.0669 -0.3669 1.4514, 0.0666 -0.3669 1.4547, 0.0669 -0.3669 1.4578, 0.0704 -0.3669 1.4456, 0.0749 -0.3669 1.4257, 0.0795 -0.3669 1.4406, 0.0744 -0.3669 1.4429, 0.0806 -0.3669 1.425, 0.0809 -0.3669 1.425, 0.0851 -0.3669 1.4382, 0.0853 -0.3669 1.4255, 0.0906 -0.3669 1.4316, 0.0905 -0.3669 1.4327, 0.0875 -0.3669 1.4263, 0.0883 -0.3669 1.4268, 0.0893 -0.3669 1.4277, 0.09 -0.3669 1.4288, 0.0904 -0.3669 1.43, 0.0901 -0.3669 1.434, 0.0895 -0.3669 1.4351, 0.0884 -0.3669 1.4362, 0.0745 -0.3669 1.4186, 0.0722 -0.3669 1.4189, 0.0705 -0.3669 1.4186, 0.0705 -0.3669 1.4195, 0.0665 -0.3669 1.4209, 0.0797 -0.3669 1.4181, 0.0705 -0.3669 1.3917, 0.1073 -0.3669 1.404, 0.0193 -0.3669 1.4423, 0.0206 -0.3669 1.4562, 0.0176 -0.3669 1.4399, 0.0164 -0.3669 1.4368, 0.0218 -0.3669 1.4446, 0.0254 -0.3669 1.4465, 0.0261 -0.3669 1.4596, 0.032 -0.3669 1.4481, 0.0395 -0.3669 1.4617, 0.0366 -0.3669 1.462, 0.0314 -0.3669 1.4615, 0.0229 -0.3669 1.4199, 0.0201 -0.3669 1.4219, 0.0128 -0.3669 1.4186, 0.0191 -0.3669 1.4229, 0.0173 -0.3669 1.4255, 0.0423 -0.3669 1.4685, 0.046 -0.3669 1.4675, 0.0488 -0.3669 1.4659, 0.0511 -0.3669 1.4637, 0.0529 -0.3669 1.461, 0.0464 -0.3669 1.4267, 0.0462 -0.3669 1.4267, 0.0464 -0.3669 1.4192, 0.0449 -0.3669 1.4247, 0.0422 -0.3669 1.4218, 0.0163 -0.3669 1.4284, 0.0159 -0.3669 1.4322, 0.0206 -0.3669 1.4644, 0.0542 -0.3669 1.4572, 0.055 -0.3669 1.4505, 0.055 -0.3669 1.4192, 0.0225 -0.3669 1.4655, 0.0288 -0.3669 1.4679, 0.0374 -0.3669 1.469, 0.0464 -0.3669 1.4501, 0.0461 -0.3669 1.4539, 0.0453 -0.3669 1.4569, 0.0443 -0.3669 1.4587, 0.043 -0.3669 1.4601, 0.0415 -0.3669 1.461, 0.036 -0.3669 1.4186, 0.0357 -0.3669 1.4186, 0.0579 -0.3669 1.3917, 0.0128 -0.3669 1.3917, 0.0128 -0.3669 0.0787, 0.0313 -0.3669 1.4181, 0.0264 -0.3669 1.4186, 0.0262 -0.3669 1.4187, -0.1158 -0.3669 1.5422, -0.1027 -0.3669 1.5311, -0.0568 -0.3669 1.5959, -0.0568 -0.3669 1.5267, -0.1793 -0.3669 1.6024, -0.1697 -0.3669 1.5959, -0.1587 -0.3669 1.5884, -0.1426 -0.3669 1.5698, -0.1326 -0.3669 1.5502, -0.1302 -0.3669 1.5494, -0.0568 -0.3669 1.4186, -0.2431 -0.3669 1.4186, -0.2432 -0.3669 1.4184, -0.2489 -0.3669 1.4076, -0.2563 -0.3669 1.3993, -0.2659 -0.3669 1.3926, -0.0869 -0.3669 1.5026, -0.0847 -0.3669 1.4868, -0.0568 -0.3669 1.5067, -0.1813 -0.3669 1.4472, -0.178 -0.3669 1.4485, -0.1723 -0.3669 1.4761, -0.1026 -0.3669 1.4408, -0.1157 -0.3669 1.4296, -0.2522 -0.3669 1.4679, -0.1873 -0.3669 1.5018, -0.2606 -0.3669 1.4756, -0.2709 -0.3669 1.4811, -0.1843 -0.3669 1.4451, -0.093 -0.3669 1.4542, -0.1149 -0.3669 1.4906, -0.1172 -0.3669 1.4999, -0.1209 -0.3669 1.5067, -0.3618 -0.3669 1.5067, -0.0869 -0.3669 1.4695, -0.1742 -0.3669 1.449, -0.1737 -0.3669 1.449, -0.1723 -0.3669 1.4486, -0.359 -0.3669 1.4776, -0.3532 -0.3669 1.4678, -0.3286 -0.3669 1.4628, -0.3445 -0.3669 1.4589, -0.334 -0.3669 1.4524, -0.3107 -0.3669 1.4788, -0.3206 -0.3669 1.4719, -0.363 -0.3669 1.4969, -0.3624 -0.3669 1.4894, -0.3 -0.3669 1.4829, -0.2885 -0.3669 1.4843, -0.2826 -0.3669 1.484, -0.1892 -0.3669 1.434, -0.1891 -0.3669 1.4359, -0.2401 -0.3669 1.4403, -0.1881 -0.3669 1.4396, -0.1863 -0.3669 1.4429, -0.1245 -0.3669 1.4607, -0.1192 -0.3669 1.4682, -0.1158 -0.3669 1.4768, -0.1147 -0.3669 1.4863, -0.1779 -0.3669 1.4194, -0.1811 -0.3669 1.4207, -0.1843 -0.3669 1.4229, -0.1854 -0.3669 1.4241, -0.1875 -0.3669 1.4271, -0.1888 -0.3669 1.4304, -0.2403 -0.3669 1.4304, -0.2401 -0.3669 1.4354, -0.1305 -0.3669 1.4224, -0.1466 -0.3669 1.419, -0.1752 -0.3669 1.419, -0.1713 -0.3669 1.4485, -0.1495 -0.3669 1.4485, -0.1408 -0.3669 1.4502, -0.1323 -0.3669 1.4542, -0.1251 -0.3669 1.46, -0.1563 -0.3669 1.524, -0.3574 -0.3669 1.5195, -0.3616 -0.3669 1.5087, -0.1524 -0.3669 1.524, -0.1217 -0.3669 1.5082, -0.1273 -0.3669 1.5144, -0.1348 -0.3669 1.5196, -0.1432 -0.3669 1.5229, -0.1668 -0.3669 1.5532, -0.1777 -0.3669 1.5662, -0.289 -0.3669 1.5381, -0.1789 -0.3669 1.5673, -0.1925 -0.3669 1.5767, -0.2816 -0.3669 1.5534, -0.3524 -0.3669 1.5267, -0.2924 -0.3669 1.5399, -0.1569 -0.3669 1.5267, -0.1593 -0.3669 1.5376, -0.3032 -0.3669 1.5439, -0.3146 -0.3669 1.5453, -0.3197 -0.3669 1.5451, -0.2707 -0.3669 1.5664, -0.2077 -0.3669 1.5825, -0.2577 -0.3669 1.5758, -0.2241 -0.3669 1.5846, -0.2419 -0.3669 1.5823, -0.3316 -0.3669 1.5422, -0.3424 -0.3669 1.5365, -0.3507 -0.3669 1.5291, -0.0995 -0.3669 1.5267, -0.0928 -0.3669 1.5174, -0.0885 -0.3669 1.5067, 0.1963 -0.3669 1.4192, 0.2027 -0.3669 1.4186, 0.1963 -0.3669 1.427, 0.2027 -0.3669 1.5067, 0.1948 -0.3669 1.4873, 0.1948 -0.3669 1.4795, 0.1685 -0.3669 1.4499, 0.1685 -0.3669 1.427, 0.1812 -0.3669 1.4499, 0.1812 -0.3669 1.427, 0.1928 -0.3669 1.4499, 0.1928 -0.3669 1.4577, 0.1685 -0.3669 1.4795, 0.1685 -0.3669 1.4577, 0.1812 -0.3669 1.4795, 0.1812 -0.3669 1.4577, 0.1175 -0.3669 1.5959, 0.1016 -0.3669 1.5959, 0.1095 -0.3669 1.5953, 0.1016 -0.3669 1.5953, 0.0832 -0.3669 1.5579, 0.0832 -0.3669 1.535, 0.1016 -0.3669 1.5579, 0.1016 -0.3669 1.535, 0.1075 -0.3669 1.5579, 0.111 -0.3669 1.535, 0.1075 -0.3669 1.5657, 0.1095 -0.3669 1.5875, 0.1016 -0.3669 1.5657, 0.1016 -0.3669 1.5875, 0.0832 -0.3669 1.5657, 0.0832 -0.3669 1.5875, 0.1175 -0.3669 1.5267, 0.111 -0.3669 1.5272, 0.1016 -0.3669 1.5267, 0.1016 -0.3669 1.5272, 0.0744 -0.3669 1.5272, 0.0744 -0.3669 1.5953, 0.2027 -0.3669 1.3917, 0.1812 -0.3669 0.0276, 0.1175 -0.3669 0.0276, 0.1016 -0.3669 0.0276, 0.0705 -0.3669 0.0276, 0.0392 -0.3669 1.4198, 0.2665 -0.3669 1.4186, -0.0289 -0.3669 1.4873, -0.0289 -0.3669 1.4192, 0.0088 -0.3669 1.4186, 0.0088 -0.3669 1.3917, 0.0088 -0.3669 0.0787, 0.0062 -0.3669 1.4873, 0.0088 -0.3669 1.5067, 0.0062 -0.3669 1.4795, 0.0077 -0.3669 1.427, 0.0077 -0.3669 1.4192, -0.0201 -0.3669 1.4499, -0.0201 -0.3669 1.427, 0.0042 -0.3669 1.4499, 0.0042 -0.3669 1.4577, -0.0201 -0.3669 1.4577, -0.0201 -0.3669 1.4795, 0.2092 -0.3669 1.4192, 0.2624 -0.3669 1.4408, 0.2588 -0.3669 1.4339, 0.2394 -0.3669 1.4206, 0.2279 -0.3669 1.4192, 0.261 -0.3669 1.47, 0.2635 -0.3669 1.4635, 0.2665 -0.3669 1.5067, 0.2646 -0.3669 1.4541, 0.2643 -0.3669 1.4486, 0.2543 -0.3669 1.4288, 0.2472 -0.3669 1.4236, 0.2092 -0.3669 1.4873, 0.2286 -0.3669 1.4873, 0.239 -0.3669 1.4862, 0.2472 -0.3669 1.4832, 0.2543 -0.3669 1.4783, 0.2568 -0.3669 1.4759, 0.2781 -0.3669 1.4192, 0.2684 -0.3669 1.4192, 0.3199 -0.3669 1.4192, 0.313 -0.3669 1.4378, 0.2846 -0.3669 1.4378, 0.2943 -0.3669 1.4873, 0.3037 -0.3669 1.4873, -0.0289 -0.3669 1.5272, -0.0289 -0.3669 1.5953, 0.007 -0.3669 1.5272, 0.1757 -0.3669 1.578, 0.1782 -0.3669 1.5715, 0.1793 -0.3669 1.5622, 0.179 -0.3669 1.5566, 0.1771 -0.3669 1.5488, 0.1735 -0.3669 1.5419, 0.1691 -0.3669 1.5368, 0.1619 -0.3669 1.5316, 0.1433 -0.3669 1.5953, 0.1537 -0.3669 1.5942, 0.1619 -0.3669 1.5912, 0.1541 -0.3669 1.5286, 0.1426 -0.3669 1.5272, 0.1239 -0.3669 1.5272, 0.1239 -0.3669 1.5953, 0.1691 -0.3669 1.5863, 0.1715 -0.3669 1.5839, 0.3296 -0.3669 1.4192, 0.0088 -0.3669 1.7008, 1.9685 -0.3669 1.7008, 1.2475 -0.3669 1.7008, 0.2665 -0.3669 1.7008, 0.2027 -0.3669 1.7008, 0.1812 -0.3669 1.7008, 0.1175 -0.3669 1.7008, 0.1016 -0.3669 1.7008, 0.0705 -0.3669 1.7008, 1.9685 0.578 0.2441, 1.9685 0.578 0.5, 1.9724 0.578 0.2441, 1.9724 0.578 0.5, 1.9685 0.1843 0.2441, 1.9724 0.1843 0.2441, 1.9685 0.1843 0.0276, 1.9724 0.1843 0.0276, -2.1654 0.7748 1.7008, 2.1654 0.7748 1.7008, 1.9685 0.7748 0.6137, 2.1654 0.7748 0.6137, -2.1654 0.7748 0.6137, -1.9685 0.7748 0.6137, -1.9685 0.7748 0.0276, 1.9685 0.7748 0.0276, -1.9724 0.578 0.2441, -1.9685 0.578 0.2441, -1.9724 0.1843 0.2441, -1.9685 0.1843 0.2441, -1.9724 0.578 0.5, -1.9685 0.578 0.5, -1.9724 0.1843 0.0276, -1.9685 0.1843 0.0276, -1.8504 0.6173 0.5197, -1.8504 0.5346 0.5197, -1.7323 0.6173 0.5197, -1.7323 0.5346 0.5197, -1.378 0.6173 0.5197, -1.378 0.5346 0.5197, -0.9843 0.6173 0.5197, -0.9843 0.5346 0.5197, -0.5906 0.6173 0.5197, -0.5906 0.5346 0.5197, -0.1969 0.6173 0.5197, -0.1969 0.5346 0.5197, 0.1969 0.6173 0.5197, 0.1969 0.5346 0.5197, 0.5906 0.6173 0.5197, 0.5906 0.5346 0.5197, 0.9843 0.6173 0.5197, 0.9843 0.5346 0.5197, 1.378 0.6173 0.5197, 1.378 0.5346 0.5197, 1.8504 0.6173 0.5197, 1.8504 0.5346 0.5197, 1.6142 0.452 0.5197, 1.5354 0.452 0.5197, 1.5354 0.263 0.5197, 1.378 -0.2095 0.5197, 1.6142 0.263 0.5197, 1.8504 -0.2095 0.5197, 1.2205 0.452 0.5197, 1.1417 0.452 0.5197, 1.1417 0.263 0.5197, 0.9843 -0.2095 0.5197, 1.2205 0.263 0.5197, 0.8268 0.452 0.5197, 0.748 0.452 0.5197, 0.748 0.263 0.5197, 0.5906 -0.2095 0.5197, 0.8268 0.263 0.5197, 0.4331 0.452 0.5197, 0.3543 0.452 0.5197, 0.3543 0.263 0.5197, 0.1969 -0.2095 0.5197, 0.4331 0.263 0.5197, 0.0394 0.452 0.5197, -0.0394 0.452 0.5197, -0.0394 0.263 0.5197, -0.1969 -0.2095 0.5197, 0.0394 0.263 0.5197, -0.3543 0.452 0.5197, -0.4331 0.452 0.5197, -0.4331 0.263 0.5197, -0.5906 -0.2095 0.5197, -0.3543 0.263 0.5197, -0.748 0.452 0.5197, -0.8268 0.452 0.5197, -0.8268 0.263 0.5197, -0.9843 -0.2095 0.5197, -0.748 0.263 0.5197, -1.1417 0.452 0.5197, -1.2205 0.452 0.5197, -1.2205 0.263 0.5197, -1.378 -0.2095 0.5197, -1.1417 0.263 0.5197, -1.7323 -0.2095 0.5197, -1.5354 0.263 0.5197, -1.5354 0.452 0.5197, -1.6142 0.452 0.5197, -1.6142 0.263 0.5197, -1.8504 -0.2095 0.5197, 1.9882 0.1843 0.7559, 1.9882 0.1843 1.7008, 1.9882 0.4205 0.7559, 1.9882 0.4205 1.7008, -1.9882 0.4205 0.7559, -1.9882 0.4205 1.7008, -1.9882 0.1843 0.7559, -1.9882 0.1843 1.7008, 1.8504 0.1843 0.7559, 1.8504 0.1843 1.7008, 1.8504 0.4205 0.7559, 1.8504 0.4205 1.7008, -1.8504 0.1843 0.7559, -1.8504 0.1843 1.7008, -1.8504 0.4205 0.7559, -1.8504 0.4205 1.7008, 1.8504 0.6173 1.7008, 1.8504 -0.2095 1.7008, -1.8504 0.6173 1.7008, -1.8504 -0.2095 1.7008, -2.1654 0.1843 0.2441, -2.1654 0.578 0.2441, -2.0472 0.1843 0.2441, -2.0472 0.578 0.2441, -2.1654 0.578 0.5, -2.0472 0.578 0.5, -2.1654 0.1055 1.5039, -2.1654 -0.1504 1.5039, -1.9685 0.1055 1.5039, -1.9685 -0.1504 1.5039, -2.1654 -0.1504 1.1102, -1.9685 -0.1504 1.1102, -2.1654 0.1843 0.0276, -2.0472 0.1843 0.0276, 1.9685 0.1055 1.5039, 1.9685 0.1055 1.7008, 1.9685 -0.1504 1.5039, 1.9685 -0.1504 1.1102, -1.9685 0.1055 1.7008, -2.1654 0.1055 1.7008, 2.1654 -0.1504 1.1102, 2.1654 -0.1504 1.5039, 2.1654 0.1055 1.5039, 2.1654 0.1055 1.7008, 2.0472 0.578 0.5, 2.1654 0.578 0.5, 2.0472 0.578 0.2441, 2.1654 0.578 0.2441, 2.0472 0.1843 0.2441, 2.1654 0.1843 0.2441, 2.0472 0.1843 0.0276, 2.1654 0.1843 0.0276, -0.8268 -0.3276 0.0276, -1.1417 -0.3276 0.0276, 0.3543 -0.3276 0.0276, -1.6142 -0.3276 0.0276, 1.1417 -0.3276 0.0276, 1.6142 -0.3276 0.0276, -1.2205 -0.3276 0.0276, -1.5354 -0.3276 0.0276, 1.5354 -0.3276 0.0276, 1.2205 -0.3276 0.0276, 0.0394 -0.3276 0.0276, -0.0394 -0.3276 0.0276, -0.3543 -0.3276 0.0276, -0.4331 -0.3276 0.0276, -0.748 -0.3276 0.0276, 0.8268 -0.3276 0.0276, 0.748 -0.3276 0.0276, 0.4331 -0.3276 0.0276
            ]
        }
        coordIndex [
            0,1,2,-1,3,4,5,-1,6,7,8,-1,9,10,11,-1,12,13,14,-1,15,16,14,-1,14,16,17,-1,14,17,12,-1,13,12,18,-1,18,12,19,-1,18,19,20,-1,16,21,17,-1,17,21,22,-1,17,22,23,-1,23,22,24,-1,23,24,25,-1,25,24,26,-1,25,26,20,-1,20,26,27,-1,20,27,18,-1,28,29,30,-1,31,32,33,-1,33,32,34,-1,33,34,35,-1,36,37,28,-1,28,37,38,-1,38,39,28,-1,28,39,40,-1,28,40,41,-1,42,43,28,-1,28,43,44,-1,28,44,29,-1,36,28,33,-1,33,28,45,-1,33,45,31,-1,41,46,28,-1,28,46,47,-1,28,47,42,-1,30,48,28,-1,28,48,49,-1,28,49,50,-1,50,49,51,-1,50,51,52,-1,52,51,53,-1,52,53,54,-1,55,56,57,-1,57,56,58,-1,57,58,54,-1,54,58,59,-1,54,59,52,-1,60,61,62,-1,62,61,63,-1,62,63,64,-1,65,66,67,-1,68,69,67,-1,67,69,70,-1,67,70,65,-1,71,72,67,-1,67,72,73,-1,67,73,68,-1,10,74,75,-1,75,74,76,-1,75,76,71,-1,71,76,77,-1,71,77,72,-1,78,79,11,-1,79,80,11,-1,11,80,81,-1,11,81,9,-1,78,11,82,-1,82,11,83,-1,82,83,84,-1,84,83,85,-1,85,83,86,-1,85,86,87,-1,51,88,53,-1,53,88,89,-1,53,89,90,-1,90,89,91,-1,90,91,92,-1,93,94,95,-1,96,97,98,-1,99,100,101,-1,102,103,104,-1,104,103,105,-1,104,105,106,-1,106,105,99,-1,106,99,107,-1,107,99,101,-1,108,109,5,-1,108,5,110,-1,109,108,103,-1,103,108,111,-1,103,111,105,-1,5,112,110,-1,110,112,113,-1,110,113,114,-1,115,116,112,-1,112,116,117,-1,112,117,113,-1,118,119,120,-1,112,121,122,-1,123,124,125,-1,125,124,126,-1,125,126,118,-1,118,126,127,-1,118,127,119,-1,122,128,112,-1,112,128,129,-1,112,129,115,-1,130,131,132,-1,130,132,133,-1,131,134,132,-1,132,134,135,-1,132,135,125,-1,125,135,136,-1,125,136,123,-1,137,138,139,-1,140,141,142,-1,143,144,145,-1,145,144,146,-1,145,146,142,-1,142,146,137,-1,142,137,140,-1,140,137,139,-1,147,148,139,-1,149,150,151,-1,152,153,154,-1,154,147,152,-1,152,147,139,-1,152,139,151,-1,151,139,155,-1,151,155,149,-1,149,155,156,-1,157,140,158,-1,158,140,139,-1,158,139,159,-1,159,139,148,-1,159,148,160,-1,160,148,161,-1,162,163,164,-1,164,163,165,-1,166,167,162,-1,168,169,170,-1,171,172,173,-1,173,172,174,-1,175,163,176,-1,176,163,162,-1,176,162,177,-1,177,162,167,-1,177,167,178,-1,178,167,179,-1,173,180,181,-1,181,180,182,-1,181,182,183,-1,183,182,184,-1,170,166,168,-1,168,166,162,-1,168,162,174,-1,174,162,185,-1,174,185,173,-1,173,185,186,-1,173,186,180,-1,180,186,187,-1,180,187,188,-1,188,187,189,-1,190,191,192,-1,190,192,193,-1,189,194,188,-1,188,194,195,-1,188,195,192,-1,192,195,196,-1,192,196,193,-1,197,198,192,-1,192,198,199,-1,197,192,200,-1,200,192,191,-1,200,191,201,-1,199,202,192,-1,192,202,203,-1,192,203,204,-1,203,205,204,-1,204,205,206,-1,204,206,207,-1,208,209,210,-1,206,211,207,-1,207,211,212,-1,207,212,213,-1,213,212,214,-1,213,214,215,-1,210,209,216,-1,216,209,217,-1,216,217,218,-1,215,219,213,-1,213,219,220,-1,213,220,208,-1,208,210,213,-1,213,210,221,-1,213,221,222,-1,221,223,222,-1,222,223,224,-1,222,224,225,-1,225,224,226,-1,225,226,227,-1,228,229,230,-1,228,230,231,-1,231,230,232,-1,231,232,233,-1,233,232,234,-1,233,234,235,-1,236,237,238,-1,5,239,240,-1,241,242,243,-1,243,242,244,-1,245,246,5,-1,5,246,247,-1,5,247,239,-1,241,248,242,-1,242,248,249,-1,242,249,109,-1,237,245,238,-1,238,245,5,-1,238,5,250,-1,250,5,109,-1,250,109,251,-1,251,109,249,-1,240,252,5,-1,5,252,253,-1,5,253,3,-1,254,255,256,-1,256,255,257,-1,256,257,258,-1,256,259,254,-1,254,259,260,-1,254,260,261,-1,261,262,254,-1,254,262,263,-1,254,263,264,-1,264,263,265,-1,264,265,266,-1,266,265,267,-1,266,267,238,-1,238,267,268,-1,238,268,236,-1,269,270,258,-1,258,270,271,-1,258,271,256,-1,272,86,273,-1,244,242,274,-1,274,242,86,-1,274,86,275,-1,276,277,278,-1,279,280,272,-1,280,281,272,-1,272,281,282,-1,272,282,86,-1,86,282,283,-1,86,283,275,-1,276,278,272,-1,272,278,284,-1,272,284,279,-1,285,286,277,-1,277,286,287,-1,277,287,278,-1,285,288,286,-1,286,288,289,-1,286,289,290,-1,290,289,291,-1,290,292,293,-1,291,294,290,-1,290,294,295,-1,290,295,296,-1,296,297,290,-1,290,297,298,-1,290,298,292,-1,293,299,290,-1,290,299,300,-1,290,300,301,-1,302,303,304,-1,304,303,305,-1,304,305,273,-1,273,305,306,-1,273,306,272,-1,307,308,4,-1,4,308,118,-1,4,118,5,-1,5,118,120,-1,5,120,112,-1,112,120,309,-1,112,309,121,-1,310,311,312,-1,312,311,313,-1,310,314,311,-1,311,314,315,-1,311,315,316,-1,316,315,317,-1,318,319,317,-1,317,319,320,-1,317,320,316,-1,321,322,323,-1,323,322,324,-1,323,324,325,-1,326,327,86,-1,327,328,86,-1,86,328,329,-1,86,329,330,-1,331,332,333,-1,333,332,334,-1,333,334,335,-1,325,336,323,-1,323,336,337,-1,323,337,83,-1,83,337,313,-1,83,313,338,-1,338,313,311,-1,330,339,86,-1,86,339,340,-1,86,340,273,-1,273,340,341,-1,273,341,333,-1,338,342,83,-1,83,342,343,-1,83,343,86,-1,86,343,344,-1,86,344,326,-1,345,346,317,-1,317,346,347,-1,317,347,348,-1,348,349,317,-1,317,349,350,-1,317,350,318,-1,351,352,353,-1,353,352,354,-1,353,354,355,-1,352,356,354,-1,354,356,357,-1,354,357,323,-1,323,357,358,-1,323,358,321,-1,359,360,361,-1,361,360,362,-1,363,364,361,-1,361,364,365,-1,361,365,366,-1,366,367,361,-1,361,367,368,-1,361,368,359,-1,369,370,162,-1,162,370,371,-1,162,371,372,-1,372,373,162,-1,162,373,374,-1,162,374,185,-1,375,376,377,-1,378,379,380,-1,381,382,369,-1,383,384,385,-1,385,384,386,-1,378,380,387,-1,381,369,388,-1,389,390,384,-1,384,390,391,-1,384,391,392,-1,377,376,369,-1,369,376,393,-1,369,393,388,-1,379,394,380,-1,380,394,395,-1,380,395,396,-1,397,398,399,-1,399,398,400,-1,399,400,401,-1,402,392,403,-1,403,392,404,-1,403,404,399,-1,399,404,405,-1,399,405,397,-1,402,406,392,-1,392,406,407,-1,392,407,384,-1,384,407,408,-1,384,408,386,-1,409,410,411,-1,411,410,412,-1,411,412,380,-1,380,412,413,-1,380,413,387,-1,414,415,380,-1,380,415,416,-1,380,416,384,-1,384,416,417,-1,384,417,389,-1,418,419,370,-1,370,419,420,-1,370,420,421,-1,421,422,370,-1,370,422,423,-1,370,423,424,-1,424,423,409,-1,424,409,425,-1,425,409,411,-1,382,426,369,-1,369,426,427,-1,369,427,370,-1,370,427,428,-1,370,428,418,-1,396,429,380,-1,380,429,430,-1,380,430,431,-1,431,432,380,-1,380,432,433,-1,380,433,414,-1,434,435,436,-1,436,392,434,-1,434,392,391,-1,434,391,437,-1,437,391,438,-1,438,439,437,-1,437,439,440,-1,437,440,441,-1,442,443,444,-1,443,445,444,-1,444,445,446,-1,444,446,447,-1,448,444,449,-1,435,434,448,-1,448,434,450,-1,448,450,444,-1,444,450,451,-1,444,451,442,-1,449,452,448,-1,448,452,453,-1,448,453,454,-1,447,446,455,-1,455,446,456,-1,455,456,457,-1,457,456,458,-1,457,458,459,-1,460,461,454,-1,454,461,462,-1,454,462,448,-1,360,463,362,-1,362,463,464,-1,362,464,377,-1,377,464,465,-1,377,465,375,-1,97,96,466,-1,466,96,467,-1,466,467,468,-1,95,94,469,-1,469,94,470,-1,469,470,471,-1,472,473,474,-1,474,473,475,-1,474,475,476,-1,476,475,468,-1,476,468,477,-1,478,479,480,-1,480,479,481,-1,480,481,471,-1,482,483,484,-1,484,483,485,-1,486,487,488,-1,488,487,489,-1,488,489,490,-1,490,489,491,-1,490,491,492,-1,492,491,493,-1,492,493,494,-1,494,493,495,-1,494,495,496,-1,496,495,497,-1,484,493,482,-1,482,493,491,-1,482,491,498,-1,498,491,499,-1,498,499,500,-1,500,499,501,-1,500,501,502,-1,485,483,503,-1,503,483,54,-1,503,54,502,-1,502,54,53,-1,502,53,500,-1,156,504,505,-1,505,504,132,-1,505,132,506,-1,506,132,125,-1,506,125,507,-1,507,125,118,-1,507,118,508,-1,508,118,308,-1,508,308,8,-1,8,308,353,-1,8,353,6,-1,6,353,355,-1,307,302,308,-1,308,302,304,-1,308,304,353,-1,353,304,273,-1,353,273,351,-1,351,273,333,-1,351,333,509,-1,509,333,335,-1,504,467,132,-1,132,467,96,-1,132,96,133,-1,133,96,98,-1,133,98,102,-1,102,98,93,-1,102,93,103,-1,103,93,95,-1,138,235,139,-1,139,235,234,-1,139,234,155,-1,155,234,510,-1,511,377,512,-1,512,377,369,-1,512,369,513,-1,513,369,162,-1,513,162,514,-1,514,162,164,-1,514,164,515,-1,511,516,517,-1,516,518,517,-1,517,518,519,-1,517,519,513,-1,513,519,520,-1,513,520,512,-1,521,522,523,-1,523,522,519,-1,523,519,524,-1,524,519,518,-1,524,518,525,-1,525,518,526,-1,481,477,471,-1,471,477,468,-1,471,468,469,-1,469,468,467,-1,469,467,527,-1,510,528,529,-1,510,530,531,-1,532,533,534,-1,534,533,535,-1,534,535,510,-1,510,535,536,-1,510,536,528,-1,529,537,510,-1,510,537,538,-1,510,538,530,-1,156,155,504,-1,504,155,510,-1,504,510,467,-1,467,510,531,-1,467,531,527,-1,527,539,469,-1,469,539,540,-1,469,540,534,-1,534,540,541,-1,534,541,542,-1,542,543,534,-1,534,543,544,-1,534,544,532,-1,545,546,510,-1,547,548,549,-1,510,546,534,-1,534,546,550,-1,534,550,551,-1,10,75,11,-1,11,75,517,-1,11,517,83,-1,83,517,513,-1,83,513,323,-1,323,513,514,-1,323,514,354,-1,354,514,515,-1,354,515,355,-1,534,12,469,-1,469,12,17,-1,469,17,95,-1,95,17,23,-1,95,23,103,-1,103,23,498,-1,103,498,109,-1,109,498,500,-1,109,500,242,-1,242,500,53,-1,242,53,86,-1,86,53,90,-1,86,90,87,-1,87,90,92,-1,511,517,377,-1,377,517,75,-1,377,75,362,-1,362,75,552,-1,362,552,361,-1,552,553,361,-1,361,553,0,-1,361,0,71,-1,71,0,2,-1,71,2,75,-1,75,2,554,-1,75,554,552,-1,555,556,25,-1,25,556,557,-1,25,557,23,-1,23,557,558,-1,23,558,559,-1,559,560,23,-1,23,560,561,-1,23,561,562,-1,482,563,25,-1,25,563,564,-1,25,564,565,-1,562,566,23,-1,23,566,567,-1,23,567,498,-1,498,567,568,-1,498,568,482,-1,482,568,569,-1,482,569,563,-1,565,570,25,-1,25,570,571,-1,25,571,555,-1,549,545,547,-1,547,545,510,-1,547,510,572,-1,572,510,234,-1,572,234,551,-1,551,234,232,-1,551,232,534,-1,534,232,230,-1,534,230,12,-1,12,230,229,-1,12,229,19,-1,66,61,67,-1,67,61,60,-1,67,60,71,-1,71,60,573,-1,71,573,361,-1,361,573,225,-1,361,225,363,-1,363,225,227,-1,228,574,229,-1,229,574,575,-1,229,575,19,-1,19,575,576,-1,19,576,20,-1,20,576,577,-1,20,577,25,-1,25,577,578,-1,25,578,482,-1,482,578,579,-1,482,579,483,-1,483,579,580,-1,483,580,54,-1,54,580,581,-1,54,581,57,-1,57,581,62,-1,57,62,55,-1,55,62,64,-1,582,583,584,-1,584,583,585,-1,586,582,587,-1,587,582,584,-1,588,586,589,-1,589,586,587,-1,590,591,592,-1,592,591,593,-1,594,590,595,-1,595,590,592,-1,595,592,596,-1,596,592,597,-1,598,599,600,-1,600,599,601,-1,602,603,598,-1,598,603,599,-1,600,601,604,-1,604,601,605,-1,606,607,608,-1,608,607,609,-1,608,609,610,-1,610,609,611,-1,610,611,612,-1,612,611,613,-1,612,613,614,-1,614,613,615,-1,614,615,616,-1,616,615,617,-1,616,617,618,-1,618,617,619,-1,618,619,620,-1,620,619,621,-1,620,621,622,-1,622,621,623,-1,622,623,624,-1,624,623,625,-1,624,625,626,-1,626,625,627,-1,628,627,629,-1,629,627,625,-1,629,625,630,-1,630,625,631,-1,630,631,632,-1,632,631,633,-1,632,633,628,-1,628,633,627,-1,634,625,635,-1,635,625,623,-1,635,623,636,-1,636,623,637,-1,636,637,638,-1,638,637,631,-1,638,631,634,-1,634,631,625,-1,639,623,640,-1,640,623,621,-1,640,621,641,-1,641,621,642,-1,641,642,643,-1,643,642,637,-1,643,637,639,-1,639,637,623,-1,644,621,645,-1,645,621,619,-1,645,619,646,-1,646,619,647,-1,646,647,648,-1,648,647,642,-1,648,642,644,-1,644,642,621,-1,649,619,650,-1,650,619,617,-1,650,617,651,-1,651,617,652,-1,651,652,653,-1,653,652,647,-1,653,647,649,-1,649,647,619,-1,654,617,655,-1,655,617,615,-1,655,615,656,-1,656,615,657,-1,656,657,658,-1,658,657,652,-1,658,652,654,-1,654,652,617,-1,659,615,660,-1,660,615,613,-1,660,613,661,-1,661,613,662,-1,661,662,663,-1,663,662,657,-1,663,657,659,-1,659,657,615,-1,664,613,665,-1,665,613,611,-1,665,611,666,-1,666,611,667,-1,666,667,668,-1,668,667,662,-1,668,662,664,-1,664,662,613,-1,669,667,670,-1,670,667,671,-1,671,667,611,-1,671,611,672,-1,672,611,609,-1,672,609,673,-1,607,674,609,-1,609,674,669,-1,609,669,673,-1,673,669,670,-1,675,676,677,-1,677,676,678,-1,679,680,681,-1,681,680,682,-1,683,684,675,-1,675,684,676,-1,677,678,685,-1,685,678,686,-1,685,683,677,-1,677,683,675,-1,681,682,687,-1,687,682,688,-1,689,679,687,-1,687,679,681,-1,689,690,679,-1,679,690,680,-1,685,686,691,-1,692,684,633,-1,633,684,683,-1,633,683,627,-1,627,683,685,-1,627,685,626,-1,626,685,691,-1,693,690,606,-1,606,690,689,-1,688,694,687,-1,687,694,674,-1,687,674,689,-1,689,674,607,-1,689,607,606,-1,695,696,697,-1,697,696,698,-1,696,699,698,-1,698,699,700,-1,701,702,703,-1,703,702,704,-1,702,705,704,-1,704,705,706,-1,705,182,706,-1,706,182,180,-1,707,695,708,-1,708,695,697,-1,633,631,692,-1,692,631,637,-1,637,642,692,-1,692,642,647,-1,692,647,694,-1,647,652,694,-1,694,652,657,-1,694,657,662,-1,662,667,694,-1,694,667,669,-1,694,669,674,-1,606,608,693,-1,693,608,610,-1,693,610,612,-1,612,614,693,-1,693,614,616,-1,693,616,691,-1,691,616,618,-1,691,618,620,-1,620,622,691,-1,691,622,624,-1,691,624,626,-1,709,710,711,-1,711,710,574,-1,711,574,712,-1,712,574,137,-1,706,180,704,-1,704,180,222,-1,704,222,703,-1,703,222,713,-1,714,701,713,-1,713,701,703,-1,137,146,712,-1,712,146,715,-1,712,715,711,-1,711,715,716,-1,711,716,709,-1,709,716,717,-1,709,717,710,-1,710,717,718,-1,719,720,721,-1,721,720,722,-1,721,722,723,-1,723,722,724,-1,723,724,725,-1,725,724,726,-1,727,170,169,-1,596,597,728,-1,729,150,7,-1,596,728,605,-1,183,184,730,-1,730,184,707,-1,731,160,161,-1,144,143,726,-1,726,143,732,-1,172,171,733,-1,733,171,734,-1,141,157,735,-1,735,157,736,-1,597,737,738,-1,165,175,738,-1,738,175,739,-1,738,739,597,-1,597,739,740,-1,178,179,740,-1,740,179,741,-1,740,741,597,-1,597,741,727,-1,597,727,728,-1,728,727,169,-1,597,742,743,-1,154,153,743,-1,743,153,744,-1,743,744,597,-1,597,744,729,-1,597,729,737,-1,737,729,7,-1,588,589,732,-1,732,589,725,-1,732,725,726,-1,732,735,588,-1,588,735,736,-1,588,736,597,-1,597,736,731,-1,597,731,742,-1,742,731,161,-1,728,733,605,-1,605,733,734,-1,605,734,604,-1,604,734,730,-1,604,730,708,-1,708,730,707,-1,603,595,599,-1,599,595,596,-1,599,596,601,-1,601,596,605,-1,699,594,700,-1,700,594,595,-1,700,595,602,-1,602,595,603,-1,707,184,695,-1,695,184,182,-1,695,182,696,-1,696,182,705,-1,705,702,701,-1,714,590,701,-1,701,590,594,-1,701,594,705,-1,705,594,699,-1,705,699,696,-1,691,591,693,-1,693,591,590,-1,693,590,690,-1,691,686,591,-1,591,686,678,-1,591,678,718,-1,718,678,676,-1,718,676,710,-1,710,676,684,-1,710,684,574,-1,574,684,692,-1,574,692,222,-1,222,692,694,-1,222,694,713,-1,713,694,688,-1,713,688,714,-1,714,688,682,-1,714,682,590,-1,590,682,680,-1,590,680,690,-1,593,591,718,-1,144,726,146,-1,146,726,724,-1,146,724,715,-1,715,724,722,-1,717,716,715,-1,718,717,593,-1,593,717,715,-1,593,715,720,-1,720,715,722,-1,585,583,592,-1,585,592,719,-1,719,592,593,-1,719,593,720,-1,586,588,582,-1,582,588,597,-1,582,597,583,-1,583,597,592,-1,
        ]
    }
}
Shape{
    appearance Appearance {
        material  Material 	{
            diffuseColor 0.6666666666666666 0.6666666666666666 0.6666666666666666
            specularColor 0.4666666666666667 0.4666666666666667 0.4666666666666667
            ambientIntensity 0.6667
            transparency 0.0
            shininess 0.5
        }
    }
    geometry IndexedFaceSet {
        ccw TRUE
        solid FALSE
        coord DEF co Coordinate {
            point [
                -1.5354 -0.6425 0.0787, -1.5354 -0.3669 0.0787, -1.6142 -0.6425 0.0787, -1.6142 -0.3669 0.0787, -1.5354 -0.6425 0.0, -1.6142 -0.6425 0.0, -1.5354 -0.3276 0.0, -1.6142 -0.3276 0.0, -1.5354 -0.3276 0.0276, -1.6142 -0.3276 0.0276, -1.5354 -0.3669 0.0276, -1.6142 -0.3669 0.0276, -1.5354 0.452 1.2087, -1.5354 0.452 0.5197, -1.6142 0.452 1.2087, -1.6142 0.452 0.5197, -1.5354 0.3142 1.2087, -1.6142 0.3142 1.2087, -1.5354 0.263 0.5197, -1.6142 0.263 0.5197, -1.1417 -0.6425 0.0787, -1.1417 -0.3669 0.0787, -1.2205 -0.6425 0.0787, -1.2205 -0.3669 0.0787, -1.1417 -0.6425 0.0, -1.2205 -0.6425 0.0, -1.1417 -0.3276 0.0, -1.2205 -0.3276 0.0, -1.1417 -0.3276 0.0276, -1.2205 -0.3276 0.0276, -1.1417 -0.3669 0.0276, -1.2205 -0.3669 0.0276, -1.1417 0.452 1.2087, -1.1417 0.452 0.5197, -1.2205 0.452 1.2087, -1.2205 0.452 0.5197, -1.1417 0.3142 1.2087, -1.2205 0.3142 1.2087, -1.1417 0.263 0.5197, -1.2205 0.263 0.5197, -0.748 -0.6425 0.0787, -0.748 -0.3669 0.0787, -0.8268 -0.6425 0.0787, -0.8268 -0.3669 0.0787, -0.748 -0.6425 0.0, -0.8268 -0.6425 0.0, -0.748 -0.3276 0.0, -0.8268 -0.3276 0.0, -0.748 -0.3276 0.0276, -0.8268 -0.3276 0.0276, -0.748 -0.3669 0.0276, -0.8268 -0.3669 0.0276, -0.748 0.452 1.2087, -0.748 0.452 0.5197, -0.8268 0.452 1.2087, -0.8268 0.452 0.5197, -0.748 0.3142 1.2087, -0.8268 0.3142 1.2087, -0.748 0.263 0.5197, -0.8268 0.263 0.5197, -0.3543 -0.6425 0.0787, -0.3543 -0.3669 0.0787, -0.4331 -0.6425 0.0787, -0.4331 -0.3669 0.0787, -0.3543 -0.6425 0.0, -0.4331 -0.6425 0.0, -0.3543 -0.3276 0.0, -0.4331 -0.3276 0.0, -0.3543 -0.3276 0.0276, -0.4331 -0.3276 0.0276, -0.3543 -0.3669 0.0276, -0.4331 -0.3669 0.0276, -0.3543 0.452 1.2087, -0.3543 0.452 0.5197, -0.4331 0.452 1.2087, -0.4331 0.452 0.5197, -0.3543 0.3142 1.2087, -0.4331 0.3142 1.2087, -0.3543 0.263 0.5197, -0.4331 0.263 0.5197, 0.0394 -0.6425 0.0787, 0.0394 -0.3669 0.0787, -0.0394 -0.6425 0.0787, -0.0394 -0.3669 0.0787, 0.0394 -0.6425 0.0, -0.0394 -0.6425 0.0, 0.0394 -0.3276 0.0, -0.0394 -0.3276 0.0, 0.0394 -0.3276 0.0276, -0.0394 -0.3276 0.0276, 0.0394 -0.3669 0.0276, -0.0394 -0.3669 0.0276, 0.0394 0.452 1.2087, 0.0394 0.452 0.5197, -0.0394 0.452 1.2087, -0.0394 0.452 0.5197, 0.0394 0.3142 1.2087, -0.0394 0.3142 1.2087, 0.0394 0.263 0.5197, -0.0394 0.263 0.5197, 0.4331 -0.6425 0.0787, 0.4331 -0.3669 0.0787, 0.3543 -0.6425 0.0787, 0.3543 -0.3669 0.0787, 0.4331 -0.6425 0.0, 0.3543 -0.6425 0.0, 0.4331 -0.3276 0.0, 0.3543 -0.3276 0.0, 0.4331 -0.3276 0.0276, 0.3543 -0.3276 0.0276, 0.4331 -0.3669 0.0276, 0.3543 -0.3669 0.0276, 0.4331 0.452 1.2087, 0.4331 0.452 0.5197, 0.3543 0.452 1.2087, 0.3543 0.452 0.5197, 0.4331 0.3142 1.2087, 0.3543 0.3142 1.2087, 0.4331 0.263 0.5197, 0.3543 0.263 0.5197, 0.8268 -0.6425 0.0787, 0.8268 -0.3669 0.0787, 0.748 -0.6425 0.0787, 0.748 -0.3669 0.0787, 0.8268 -0.6425 0.0, 0.748 -0.6425 0.0, 0.8268 -0.3276 0.0, 0.748 -0.3276 0.0, 0.8268 -0.3276 0.0276, 0.748 -0.3276 0.0276, 0.8268 -0.3669 0.0276, 0.748 -0.3669 0.0276, 0.8268 0.452 1.2087, 0.8268 0.452 0.5197, 0.748 0.452 1.2087, 0.748 0.452 0.5197, 0.8268 0.3142 1.2087, 0.748 0.3142 1.2087, 0.8268 0.263 0.5197, 0.748 0.263 0.5197, 1.2205 -0.6425 0.0787, 1.2205 -0.3669 0.0787, 1.1417 -0.6425 0.0787, 1.1417 -0.3669 0.0787, 1.2205 -0.6425 0.0, 1.1417 -0.6425 0.0, 1.2205 -0.3276 0.0, 1.1417 -0.3276 0.0, 1.2205 -0.3276 0.0276, 1.1417 -0.3276 0.0276, 1.2205 -0.3669 0.0276, 1.1417 -0.3669 0.0276, 1.2205 0.452 1.2087, 1.2205 0.452 0.5197, 1.1417 0.452 1.2087, 1.1417 0.452 0.5197, 1.2205 0.3142 1.2087, 1.1417 0.3142 1.2087, 1.2205 0.263 0.5197, 1.1417 0.263 0.5197, 1.6142 -0.6425 0.0787, 1.6142 -0.3669 0.0787, 1.5354 -0.6425 0.0787, 1.5354 -0.3669 0.0787, 1.6142 -0.6425 0.0, 1.5354 -0.6425 0.0, 1.6142 -0.3276 0.0, 1.5354 -0.3276 0.0, 1.6142 -0.3276 0.0276, 1.5354 -0.3276 0.0276, 1.6142 -0.3669 0.0276, 1.5354 -0.3669 0.0276, 1.6142 0.452 1.2087, 1.6142 0.452 0.5197, 1.5354 0.452 1.2087, 1.5354 0.452 0.5197, 1.6142 0.3142 1.2087, 1.5354 0.3142 1.2087, 1.6142 0.263 0.5197, 1.5354 0.263 0.5197, -2.0472 0.1843 0.0079, -1.9724 0.1843 0.0079, -2.0472 0.1843 0.0276, -1.9724 0.1843 0.0276, -1.9724 0.7748 0.0079, -2.0472 0.7748 0.0079, -1.9724 0.7748 0.5, -2.0472 0.7748 0.5, -1.9724 0.578 0.5, -2.0472 0.578 0.5, -1.9724 0.578 0.2441, -1.9724 0.1843 0.2441, -2.0472 0.1843 0.2441, -2.0472 0.578 0.2441, 1.9724 0.1843 0.0276, 1.9724 0.1843 0.0079, 2.0472 0.1843 0.0276, 2.0472 0.1843 0.0079, 1.9724 0.7748 0.5, 1.9724 0.578 0.5, 2.0472 0.7748 0.5, 2.0472 0.578 0.5, 1.9724 0.7748 0.0079, 2.0472 0.7748 0.0079, 1.9724 0.1843 0.2441, 1.9724 0.578 0.2441, 2.0472 0.578 0.2441, 2.0472 0.1843 0.2441
            ]
        }
        coordIndex [
            0,1,2,-1,2,1,3,-1,4,0,5,-1,5,0,2,-1,6,4,7,-1,7,4,5,-1,8,6,9,-1,9,6,7,-1,6,8,10,-1,1,0,10,-1,10,0,4,-1,10,4,6,-1,9,7,11,-1,11,7,5,-1,11,5,3,-1,3,5,2,-1,12,13,14,-1,14,13,15,-1,16,12,17,-1,17,12,14,-1,18,16,19,-1,19,16,17,-1,16,18,12,-1,12,18,13,-1,19,17,15,-1,15,17,14,-1,20,21,22,-1,22,21,23,-1,24,20,25,-1,25,20,22,-1,26,24,27,-1,27,24,25,-1,28,26,29,-1,29,26,27,-1,26,28,30,-1,21,20,30,-1,30,20,24,-1,30,24,26,-1,29,27,31,-1,31,27,25,-1,31,25,23,-1,23,25,22,-1,32,33,34,-1,34,33,35,-1,36,32,37,-1,37,32,34,-1,38,36,39,-1,39,36,37,-1,36,38,32,-1,32,38,33,-1,39,37,35,-1,35,37,34,-1,40,41,42,-1,42,41,43,-1,44,40,45,-1,45,40,42,-1,46,44,47,-1,47,44,45,-1,48,46,49,-1,49,46,47,-1,46,48,50,-1,41,40,50,-1,50,40,44,-1,50,44,46,-1,49,47,51,-1,51,47,45,-1,51,45,43,-1,43,45,42,-1,52,53,54,-1,54,53,55,-1,56,52,57,-1,57,52,54,-1,58,56,59,-1,59,56,57,-1,56,58,52,-1,52,58,53,-1,59,57,55,-1,55,57,54,-1,60,61,62,-1,62,61,63,-1,64,60,65,-1,65,60,62,-1,66,64,67,-1,67,64,65,-1,68,66,69,-1,69,66,67,-1,66,68,70,-1,61,60,70,-1,70,60,64,-1,70,64,66,-1,69,67,71,-1,71,67,65,-1,71,65,63,-1,63,65,62,-1,72,73,74,-1,74,73,75,-1,76,72,77,-1,77,72,74,-1,78,76,79,-1,79,76,77,-1,76,78,72,-1,72,78,73,-1,79,77,75,-1,75,77,74,-1,80,81,82,-1,82,81,83,-1,84,80,85,-1,85,80,82,-1,86,84,87,-1,87,84,85,-1,88,86,89,-1,89,86,87,-1,86,88,90,-1,81,80,90,-1,90,80,84,-1,90,84,86,-1,89,87,91,-1,91,87,85,-1,91,85,83,-1,83,85,82,-1,92,93,94,-1,94,93,95,-1,96,92,97,-1,97,92,94,-1,98,96,99,-1,99,96,97,-1,96,98,92,-1,92,98,93,-1,99,97,95,-1,95,97,94,-1,100,101,102,-1,102,101,103,-1,104,100,105,-1,105,100,102,-1,106,104,107,-1,107,104,105,-1,108,106,109,-1,109,106,107,-1,106,108,110,-1,101,100,110,-1,110,100,104,-1,110,104,106,-1,109,107,111,-1,111,107,105,-1,111,105,103,-1,103,105,102,-1,112,113,114,-1,114,113,115,-1,116,112,117,-1,117,112,114,-1,118,116,119,-1,119,116,117,-1,116,118,112,-1,112,118,113,-1,119,117,115,-1,115,117,114,-1,120,121,122,-1,122,121,123,-1,124,120,125,-1,125,120,122,-1,126,124,127,-1,127,124,125,-1,128,126,129,-1,129,126,127,-1,126,128,130,-1,121,120,130,-1,130,120,124,-1,130,124,126,-1,129,127,131,-1,131,127,125,-1,131,125,123,-1,123,125,122,-1,132,133,134,-1,134,133,135,-1,136,132,137,-1,137,132,134,-1,138,136,139,-1,139,136,137,-1,136,138,132,-1,132,138,133,-1,139,137,135,-1,135,137,134,-1,140,141,142,-1,142,141,143,-1,144,140,145,-1,145,140,142,-1,146,144,147,-1,147,144,145,-1,148,146,149,-1,149,146,147,-1,146,148,150,-1,141,140,150,-1,150,140,144,-1,150,144,146,-1,149,147,151,-1,151,147,145,-1,151,145,143,-1,143,145,142,-1,152,153,154,-1,154,153,155,-1,156,152,157,-1,157,152,154,-1,158,156,159,-1,159,156,157,-1,156,158,152,-1,152,158,153,-1,159,157,155,-1,155,157,154,-1,160,161,162,-1,162,161,163,-1,164,160,165,-1,165,160,162,-1,166,164,167,-1,167,164,165,-1,168,166,169,-1,169,166,167,-1,166,168,170,-1,161,160,170,-1,170,160,164,-1,170,164,166,-1,169,167,171,-1,171,167,165,-1,171,165,163,-1,163,165,162,-1,172,173,174,-1,174,173,175,-1,176,172,177,-1,177,172,174,-1,178,176,179,-1,179,176,177,-1,176,178,172,-1,172,178,173,-1,179,177,175,-1,175,177,174,-1,180,181,182,-1,182,181,183,-1,184,181,185,-1,185,181,180,-1,186,184,187,-1,187,184,185,-1,188,186,189,-1,189,186,187,-1,186,188,184,-1,184,188,190,-1,190,191,184,-1,184,191,183,-1,184,183,181,-1,182,192,193,-1,180,182,185,-1,185,182,193,-1,185,193,187,-1,187,193,189,-1,194,195,196,-1,196,195,197,-1,198,199,200,-1,200,199,201,-1,202,198,203,-1,203,198,200,-1,195,202,197,-1,197,202,203,-1,194,204,205,-1,195,194,202,-1,202,194,205,-1,202,205,198,-1,198,205,199,-1,200,201,203,-1,203,201,206,-1,206,207,203,-1,203,207,196,-1,203,196,197,-1,
        ]
    }
}
Shape{
    appearance Appearance {
        material  Material 	{
            diffuseColor 0.0 0.0 0.0
            specularColor 0.0 0.0 0.0
            ambientIntensity 0.0
            transparency 0.0
            shininess 0.5
        }
    }
    geometry IndexedFaceSet {
        ccw TRUE
        solid FALSE
        coord DEF co Coordinate {
            point [
                0.2515 -0.3709 1.4384, 0.2481 -0.3709 1.4341, 0.2543 -0.3709 1.4288, 0.2472 -0.3709 1.4333, 0.2472 -0.3709 1.4236, 0.2428 -0.3709 1.4303, 0.2394 -0.3709 1.4206, 0.2372 -0.3709 1.4281, 0.2279 -0.3709 1.4192, 0.2278 -0.3709 1.427, 0.2092 -0.3709 1.4192, 0.218 -0.3709 1.427, 0.2092 -0.3709 1.4873, 0.218 -0.3709 1.4795, 0.2286 -0.3709 1.4873, 0.2282 -0.3709 1.4795, 0.239 -0.3709 1.4862, 0.2372 -0.3709 1.4785, 0.2472 -0.3709 1.4832, 0.243 -0.3709 1.4763, 0.2543 -0.3709 1.4783, 0.2479 -0.3709 1.4731, 0.2568 -0.3709 1.4759, 0.2504 -0.3709 1.4705, 0.261 -0.3709 1.47, 0.2529 -0.3709 1.4665, 0.2635 -0.3709 1.4635, 0.2546 -0.3709 1.4612, 0.2646 -0.3709 1.4541, 0.2554 -0.3709 1.4539, 0.2643 -0.3709 1.4486, 0.2552 -0.3709 1.4498, 0.2624 -0.3709 1.4408, 0.2539 -0.3709 1.4435, 0.2588 -0.3709 1.4339, 0.2543 -0.3669 1.4288, 0.2588 -0.3669 1.4339, 0.2624 -0.3669 1.4408, 0.2643 -0.3669 1.4486, 0.2646 -0.3669 1.4541, 0.2635 -0.3669 1.4635, 0.261 -0.3669 1.47, 0.2568 -0.3669 1.4759, 0.2543 -0.3669 1.4783, 0.2472 -0.3669 1.4832, 0.239 -0.3669 1.4862, 0.2286 -0.3669 1.4873, 0.2092 -0.3669 1.4873, 0.2092 -0.3669 1.4192, 0.2279 -0.3669 1.4192, 0.2394 -0.3669 1.4206, 0.2472 -0.3669 1.4236, 0.2479 -0.3669 1.4731, 0.2504 -0.3669 1.4705, 0.2529 -0.3669 1.4665, 0.2546 -0.3669 1.4612, 0.2554 -0.3669 1.4539, 0.2282 -0.3669 1.4795, 0.2372 -0.3669 1.4785, 0.243 -0.3669 1.4763, 0.218 -0.3669 1.4795, 0.218 -0.3669 1.427, 0.2278 -0.3669 1.427, 0.2481 -0.3669 1.4341, 0.2472 -0.3669 1.4333, 0.2428 -0.3669 1.4303, 0.2372 -0.3669 1.4281, 0.2552 -0.3669 1.4498, 0.2539 -0.3669 1.4435, 0.2515 -0.3669 1.4384
            ]
        }
        coordIndex [
            0,1,2,-1,2,1,3,-1,2,3,4,-1,4,3,5,-1,4,5,6,-1,6,5,7,-1,6,7,8,-1,8,7,9,-1,8,9,10,-1,10,9,11,-1,10,11,12,-1,12,11,13,-1,12,13,14,-1,14,13,15,-1,14,15,16,-1,16,15,17,-1,16,17,18,-1,18,17,19,-1,18,19,20,-1,20,19,21,-1,20,21,22,-1,22,21,23,-1,22,23,24,-1,24,23,25,-1,24,25,26,-1,26,25,27,-1,26,27,28,-1,28,27,29,-1,28,29,30,-1,30,29,31,-1,30,31,32,-1,32,31,33,-1,32,33,34,-1,34,33,0,-1,34,0,2,-1,2,35,36,-1,2,36,34,-1,34,36,37,-1,34,37,32,-1,32,37,38,-1,32,38,30,-1,30,38,39,-1,30,39,28,-1,28,39,40,-1,28,40,26,-1,26,40,41,-1,26,41,24,-1,24,41,42,-1,24,42,22,-1,22,42,43,-1,22,43,20,-1,20,43,44,-1,20,44,18,-1,18,44,45,-1,18,45,16,-1,16,45,46,-1,16,46,14,-1,12,14,47,-1,47,14,46,-1,10,12,48,-1,48,12,47,-1,8,10,49,-1,49,10,48,-1,8,49,50,-1,8,50,6,-1,6,50,51,-1,6,51,4,-1,4,51,35,-1,4,35,2,-1,21,52,53,-1,21,53,23,-1,23,53,54,-1,23,54,25,-1,25,54,55,-1,25,55,27,-1,27,55,56,-1,27,56,29,-1,15,57,58,-1,15,58,17,-1,17,58,59,-1,17,59,19,-1,19,59,52,-1,19,52,21,-1,15,13,57,-1,57,13,60,-1,13,11,60,-1,60,11,61,-1,11,9,61,-1,61,9,62,-1,1,63,64,-1,1,64,3,-1,3,64,65,-1,3,65,5,-1,5,65,66,-1,5,66,7,-1,7,66,62,-1,7,62,9,-1,29,56,67,-1,29,67,31,-1,31,67,68,-1,31,68,33,-1,33,68,69,-1,33,69,0,-1,0,69,63,-1,0,63,1,-1,
        ]
    }
}
Shape{
    appearance Appearance {
        material  Material 	{
            diffuseColor 0.5882352941176471 0.5725490196078431 0.5254901960784314
            specularColor 0.043137254901960784 0.0392156862745098 0.0392156862745098
            ambientIntensity 0.8167
            transparency 0.0
            shininess 0.5
        }
    }
    geometry IndexedFaceSet {
        ccw TRUE
        solid FALSE
        coord DEF co Coordinate {
            point [
                0.218 -0.3669 1.4795, 0.218 -0.3669 1.427, 0.2282 -0.3669 1.4795, 0.2278 -0.3669 1.427, 0.2472 -0.3669 1.4333, 0.2481 -0.3669 1.4341, 0.2372 -0.3669 1.4281, 0.2428 -0.3669 1.4303, 0.2552 -0.3669 1.4498, 0.2554 -0.3669 1.4539, 0.2515 -0.3669 1.4384, 0.2539 -0.3669 1.4435, 0.2546 -0.3669 1.4612, 0.2529 -0.3669 1.4665, 0.2504 -0.3669 1.4705, 0.2479 -0.3669 1.4731, 0.243 -0.3669 1.4763, 0.2372 -0.3669 1.4785
            ]
        }
        coordIndex [
            0,1,2,-1,2,1,3,-1,2,4,5,-1,3,6,2,-1,2,6,7,-1,2,7,4,-1,8,9,2,-1,5,10,2,-1,2,10,11,-1,2,11,8,-1,9,12,2,-1,2,12,13,-1,2,13,14,-1,14,15,2,-1,2,15,16,-1,2,16,17,-1,
        ]
    }
}
Shape{
    appearance Appearance {
        material  Material 	{
            diffuseColor 0.0 0.0 0.0
            specularColor 0.0 0.0 0.0
            ambientIntensity 0.0
            transparency 0.0
            shininess 0.5
        }
    }
    geometry IndexedFaceSet {
        ccw TRUE
        solid FALSE
        coord DEF co Coordinate {
            point [
                0.1284 -0.3709 1.4312, 0.1284 -0.3669 1.4312, 0.1277 -0.3669 1.429, 0.1277 -0.3709 1.429, 0.1273 -0.3669 1.4273, 0.1273 -0.3709 1.4273, 0.1271 -0.3709 1.4273, 0.1271 -0.3669 1.4273, 0.1261 -0.3709 1.4313, 0.1261 -0.3669 1.4313, 0.1133 -0.3669 1.4679, 0.1133 -0.3709 1.4679, 0.1175 -0.3669 1.456, 0.1038 -0.3709 1.4679, 0.1038 -0.3669 1.4679, 0.1229 -0.3669 1.4193, 0.1229 -0.3709 1.4193, 0.1175 -0.3669 1.4331, 0.1191 -0.3669 1.4105, 0.1191 -0.3709 1.4105, 0.1226 -0.3669 1.4186, 0.1175 -0.3669 1.4074, 0.1175 -0.3669 1.4074, 0.1159 -0.3709 1.4056, 0.1175 -0.3709 1.4074, 0.1159 -0.3669 1.4056, 0.1143 -0.3669 1.4046, 0.1143 -0.3709 1.4046, 0.1125 -0.3669 1.4039, 0.1125 -0.3709 1.4039, 0.1104 -0.3669 1.4036, 0.1104 -0.3709 1.4036, 0.1073 -0.3669 1.404, 0.1073 -0.3709 1.404, 0.1056 -0.3669 1.4046, 0.1056 -0.3709 1.4046, 0.1056 -0.3709 1.397, 0.1056 -0.3669 1.397, 0.1092 -0.3669 1.3964, 0.1092 -0.3709 1.3964, 0.1111 -0.3669 1.3963, 0.1111 -0.3709 1.3963, 0.1145 -0.3669 1.3967, 0.1145 -0.3709 1.3967, 0.1175 -0.3669 1.3978, 0.1179 -0.3709 1.398, 0.1179 -0.3669 1.398, 0.1209 -0.3669 1.4001, 0.1209 -0.3709 1.4001, 0.1214 -0.3669 1.4006, 0.1214 -0.3709 1.4006, 0.1246 -0.3669 1.4044, 0.1246 -0.3709 1.4044, 0.1284 -0.3669 1.4119, 0.1284 -0.3709 1.4119, 0.1505 -0.3669 1.4679, 0.1505 -0.3709 1.4679, 0.1311 -0.3669 1.4186, 0.1416 -0.3709 1.4679, 0.1416 -0.3669 1.4679, 0.0797 -0.3669 1.4181, 0.0852 -0.3669 1.4186, 0.0797 -0.3709 1.4181, 0.0866 -0.3709 1.4188, 0.0866 -0.3669 1.4188, 0.0913 -0.3669 1.4204, 0.0913 -0.3709 1.4204, 0.0939 -0.3669 1.4219, 0.0939 -0.3709 1.4219, 0.0963 -0.3669 1.4241, 0.0963 -0.3709 1.4241, 0.0979 -0.3669 1.4263, 0.0979 -0.3709 1.4263, 0.099 -0.3669 1.429, 0.099 -0.3709 1.429, 0.0994 -0.3669 1.4324, 0.0994 -0.3709 1.4324, 0.099 -0.3669 1.4356, 0.099 -0.3709 1.4356, 0.0981 -0.3669 1.4381, 0.0981 -0.3709 1.4381, 0.0965 -0.3669 1.4405, 0.0965 -0.3709 1.4405, 0.0945 -0.3669 1.4423, 0.0945 -0.3709 1.4423, 0.0888 -0.3669 1.4455, 0.0888 -0.3709 1.4455, 0.0855 -0.3669 1.4468, 0.0855 -0.3709 1.4468, 0.0802 -0.3669 1.4491, 0.0802 -0.3709 1.4491, 0.0772 -0.3669 1.451, 0.0772 -0.3709 1.451, 0.0764 -0.3669 1.4519, 0.0764 -0.3709 1.4519, 0.0758 -0.3669 1.453, 0.0758 -0.3709 1.453, 0.0754 -0.3669 1.4544, 0.0754 -0.3709 1.4544, 0.0754 -0.3669 1.4555, 0.0754 -0.3709 1.4555, 0.0755 -0.3669 1.4569, 0.0755 -0.3709 1.4569, 0.0759 -0.3669 1.458, 0.0759 -0.3709 1.458, 0.0767 -0.3669 1.4591, 0.0767 -0.3709 1.4591, 0.078 -0.3669 1.4602, 0.078 -0.3709 1.4602, 0.0799 -0.3669 1.4612, 0.0799 -0.3709 1.4612, 0.0822 -0.3669 1.4618, 0.0822 -0.3709 1.4618, 0.0847 -0.3669 1.462, 0.0847 -0.3709 1.462, 0.0906 -0.3669 1.4613, 0.0906 -0.3709 1.4613, 0.0954 -0.3669 1.4595, 0.0954 -0.3709 1.4595, 0.097 -0.3669 1.4585, 0.097 -0.3709 1.4585, 0.097 -0.3709 1.4668, 0.097 -0.3669 1.4668, 0.091 -0.3669 1.4685, 0.091 -0.3709 1.4685, 0.0855 -0.3669 1.469, 0.0855 -0.3709 1.469, 0.0791 -0.3669 1.4682, 0.0791 -0.3709 1.4682, 0.0745 -0.3669 1.4666, 0.0745 -0.3709 1.4666, 0.072 -0.3669 1.4651, 0.072 -0.3709 1.4651, 0.0705 -0.3669 1.4637, 0.0695 -0.3709 1.4628, 0.0695 -0.3669 1.4628, 0.0679 -0.3669 1.4605, 0.0679 -0.3709 1.4605, 0.0669 -0.3669 1.4578, 0.0669 -0.3709 1.4578, 0.0666 -0.3669 1.4547, 0.0666 -0.3709 1.4547, 0.0669 -0.3669 1.4514, 0.0669 -0.3709 1.4514, 0.0679 -0.3669 1.4488, 0.0679 -0.3709 1.4488, 0.069 -0.3669 1.447, 0.069 -0.3709 1.447, 0.0795 -0.3669 1.4406, 0.0795 -0.3709 1.4406, 0.0744 -0.3709 1.4429, 0.0704 -0.3669 1.4456, 0.0704 -0.3709 1.4456, 0.0705 -0.3669 1.4455, 0.0744 -0.3669 1.4429, 0.0851 -0.3669 1.4382, 0.0851 -0.3709 1.4382, 0.0884 -0.3669 1.4362, 0.0884 -0.3709 1.4362, 0.0895 -0.3669 1.4351, 0.0895 -0.3709 1.4351, 0.0901 -0.3669 1.434, 0.0901 -0.3709 1.434, 0.0905 -0.3669 1.4327, 0.0905 -0.3709 1.4327, 0.0906 -0.3669 1.4316, 0.0906 -0.3709 1.4316, 0.0904 -0.3669 1.43, 0.0904 -0.3709 1.43, 0.09 -0.3669 1.4288, 0.09 -0.3709 1.4288, 0.0893 -0.3669 1.4277, 0.0893 -0.3709 1.4277, 0.0883 -0.3669 1.4268, 0.0883 -0.3709 1.4268, 0.0875 -0.3669 1.4263, 0.0875 -0.3709 1.4263, 0.0853 -0.3669 1.4255, 0.0853 -0.3709 1.4255, 0.0809 -0.3669 1.425, 0.0809 -0.3709 1.425, 0.0806 -0.3669 1.425, 0.0806 -0.3709 1.425, 0.0665 -0.3669 1.4297, 0.0665 -0.3709 1.4297, 0.0696 -0.3709 1.4278, 0.0749 -0.3669 1.4257, 0.0749 -0.3709 1.4257, 0.0705 -0.3669 1.4275, 0.0696 -0.3669 1.4278, 0.0665 -0.3709 1.4209, 0.0665 -0.3669 1.4209, 0.0705 -0.3669 1.4195, 0.0722 -0.3709 1.4189, 0.0745 -0.3669 1.4186, 0.0722 -0.3669 1.4189, 0.0464 -0.3709 1.4192, 0.055 -0.3709 1.4192, 0.0464 -0.3709 1.4267, 0.055 -0.3709 1.4505, 0.0464 -0.3709 1.4501, 0.0279 -0.3709 1.44, 0.0299 -0.3709 1.4409, 0.0462 -0.3709 1.4267, 0.0417 -0.3709 1.428, 0.0449 -0.3709 1.4247, 0.0393 -0.3709 1.4264, 0.0351 -0.3709 1.4421, 0.0464 -0.3709 1.4436, 0.0464 -0.3709 1.439, 0.0464 -0.3709 1.4384, 0.0459 -0.3709 1.4346, 0.0446 -0.3709 1.4315, 0.0428 -0.3709 1.429, 0.0461 -0.3709 1.4539, 0.0542 -0.3709 1.4572, 0.0453 -0.3709 1.4569, 0.0529 -0.3709 1.461, 0.0443 -0.3709 1.4587, 0.0511 -0.3709 1.4637, 0.043 -0.3709 1.4601, 0.0488 -0.3709 1.4659, 0.0415 -0.3709 1.461, 0.046 -0.3709 1.4675, 0.0395 -0.3709 1.4617, 0.0423 -0.3709 1.4685, 0.0366 -0.3709 1.462, 0.0374 -0.3709 1.469, 0.0314 -0.3709 1.4615, 0.0288 -0.3709 1.4679, 0.0261 -0.3709 1.4596, 0.0225 -0.3709 1.4655, 0.0206 -0.3709 1.4562, 0.0206 -0.3709 1.4644, 0.0263 -0.3709 1.428, 0.0201 -0.3709 1.4219, 0.027 -0.3709 1.4273, 0.0229 -0.3709 1.4199, 0.0287 -0.3709 1.4261, 0.0262 -0.3709 1.4187, 0.0306 -0.3709 1.4254, 0.0313 -0.3709 1.4181, 0.0335 -0.3709 1.4251, 0.0357 -0.3709 1.4186, 0.0367 -0.3709 1.4254, 0.0392 -0.3709 1.4198, 0.0422 -0.3709 1.4218, 0.032 -0.3709 1.4481, 0.0254 -0.3709 1.4465, 0.0268 -0.3709 1.4391, 0.0218 -0.3709 1.4446, 0.0258 -0.3709 1.4378, 0.0193 -0.3709 1.4423, 0.025 -0.3709 1.4362, 0.0176 -0.3709 1.4399, 0.0246 -0.3709 1.4343, 0.0164 -0.3709 1.4368, 0.0245 -0.3709 1.4329, 0.0159 -0.3709 1.4322, 0.0248 -0.3709 1.431, 0.0163 -0.3709 1.4284, 0.0253 -0.3709 1.4294, 0.0173 -0.3709 1.4255, 0.0191 -0.3709 1.4229, 0.0366 -0.3669 1.462, 0.0395 -0.3669 1.4617, 0.0415 -0.3669 1.461, 0.043 -0.3669 1.4601, 0.0443 -0.3669 1.4587, 0.0453 -0.3669 1.4569, 0.0461 -0.3669 1.4539, 0.0464 -0.3669 1.4501, 0.032 -0.3669 1.4481, 0.0254 -0.3669 1.4465, 0.0218 -0.3669 1.4446, 0.0193 -0.3669 1.4423, 0.0176 -0.3669 1.4399, 0.0164 -0.3669 1.4368, 0.0159 -0.3669 1.4322, 0.0163 -0.3669 1.4284, 0.0173 -0.3669 1.4255, 0.0191 -0.3669 1.4229, 0.0201 -0.3669 1.4219, 0.0313 -0.3669 1.4181, 0.0264 -0.3669 1.4186, 0.0262 -0.3669 1.4187, 0.0229 -0.3669 1.4199, 0.0357 -0.3669 1.4186, 0.036 -0.3669 1.4186, 0.0392 -0.3669 1.4198, 0.0422 -0.3669 1.4218, 0.0449 -0.3669 1.4247, 0.0462 -0.3669 1.4267, 0.0464 -0.3669 1.4267, 0.0464 -0.3669 1.4192, 0.055 -0.3669 1.4192, 0.055 -0.3669 1.4505, 0.0542 -0.3669 1.4572, 0.0529 -0.3669 1.461, 0.0511 -0.3669 1.4637, 0.0488 -0.3669 1.4659, 0.046 -0.3669 1.4675, 0.0423 -0.3669 1.4685, 0.0374 -0.3669 1.469, 0.0288 -0.3669 1.4679, 0.0225 -0.3669 1.4655, 0.0206 -0.3669 1.4644, 0.0206 -0.3669 1.4562, 0.0261 -0.3669 1.4596, 0.0314 -0.3669 1.4615, 0.0428 -0.3669 1.429, 0.0417 -0.3669 1.428, 0.0393 -0.3669 1.4264, 0.0367 -0.3669 1.4254, 0.0335 -0.3669 1.4251, 0.0464 -0.3669 1.439, 0.0464 -0.3669 1.4384, 0.0459 -0.3669 1.4346, 0.0446 -0.3669 1.4315, 0.0464 -0.3669 1.4436, 0.0351 -0.3669 1.4421, 0.0268 -0.3669 1.4391, 0.0279 -0.3669 1.44, 0.0299 -0.3669 1.4409, 0.0245 -0.3669 1.4329, 0.0246 -0.3669 1.4343, 0.025 -0.3669 1.4362, 0.0258 -0.3669 1.4378, 0.027 -0.3669 1.4273, 0.0263 -0.3669 1.428, 0.0253 -0.3669 1.4294, 0.0248 -0.3669 1.431, 0.0306 -0.3669 1.4254, 0.0287 -0.3669 1.4261
            ]
        }
        coordIndex [
            0,1,2,-1,0,2,3,-1,3,2,4,-1,3,4,5,-1,6,5,7,-1,7,5,4,-1,8,6,9,-1,9,6,7,-1,10,11,12,-1,12,11,8,-1,12,8,9,-1,13,11,14,-1,14,11,10,-1,15,16,17,-1,17,16,13,-1,17,13,14,-1,18,19,20,-1,20,19,16,-1,20,16,15,-1,19,18,21,-1,22,23,21,-1,21,23,24,-1,21,24,19,-1,22,25,23,-1,23,25,26,-1,23,26,27,-1,27,26,28,-1,27,28,29,-1,29,28,30,-1,29,30,31,-1,31,30,32,-1,31,32,33,-1,33,32,34,-1,33,34,35,-1,36,35,37,-1,37,35,34,-1,36,37,38,-1,36,38,39,-1,39,38,40,-1,39,40,41,-1,41,40,42,-1,41,42,43,-1,43,42,44,-1,43,44,45,-1,44,46,45,-1,45,46,47,-1,45,47,48,-1,48,47,49,-1,48,49,50,-1,50,49,51,-1,50,51,52,-1,52,51,53,-1,52,53,54,-1,55,56,57,-1,57,56,54,-1,57,54,53,-1,58,56,59,-1,59,56,55,-1,0,58,1,-1,1,58,59,-1,3,5,54,-1,56,58,54,-1,54,58,0,-1,54,0,3,-1,11,13,8,-1,8,13,16,-1,8,16,6,-1,52,24,50,-1,50,24,23,-1,35,36,33,-1,33,36,39,-1,33,39,31,-1,31,39,41,-1,31,41,29,-1,29,41,43,-1,29,43,27,-1,27,43,45,-1,27,45,23,-1,23,45,48,-1,23,48,50,-1,5,6,54,-1,54,6,16,-1,54,16,52,-1,52,16,19,-1,52,19,24,-1,60,61,62,-1,62,61,63,-1,61,64,63,-1,63,64,65,-1,63,65,66,-1,66,65,67,-1,66,67,68,-1,68,67,69,-1,68,69,70,-1,70,69,71,-1,70,71,72,-1,72,71,73,-1,72,73,74,-1,74,73,75,-1,74,75,76,-1,76,75,77,-1,76,77,78,-1,78,77,79,-1,78,79,80,-1,80,79,81,-1,80,81,82,-1,82,81,83,-1,82,83,84,-1,84,83,85,-1,84,85,86,-1,86,85,87,-1,86,87,88,-1,88,87,89,-1,88,89,90,-1,90,89,91,-1,90,91,92,-1,92,91,93,-1,92,93,94,-1,94,93,95,-1,94,95,96,-1,96,95,97,-1,96,97,98,-1,98,97,99,-1,98,99,100,-1,100,99,101,-1,100,101,102,-1,102,101,103,-1,102,103,104,-1,104,103,105,-1,104,105,106,-1,106,105,107,-1,106,107,108,-1,108,107,109,-1,108,109,110,-1,110,109,111,-1,110,111,112,-1,112,111,113,-1,112,113,114,-1,114,113,115,-1,114,115,116,-1,116,115,117,-1,116,117,118,-1,118,117,119,-1,118,119,120,-1,121,120,122,-1,122,120,119,-1,121,122,123,-1,121,123,124,-1,124,123,125,-1,124,125,126,-1,126,125,127,-1,126,127,128,-1,128,127,129,-1,128,129,130,-1,130,129,131,-1,130,131,132,-1,131,133,132,-1,132,133,134,-1,133,135,134,-1,134,135,136,-1,134,136,137,-1,137,136,138,-1,137,138,139,-1,139,138,140,-1,139,140,141,-1,141,140,142,-1,141,142,143,-1,143,142,144,-1,143,144,145,-1,145,144,146,-1,145,146,147,-1,148,149,150,-1,147,146,151,-1,147,151,152,-1,152,151,153,-1,152,153,150,-1,150,153,154,-1,150,154,148,-1,149,148,155,-1,149,155,156,-1,156,155,157,-1,156,157,158,-1,158,157,159,-1,158,159,160,-1,160,159,161,-1,160,161,162,-1,162,161,163,-1,162,163,164,-1,164,163,165,-1,164,165,166,-1,166,165,167,-1,166,167,168,-1,168,167,169,-1,168,169,170,-1,170,169,171,-1,170,171,172,-1,172,171,173,-1,172,173,174,-1,174,173,175,-1,174,175,176,-1,176,175,177,-1,176,177,178,-1,178,177,179,-1,178,179,180,-1,180,179,181,-1,180,181,182,-1,183,184,185,-1,182,181,186,-1,182,186,187,-1,187,186,188,-1,187,188,185,-1,185,188,189,-1,185,189,183,-1,190,184,191,-1,191,184,183,-1,191,192,190,-1,190,192,193,-1,60,62,194,-1,194,62,193,-1,194,193,195,-1,195,193,192,-1,106,108,130,-1,130,108,128,-1,156,88,149,-1,149,88,90,-1,66,68,172,-1,172,68,70,-1,172,70,170,-1,170,70,72,-1,170,72,168,-1,168,72,74,-1,168,74,166,-1,166,74,76,-1,166,76,164,-1,164,76,78,-1,164,78,162,-1,162,78,80,-1,162,80,160,-1,160,80,82,-1,160,82,158,-1,158,82,84,-1,158,84,156,-1,156,84,86,-1,156,86,88,-1,62,182,193,-1,193,182,187,-1,193,187,190,-1,190,187,185,-1,190,185,184,-1,108,110,128,-1,128,110,112,-1,128,112,126,-1,126,112,114,-1,126,114,124,-1,124,114,116,-1,124,116,121,-1,121,116,118,-1,121,118,120,-1,172,174,66,-1,66,174,176,-1,66,176,63,-1,63,176,178,-1,63,178,62,-1,62,178,180,-1,62,180,182,-1,130,132,106,-1,106,132,134,-1,106,134,104,-1,104,134,137,-1,104,137,102,-1,102,137,139,-1,102,139,100,-1,100,139,141,-1,100,141,98,-1,98,141,143,-1,98,143,96,-1,96,143,145,-1,96,145,94,-1,94,145,147,-1,94,147,92,-1,92,147,152,-1,92,152,90,-1,90,152,150,-1,90,150,149,-1,196,197,198,-1,198,197,199,-1,200,201,202,-1,203,204,205,-1,205,204,206,-1,207,208,199,-1,199,208,209,-1,209,210,199,-1,199,210,211,-1,199,211,198,-1,198,211,212,-1,198,212,203,-1,203,212,213,-1,203,213,204,-1,202,207,200,-1,200,207,199,-1,200,199,214,-1,214,199,215,-1,214,215,216,-1,216,215,217,-1,216,217,218,-1,218,217,219,-1,218,219,220,-1,220,219,221,-1,220,221,222,-1,222,221,223,-1,222,223,224,-1,224,223,225,-1,224,225,226,-1,226,225,227,-1,226,227,228,-1,228,227,229,-1,228,229,230,-1,230,229,231,-1,230,231,232,-1,232,231,233,-1,234,235,236,-1,236,235,237,-1,236,237,238,-1,238,237,239,-1,238,239,240,-1,240,239,241,-1,240,241,242,-1,242,241,243,-1,242,243,244,-1,244,243,245,-1,244,245,206,-1,206,245,246,-1,206,246,205,-1,200,247,201,-1,201,247,248,-1,201,248,249,-1,249,248,250,-1,249,250,251,-1,251,250,252,-1,251,252,253,-1,253,252,254,-1,253,254,255,-1,255,254,256,-1,255,256,257,-1,257,256,258,-1,257,258,259,-1,259,258,260,-1,259,260,261,-1,261,260,262,-1,261,262,234,-1,234,262,263,-1,234,263,235,-1,226,264,265,-1,226,265,224,-1,224,265,266,-1,224,266,222,-1,222,266,267,-1,222,267,220,-1,220,267,268,-1,220,268,218,-1,218,268,269,-1,218,269,216,-1,216,269,270,-1,216,270,214,-1,214,270,271,-1,214,271,200,-1,247,200,272,-1,272,200,271,-1,247,272,273,-1,247,273,248,-1,248,273,274,-1,248,274,250,-1,250,274,275,-1,250,275,252,-1,252,275,276,-1,252,276,254,-1,254,276,277,-1,254,277,256,-1,256,277,278,-1,256,278,258,-1,258,278,279,-1,258,279,260,-1,260,279,280,-1,260,280,262,-1,262,280,281,-1,262,281,263,-1,263,281,282,-1,263,282,235,-1,283,241,284,-1,284,241,239,-1,284,239,285,-1,285,239,237,-1,285,237,286,-1,286,237,235,-1,286,235,282,-1,241,283,287,-1,241,287,243,-1,243,287,288,-1,243,288,245,-1,288,289,245,-1,245,289,290,-1,245,290,246,-1,246,290,291,-1,246,291,205,-1,205,291,292,-1,205,292,203,-1,198,203,293,-1,293,203,292,-1,196,198,294,-1,294,198,293,-1,197,196,295,-1,295,196,294,-1,199,197,296,-1,296,197,295,-1,199,296,297,-1,199,297,215,-1,215,297,298,-1,215,298,217,-1,217,298,299,-1,217,299,219,-1,219,299,300,-1,219,300,221,-1,221,300,301,-1,221,301,223,-1,223,301,302,-1,223,302,225,-1,225,302,303,-1,225,303,227,-1,227,303,304,-1,227,304,229,-1,229,304,305,-1,229,305,231,-1,231,305,306,-1,231,306,233,-1,232,233,307,-1,307,233,306,-1,232,307,308,-1,232,308,230,-1,230,308,309,-1,230,309,228,-1,228,309,264,-1,228,264,226,-1,213,310,311,-1,213,311,204,-1,204,311,312,-1,204,312,206,-1,206,312,313,-1,206,313,244,-1,244,313,314,-1,244,314,242,-1,209,315,316,-1,209,316,210,-1,210,316,317,-1,210,317,211,-1,211,317,318,-1,211,318,212,-1,212,318,310,-1,212,310,213,-1,209,208,315,-1,315,208,319,-1,208,207,319,-1,319,207,320,-1,249,321,322,-1,249,322,201,-1,201,322,323,-1,201,323,202,-1,202,323,320,-1,202,320,207,-1,257,324,325,-1,257,325,255,-1,255,325,326,-1,255,326,253,-1,253,326,327,-1,253,327,251,-1,251,327,321,-1,251,321,249,-1,236,328,329,-1,236,329,234,-1,234,329,330,-1,234,330,261,-1,261,330,331,-1,261,331,259,-1,259,331,324,-1,259,324,257,-1,242,314,332,-1,242,332,240,-1,240,332,333,-1,240,333,238,-1,238,333,328,-1,238,328,236,-1,
        ]
    }
}
Shape{
    appearance Appearance {
        material  Material 	{
            diffuseColor 0.5882352941176471 0.5725490196078431 0.5254901960784314
            specularColor 0.043137254901960784 0.0392156862745098 0.0392156862745098
            ambientIntensity 0.8167
            transparency 0.0
            shininess 0.5
        }
    }
    geometry IndexedFaceSet {
        ccw TRUE
        solid FALSE
        coord DEF co Coordinate {
            point [
                0.0464 -0.3669 1.4384, 0.0464 -0.3669 1.439, 0.0268 -0.3669 1.4391, 0.0464 -0.3669 1.4436, 0.0351 -0.3669 1.4421, 0.0299 -0.3669 1.4409, 0.0279 -0.3669 1.44, 0.0459 -0.3669 1.4346, 0.0258 -0.3669 1.4378, 0.0446 -0.3669 1.4315, 0.0263 -0.3669 1.428, 0.027 -0.3669 1.4273, 0.0417 -0.3669 1.428, 0.0253 -0.3669 1.4294, 0.0393 -0.3669 1.4264, 0.0367 -0.3669 1.4254, 0.0335 -0.3669 1.4251, 0.025 -0.3669 1.4362, 0.0246 -0.3669 1.4343, 0.0428 -0.3669 1.429, 0.0245 -0.3669 1.4329, 0.0248 -0.3669 1.431, 0.0287 -0.3669 1.4261, 0.0306 -0.3669 1.4254
            ]
        }
        coordIndex [
            0,1,2,-1,1,3,4,-1,4,5,1,-1,1,5,6,-1,1,6,2,-1,0,2,7,-1,7,2,8,-1,7,8,9,-1,10,11,12,-1,10,12,13,-1,14,12,15,-1,15,12,16,-1,8,17,9,-1,9,17,18,-1,9,18,19,-1,19,18,20,-1,19,20,12,-1,12,20,21,-1,12,21,13,-1,11,22,12,-1,12,22,23,-1,12,23,16,-1,
        ]
    }
}
Shape{
    appearance Appearance {
        material  Material 	{
            diffuseColor 0.0 0.0 0.0
            specularColor 0.0 0.0 0.0
            ambientIntensity 0.0
            transparency 0.0
            shininess 0.5
        }
    }
    geometry IndexedFaceSet {
        ccw TRUE
        solid FALSE
        coord DEF co Coordinate {
            point [
                -0.3296 -0.3709 1.4096, -0.3224 -0.3709 1.4007, -0.334 -0.3709 1.4524, -0.3424 -0.3709 1.5365, -0.3316 -0.3709 1.5422, -0.3342 -0.3709 1.572, -0.304 -0.3709 1.5734, -0.289 -0.3709 1.5381, -0.2816 -0.3709 1.5534, -0.3445 -0.3709 1.4589, -0.3406 -0.3709 1.4218, -0.3345 -0.3709 1.42, -0.3151 -0.3709 1.5744, -0.2849 -0.3709 1.4534, -0.2804 -0.3709 1.4518, -0.2401 -0.3709 1.4403, -0.2765 -0.3709 1.4492, -0.2734 -0.3709 1.4457, -0.1723 -0.3709 1.4761, -0.1873 -0.3709 1.5018, -0.2522 -0.3709 1.4679, -0.289 -0.3709 1.4538, -0.2937 -0.3709 1.4532, -0.3 -0.3709 1.4829, -0.2979 -0.3709 1.4516, -0.3107 -0.3709 1.4788, -0.3017 -0.3709 1.4489, -0.3206 -0.3709 1.4719, -0.3036 -0.3709 1.4468, -0.3286 -0.3709 1.4628, -0.3061 -0.3709 1.4428, -0.3075 -0.3709 1.4383, -0.3078 -0.3709 1.4336, -0.2709 -0.3709 1.4811, -0.2826 -0.3709 1.484, -0.2885 -0.3709 1.4843, -0.2713 -0.3709 1.4417, -0.2702 -0.3709 1.4372, -0.2401 -0.3709 1.4354, -0.2702 -0.3709 1.4328, -0.2403 -0.3709 1.4304, -0.1563 -0.3709 1.524, -0.1524 -0.3709 1.524, -0.1326 -0.3709 1.5502, -0.1432 -0.3709 1.5229, -0.1302 -0.3709 1.5494, -0.1348 -0.3709 1.5196, -0.1158 -0.3709 1.5422, -0.1027 -0.3709 1.5311, -0.294 -0.3709 1.585, -0.2707 -0.3709 1.5664, -0.2827 -0.3709 1.5947, -0.2577 -0.3709 1.5758, -0.2706 -0.3709 1.6022, -0.3197 -0.3709 1.5451, -0.3146 -0.3709 1.5453, -0.3095 -0.3709 1.5741, -0.3032 -0.3709 1.5439, -0.2924 -0.3709 1.5399, -0.2606 -0.3709 1.4756, -0.1026 -0.3709 1.4408, -0.1251 -0.3709 1.46, -0.1157 -0.3709 1.4296, -0.1323 -0.3709 1.4542, -0.1305 -0.3709 1.4224, -0.1408 -0.3709 1.4502, -0.1466 -0.3709 1.419, -0.1495 -0.3709 1.4485, -0.1752 -0.3709 1.419, -0.1713 -0.3709 1.4485, -0.1779 -0.3709 1.4194, -0.3069 -0.3709 1.429, -0.305 -0.3709 1.425, -0.1273 -0.3709 1.5144, -0.1217 -0.3709 1.5082, -0.0928 -0.3709 1.5174, -0.1172 -0.3709 1.4999, -0.0869 -0.3709 1.5026, -0.1149 -0.3709 1.4906, -0.0847 -0.3709 1.4868, -0.1147 -0.3709 1.4863, -0.0869 -0.3709 1.4695, -0.1158 -0.3709 1.4768, -0.093 -0.3709 1.4542, -0.1192 -0.3709 1.4682, -0.1245 -0.3709 1.4607, -0.1587 -0.3709 1.5884, -0.1777 -0.3709 1.5662, -0.1426 -0.3709 1.5698, -0.1668 -0.3709 1.5532, -0.1593 -0.3709 1.5376, -0.3616 -0.3709 1.5087, -0.3934 -0.3709 1.5006, -0.363 -0.3709 1.4969, -0.3935 -0.3709 1.496, -0.3624 -0.3709 1.4894, -0.3912 -0.3709 1.477, -0.359 -0.3709 1.4776, -0.3842 -0.3709 1.459, -0.3532 -0.3709 1.4678, -0.3732 -0.3709 1.4432, -0.3581 -0.3709 1.4303, -0.2432 -0.3709 1.4184, -0.2714 -0.3709 1.4281, -0.2489 -0.3709 1.4076, -0.2736 -0.3709 1.424, -0.2563 -0.3709 1.3993, -0.2762 -0.3709 1.421, -0.2659 -0.3709 1.3926, -0.2799 -0.3709 1.4184, -0.2767 -0.3709 1.3885, -0.2841 -0.3709 1.4167, -0.2885 -0.3709 1.387, -0.289 -0.3709 1.4161, -0.2903 -0.3709 1.3871, -0.2898 -0.3709 1.4161, -0.3017 -0.3709 1.3888, -0.2941 -0.3709 1.4168, -0.3129 -0.3709 1.3935, -0.2985 -0.3709 1.4187, -0.3022 -0.3709 1.4215, -0.2482 -0.3709 1.6107, -0.2419 -0.3709 1.5823, -0.2246 -0.3709 1.6136, -0.2241 -0.3709 1.5846, -0.2035 -0.3709 1.6113, -0.2077 -0.3709 1.5825, -0.1793 -0.3709 1.6024, -0.1925 -0.3709 1.5767, -0.1789 -0.3709 1.5673, -0.3521 -0.3709 1.5651, -0.3675 -0.3709 1.5542, -0.3507 -0.3709 1.5291, -0.3708 -0.3709 1.5511, -0.3574 -0.3709 1.5195, -0.3824 -0.3709 1.5362, -0.3901 -0.3709 1.5188, -0.1737 -0.3709 1.449, -0.1854 -0.3709 1.4241, -0.1843 -0.3709 1.4229, -0.1723 -0.3709 1.4486, -0.1811 -0.3709 1.4207, -0.1892 -0.3709 1.434, -0.1888 -0.3709 1.4304, -0.1875 -0.3709 1.4271, -0.178 -0.3709 1.4485, -0.1813 -0.3709 1.4472, -0.1891 -0.3709 1.4359, -0.1843 -0.3709 1.4451, -0.1863 -0.3709 1.4429, -0.1881 -0.3709 1.4396, -0.1742 -0.3709 1.449, -0.0995 -0.3669 1.5267, -0.0928 -0.3669 1.5174, -0.0885 -0.3669 1.5067, -0.0869 -0.3669 1.5026, -0.0847 -0.3669 1.4868, -0.1027 -0.3669 1.5311, -0.1158 -0.3669 1.5422, -0.1302 -0.3669 1.5494, -0.1326 -0.3669 1.5502, -0.1426 -0.3669 1.5698, -0.1587 -0.3669 1.5884, -0.1697 -0.3669 1.5959, -0.1793 -0.3669 1.6024, -0.2035 -0.3669 1.6113, -0.2246 -0.3669 1.6136, -0.2827 -0.3669 1.5947, -0.2807 -0.3669 1.5959, -0.2706 -0.3669 1.6022, -0.2482 -0.3669 1.6107, -0.294 -0.3669 1.585, -0.304 -0.3669 1.5734, -0.3095 -0.3669 1.5741, -0.3151 -0.3669 1.5744, -0.3342 -0.3669 1.572, -0.3521 -0.3669 1.5651, -0.3675 -0.3669 1.5542, -0.3708 -0.3669 1.5511, -0.3824 -0.3669 1.5362, -0.3866 -0.3669 1.5267, -0.3901 -0.3669 1.5188, -0.3923 -0.3669 1.5067, -0.3934 -0.3669 1.5006, -0.3935 -0.3669 1.496, -0.3912 -0.3669 1.477, -0.3842 -0.3669 1.459, -0.3732 -0.3669 1.4432, -0.3581 -0.3669 1.4303, -0.3406 -0.3669 1.4218, -0.3345 -0.3669 1.42, -0.3339 -0.3669 1.4186, -0.3296 -0.3669 1.4096, -0.3224 -0.3669 1.4007, -0.3129 -0.3669 1.3935, -0.3085 -0.3669 1.3917, -0.3017 -0.3669 1.3888, -0.2903 -0.3669 1.3871, -0.2885 -0.3669 1.387, -0.2401 -0.3669 1.4354, -0.2767 -0.3669 1.3885, -0.2684 -0.3669 1.3917, -0.2659 -0.3669 1.3926, -0.2563 -0.3669 1.3993, -0.2489 -0.3669 1.4076, -0.2432 -0.3669 1.4184, -0.2431 -0.3669 1.4186, -0.2403 -0.3669 1.4304, -0.2401 -0.3669 1.4403, -0.1723 -0.3669 1.4761, -0.1873 -0.3669 1.5018, -0.2522 -0.3669 1.4679, -0.2606 -0.3669 1.4756, -0.2709 -0.3669 1.4811, -0.2826 -0.3669 1.484, -0.2885 -0.3669 1.4843, -0.3 -0.3669 1.4829, -0.3107 -0.3669 1.4788, -0.3206 -0.3669 1.4719, -0.3286 -0.3669 1.4628, -0.334 -0.3669 1.4524, -0.3445 -0.3669 1.4589, -0.3532 -0.3669 1.4678, -0.359 -0.3669 1.4776, -0.3624 -0.3669 1.4894, -0.363 -0.3669 1.4969, -0.3618 -0.3669 1.5067, -0.3616 -0.3669 1.5087, -0.3574 -0.3669 1.5195, -0.3524 -0.3669 1.5267, -0.3507 -0.3669 1.5291, -0.3424 -0.3669 1.5365, -0.3316 -0.3669 1.5422, -0.3197 -0.3669 1.5451, -0.3146 -0.3669 1.5453, -0.3032 -0.3669 1.5439, -0.2924 -0.3669 1.5399, -0.289 -0.3669 1.5381, -0.2816 -0.3669 1.5534, -0.2707 -0.3669 1.5664, -0.2577 -0.3669 1.5758, -0.2419 -0.3669 1.5823, -0.2241 -0.3669 1.5846, -0.2077 -0.3669 1.5825, -0.1925 -0.3669 1.5767, -0.1789 -0.3669 1.5673, -0.1777 -0.3669 1.5662, -0.1668 -0.3669 1.5532, -0.1593 -0.3669 1.5376, -0.1569 -0.3669 1.5267, -0.1563 -0.3669 1.524, -0.1524 -0.3669 1.524, -0.1432 -0.3669 1.5229, -0.1348 -0.3669 1.5196, -0.1273 -0.3669 1.5144, -0.1217 -0.3669 1.5082, -0.1209 -0.3669 1.5067, -0.1172 -0.3669 1.4999, -0.1149 -0.3669 1.4906, -0.1147 -0.3669 1.4863, -0.1158 -0.3669 1.4768, -0.1192 -0.3669 1.4682, -0.1245 -0.3669 1.4607, -0.1251 -0.3669 1.46, -0.1323 -0.3669 1.4542, -0.1408 -0.3669 1.4502, -0.1495 -0.3669 1.4485, -0.1713 -0.3669 1.4485, -0.1723 -0.3669 1.4486, -0.1737 -0.3669 1.449, -0.1742 -0.3669 1.449, -0.178 -0.3669 1.4485, -0.1813 -0.3669 1.4472, -0.1843 -0.3669 1.4451, -0.1863 -0.3669 1.4429, -0.1881 -0.3669 1.4396, -0.1891 -0.3669 1.4359, -0.1892 -0.3669 1.434, -0.1888 -0.3669 1.4304, -0.1875 -0.3669 1.4271, -0.1854 -0.3669 1.4241, -0.1843 -0.3669 1.4229, -0.1811 -0.3669 1.4207, -0.1779 -0.3669 1.4194, -0.1752 -0.3669 1.419, -0.1466 -0.3669 1.419, -0.1305 -0.3669 1.4224, -0.1157 -0.3669 1.4296, -0.1026 -0.3669 1.4408, -0.093 -0.3669 1.4542, -0.0869 -0.3669 1.4695, -0.289 -0.3669 1.4538, -0.2849 -0.3669 1.4534, -0.2804 -0.3669 1.4518, -0.2765 -0.3669 1.4492, -0.2734 -0.3669 1.4457, -0.2713 -0.3669 1.4417, -0.2702 -0.3669 1.4372, -0.2702 -0.3669 1.4328, -0.2714 -0.3669 1.4281, -0.2736 -0.3669 1.424, -0.2762 -0.3669 1.421, -0.2799 -0.3669 1.4184, -0.2841 -0.3669 1.4167, -0.289 -0.3669 1.4161, -0.2898 -0.3669 1.4161, -0.2941 -0.3669 1.4168, -0.2985 -0.3669 1.4187, -0.3022 -0.3669 1.4215, -0.305 -0.3669 1.425, -0.3069 -0.3669 1.429, -0.3078 -0.3669 1.4336, -0.3075 -0.3669 1.4383, -0.3061 -0.3669 1.4428, -0.3036 -0.3669 1.4468, -0.3017 -0.3669 1.4489, -0.2979 -0.3669 1.4516, -0.2937 -0.3669 1.4532
            ]
        }
        coordIndex [
            0,1,2,-1,3,4,5,-1,6,7,8,-1,9,10,2,-1,2,10,11,-1,2,11,0,-1,5,4,12,-1,13,14,15,-1,15,14,16,-1,15,16,17,-1,18,19,15,-1,15,19,20,-1,15,20,13,-1,13,20,21,-1,22,23,24,-1,24,23,25,-1,24,25,26,-1,26,25,27,-1,26,27,28,-1,28,27,29,-1,28,29,30,-1,30,29,2,-1,30,2,31,-1,31,2,32,-1,33,34,22,-1,22,34,35,-1,22,35,23,-1,17,36,15,-1,15,36,37,-1,15,37,38,-1,38,37,39,-1,38,39,40,-1,41,42,43,-1,43,42,44,-1,43,44,45,-1,45,44,46,-1,45,46,47,-1,47,46,48,-1,6,8,49,-1,49,8,50,-1,49,50,51,-1,51,50,52,-1,51,52,53,-1,4,54,12,-1,12,54,55,-1,12,55,56,-1,56,55,57,-1,56,57,6,-1,6,57,58,-1,6,58,7,-1,21,20,22,-1,22,20,59,-1,22,59,33,-1,60,61,62,-1,62,61,63,-1,62,63,64,-1,64,63,65,-1,64,65,66,-1,66,65,67,-1,66,67,68,-1,68,67,69,-1,68,69,70,-1,32,2,71,-1,71,2,1,-1,71,1,72,-1,46,73,48,-1,48,73,74,-1,48,74,75,-1,75,74,76,-1,75,76,77,-1,77,76,78,-1,77,78,79,-1,79,78,80,-1,79,80,81,-1,81,80,82,-1,81,82,83,-1,83,82,84,-1,83,84,60,-1,60,84,85,-1,60,85,61,-1,86,87,88,-1,88,87,89,-1,88,89,43,-1,43,89,90,-1,43,90,41,-1,91,92,93,-1,93,92,94,-1,93,94,95,-1,95,94,96,-1,95,96,97,-1,97,96,98,-1,97,98,99,-1,99,98,100,-1,99,100,9,-1,9,100,101,-1,9,101,10,-1,40,39,102,-1,102,39,103,-1,102,103,104,-1,104,103,105,-1,104,105,106,-1,106,105,107,-1,106,107,108,-1,108,107,109,-1,108,109,110,-1,110,109,111,-1,110,111,112,-1,112,111,113,-1,112,113,114,-1,114,113,115,-1,114,115,116,-1,116,115,117,-1,116,117,118,-1,118,117,119,-1,118,119,1,-1,1,119,120,-1,1,120,72,-1,53,52,121,-1,121,52,122,-1,121,122,123,-1,123,122,124,-1,123,124,125,-1,125,124,126,-1,125,126,127,-1,127,126,128,-1,127,128,86,-1,86,128,129,-1,86,129,87,-1,5,130,3,-1,3,130,131,-1,3,131,132,-1,132,131,133,-1,132,133,134,-1,134,133,135,-1,134,135,91,-1,91,135,136,-1,91,136,92,-1,137,138,139,-1,69,140,70,-1,70,140,137,-1,70,137,141,-1,141,137,139,-1,142,143,137,-1,137,143,144,-1,137,144,138,-1,145,146,147,-1,146,148,147,-1,147,148,149,-1,147,149,150,-1,142,137,147,-1,147,137,151,-1,147,151,145,-1,152,48,153,-1,153,48,75,-1,153,75,154,-1,154,75,77,-1,154,77,155,-1,155,77,79,-1,155,79,156,-1,152,157,48,-1,48,157,158,-1,48,158,47,-1,47,158,159,-1,47,159,45,-1,45,159,160,-1,45,160,43,-1,43,160,161,-1,43,161,88,-1,88,161,162,-1,88,162,86,-1,86,162,127,-1,127,162,163,-1,163,164,127,-1,127,164,165,-1,127,165,125,-1,125,165,166,-1,125,166,123,-1,167,51,168,-1,168,51,53,-1,168,53,169,-1,169,53,121,-1,169,121,170,-1,170,121,123,-1,170,123,166,-1,51,167,171,-1,51,171,49,-1,49,171,172,-1,49,172,6,-1,6,172,173,-1,6,173,56,-1,56,173,174,-1,56,174,12,-1,12,174,175,-1,12,175,5,-1,5,175,176,-1,5,176,130,-1,130,176,177,-1,130,177,131,-1,131,177,178,-1,131,178,133,-1,136,135,179,-1,179,135,133,-1,179,133,178,-1,179,180,136,-1,136,180,181,-1,136,181,92,-1,92,181,182,-1,182,183,92,-1,92,183,184,-1,92,184,94,-1,94,184,185,-1,94,185,96,-1,96,185,186,-1,96,186,98,-1,98,186,187,-1,98,187,100,-1,100,187,188,-1,100,188,101,-1,101,188,189,-1,101,189,10,-1,10,189,190,-1,10,190,11,-1,11,190,191,-1,11,191,0,-1,191,192,0,-1,0,192,193,-1,0,193,1,-1,1,193,194,-1,1,194,118,-1,118,194,195,-1,118,195,116,-1,195,196,116,-1,116,196,197,-1,116,197,114,-1,114,197,198,-1,114,198,112,-1,199,38,40,-1,112,198,200,-1,201,108,200,-1,200,108,110,-1,200,110,112,-1,201,202,108,-1,108,202,203,-1,108,203,106,-1,106,203,204,-1,106,204,104,-1,104,204,205,-1,104,205,102,-1,102,205,206,-1,102,206,40,-1,40,206,207,-1,40,207,199,-1,15,38,208,-1,208,38,199,-1,18,15,209,-1,209,15,208,-1,19,18,210,-1,210,18,209,-1,20,19,211,-1,211,19,210,-1,20,211,212,-1,20,212,59,-1,59,212,213,-1,59,213,33,-1,33,213,214,-1,33,214,34,-1,34,214,215,-1,34,215,35,-1,35,215,216,-1,35,216,23,-1,23,216,217,-1,23,217,25,-1,25,217,218,-1,25,218,27,-1,27,218,219,-1,27,219,29,-1,29,219,220,-1,29,220,2,-1,2,220,221,-1,2,221,9,-1,9,221,222,-1,9,222,99,-1,99,222,223,-1,99,223,97,-1,97,223,224,-1,97,224,95,-1,95,224,225,-1,95,225,93,-1,93,225,226,-1,93,226,91,-1,91,226,227,-1,91,227,228,-1,229,132,228,-1,228,132,134,-1,228,134,91,-1,229,230,132,-1,132,230,231,-1,132,231,3,-1,3,231,232,-1,3,232,4,-1,4,232,233,-1,4,233,54,-1,54,233,234,-1,54,234,55,-1,55,234,235,-1,55,235,57,-1,57,235,236,-1,57,236,58,-1,58,236,237,-1,58,237,7,-1,7,237,238,-1,7,238,8,-1,8,238,239,-1,8,239,50,-1,50,239,240,-1,50,240,52,-1,52,240,241,-1,52,241,122,-1,122,241,242,-1,122,242,124,-1,124,242,243,-1,124,243,126,-1,126,243,244,-1,126,244,128,-1,128,244,245,-1,128,245,129,-1,129,245,246,-1,129,246,87,-1,87,246,247,-1,87,247,89,-1,89,247,248,-1,89,248,90,-1,90,248,41,-1,41,248,249,-1,41,249,250,-1,42,41,251,-1,251,41,250,-1,42,251,252,-1,42,252,44,-1,44,252,253,-1,44,253,46,-1,46,253,254,-1,46,254,73,-1,73,254,255,-1,73,255,74,-1,74,255,256,-1,74,256,76,-1,256,257,76,-1,76,257,258,-1,76,258,78,-1,78,258,259,-1,78,259,80,-1,80,259,260,-1,80,260,82,-1,82,260,261,-1,82,261,84,-1,84,261,262,-1,84,262,85,-1,85,262,263,-1,85,263,61,-1,61,263,264,-1,61,264,63,-1,63,264,265,-1,63,265,65,-1,65,265,266,-1,65,266,67,-1,69,67,267,-1,267,67,266,-1,69,267,268,-1,69,268,140,-1,140,268,269,-1,140,269,137,-1,137,269,270,-1,137,270,151,-1,151,270,271,-1,151,271,145,-1,145,271,272,-1,145,272,146,-1,146,272,273,-1,146,273,148,-1,148,273,274,-1,148,274,149,-1,149,274,275,-1,149,275,150,-1,150,275,276,-1,150,276,147,-1,147,276,277,-1,147,277,142,-1,142,277,278,-1,142,278,143,-1,143,278,279,-1,143,279,144,-1,144,279,280,-1,144,280,138,-1,138,280,281,-1,138,281,139,-1,139,281,282,-1,139,282,141,-1,141,282,283,-1,141,283,70,-1,70,283,284,-1,70,284,68,-1,66,68,285,-1,285,68,284,-1,66,285,286,-1,66,286,64,-1,64,286,287,-1,64,287,62,-1,62,287,288,-1,62,288,60,-1,60,288,289,-1,60,289,83,-1,83,289,290,-1,83,290,81,-1,81,290,156,-1,81,156,79,-1,21,291,292,-1,21,292,13,-1,13,292,293,-1,13,293,14,-1,14,293,294,-1,14,294,16,-1,16,294,295,-1,16,295,17,-1,17,295,296,-1,17,296,36,-1,36,296,297,-1,36,297,37,-1,37,297,298,-1,37,298,39,-1,39,298,299,-1,39,299,103,-1,103,299,300,-1,103,300,105,-1,105,300,301,-1,105,301,107,-1,107,301,302,-1,107,302,109,-1,109,302,303,-1,109,303,111,-1,111,303,304,-1,111,304,113,-1,113,304,305,-1,113,305,115,-1,115,305,306,-1,115,306,117,-1,117,306,307,-1,117,307,119,-1,119,307,308,-1,119,308,120,-1,120,308,309,-1,120,309,72,-1,72,309,310,-1,72,310,71,-1,71,310,311,-1,71,311,32,-1,32,311,312,-1,32,312,31,-1,31,312,313,-1,31,313,30,-1,30,313,314,-1,30,314,28,-1,28,314,315,-1,28,315,26,-1,26,315,316,-1,26,316,24,-1,24,316,317,-1,24,317,22,-1,22,317,291,-1,22,291,21,-1,
        ]
    }
}
Shape{
    appearance Appearance {
        material  Material 	{
            diffuseColor 0.5882352941176471 0.5725490196078431 0.5254901960784314
            specularColor 0.043137254901960784 0.0392156862745098 0.0392156862745098
            ambientIntensity 0.8167
            transparency 0.0
            shininess 0.5
        }
    }
    geometry IndexedFaceSet {
        ccw TRUE
        solid FALSE
        coord DEF co Coordinate {
            point [
                -0.2898 -0.3669 1.4161, -0.3017 -0.3669 1.4489, -0.3036 -0.3669 1.4468, -0.2841 -0.3669 1.4167, -0.2799 -0.3669 1.4184, -0.2849 -0.3669 1.4534, -0.289 -0.3669 1.4538, -0.2937 -0.3669 1.4532, -0.2979 -0.3669 1.4516, -0.3069 -0.3669 1.429, -0.305 -0.3669 1.425, -0.3022 -0.3669 1.4215, -0.289 -0.3669 1.4161, -0.3061 -0.3669 1.4428, -0.3075 -0.3669 1.4383, -0.3078 -0.3669 1.4336, -0.2985 -0.3669 1.4187, -0.2941 -0.3669 1.4168, -0.2762 -0.3669 1.421, -0.2736 -0.3669 1.424, -0.2714 -0.3669 1.4281, -0.2702 -0.3669 1.4328, -0.2702 -0.3669 1.4372, -0.2713 -0.3669 1.4417, -0.2734 -0.3669 1.4457, -0.2765 -0.3669 1.4492, -0.2804 -0.3669 1.4518
            ]
        }
        coordIndex [
            0,1,2,-1,3,4,5,-1,6,7,0,-1,0,7,8,-1,0,8,1,-1,9,10,2,-1,2,10,11,-1,6,0,5,-1,5,0,12,-1,5,12,3,-1,13,14,2,-1,2,14,15,-1,2,15,9,-1,11,16,2,-1,2,16,17,-1,2,17,0,-1,4,18,5,-1,5,18,19,-1,5,19,20,-1,20,21,5,-1,5,21,22,-1,5,22,23,-1,23,24,5,-1,5,24,25,-1,5,25,26,-1,
        ]
    }
}
Shape{
    appearance Appearance {
        material  Material 	{
            diffuseColor 0.0 0.0 0.0
            specularColor 0.0 0.0 0.0
            ambientIntensity 0.0
            transparency 0.0
            shininess 0.5
        }
    }
    geometry IndexedFaceSet {
        ccw TRUE
        solid FALSE
        coord DEF co Coordinate {
            point [
                0.1663 -0.3709 1.5464, 0.1628 -0.3709 1.5421, 0.1691 -0.3709 1.5368, 0.162 -0.3709 1.5413, 0.1619 -0.3709 1.5316, 0.1576 -0.3709 1.5383, 0.1541 -0.3709 1.5286, 0.1519 -0.3709 1.5361, 0.1426 -0.3709 1.5272, 0.1426 -0.3709 1.535, 0.1239 -0.3709 1.5272, 0.1327 -0.3709 1.535, 0.1239 -0.3709 1.5953, 0.1327 -0.3709 1.5875, 0.1433 -0.3709 1.5953, 0.143 -0.3709 1.5875, 0.1537 -0.3709 1.5942, 0.1519 -0.3709 1.5865, 0.1619 -0.3709 1.5912, 0.1578 -0.3709 1.5843, 0.1691 -0.3709 1.5863, 0.1626 -0.3709 1.5811, 0.1715 -0.3709 1.5839, 0.1651 -0.3709 1.5785, 0.1757 -0.3709 1.578, 0.1676 -0.3709 1.5745, 0.1782 -0.3709 1.5715, 0.1694 -0.3709 1.5692, 0.1793 -0.3709 1.5622, 0.1701 -0.3709 1.5619, 0.179 -0.3709 1.5566, 0.1699 -0.3709 1.5578, 0.1771 -0.3709 1.5488, 0.1686 -0.3709 1.5515, 0.1735 -0.3709 1.5419, 0.1691 -0.3669 1.5368, 0.1735 -0.3669 1.5419, 0.1771 -0.3669 1.5488, 0.179 -0.3669 1.5566, 0.1793 -0.3669 1.5622, 0.1782 -0.3669 1.5715, 0.1757 -0.3669 1.578, 0.1715 -0.3669 1.5839, 0.1691 -0.3669 1.5863, 0.1619 -0.3669 1.5912, 0.1537 -0.3669 1.5942, 0.1433 -0.3669 1.5953, 0.1239 -0.3669 1.5953, 0.1239 -0.3669 1.5272, 0.1426 -0.3669 1.5272, 0.1541 -0.3669 1.5286, 0.1619 -0.3669 1.5316, 0.1626 -0.3669 1.5811, 0.1651 -0.3669 1.5785, 0.1676 -0.3669 1.5745, 0.1694 -0.3669 1.5692, 0.1701 -0.3669 1.5619, 0.143 -0.3669 1.5875, 0.1519 -0.3669 1.5865, 0.1578 -0.3669 1.5843, 0.1327 -0.3669 1.5875, 0.1327 -0.3669 1.535, 0.1426 -0.3669 1.535, 0.1628 -0.3669 1.5421, 0.162 -0.3669 1.5413, 0.1576 -0.3669 1.5383, 0.1519 -0.3669 1.5361, 0.1699 -0.3669 1.5578, 0.1686 -0.3669 1.5515, 0.1663 -0.3669 1.5464
            ]
        }
        coordIndex [
            0,1,2,-1,2,1,3,-1,2,3,4,-1,4,3,5,-1,4,5,6,-1,6,5,7,-1,6,7,8,-1,8,7,9,-1,8,9,10,-1,10,9,11,-1,10,11,12,-1,12,11,13,-1,12,13,14,-1,14,13,15,-1,14,15,16,-1,16,15,17,-1,16,17,18,-1,18,17,19,-1,18,19,20,-1,20,19,21,-1,20,21,22,-1,22,21,23,-1,22,23,24,-1,24,23,25,-1,24,25,26,-1,26,25,27,-1,26,27,28,-1,28,27,29,-1,28,29,30,-1,30,29,31,-1,30,31,32,-1,32,31,33,-1,32,33,34,-1,34,33,0,-1,34,0,2,-1,2,35,36,-1,2,36,34,-1,34,36,37,-1,34,37,32,-1,32,37,38,-1,32,38,30,-1,30,38,39,-1,30,39,28,-1,28,39,40,-1,28,40,26,-1,26,40,41,-1,26,41,24,-1,24,41,42,-1,24,42,22,-1,22,42,43,-1,22,43,20,-1,20,43,44,-1,20,44,18,-1,18,44,45,-1,18,45,16,-1,16,45,46,-1,16,46,14,-1,12,14,47,-1,47,14,46,-1,10,12,48,-1,48,12,47,-1,8,10,49,-1,49,10,48,-1,8,49,50,-1,8,50,6,-1,6,50,51,-1,6,51,4,-1,4,51,35,-1,4,35,2,-1,21,52,53,-1,21,53,23,-1,23,53,54,-1,23,54,25,-1,25,54,55,-1,25,55,27,-1,27,55,56,-1,27,56,29,-1,15,57,58,-1,15,58,17,-1,17,58,59,-1,17,59,19,-1,19,59,52,-1,19,52,21,-1,15,13,57,-1,57,13,60,-1,13,11,60,-1,60,11,61,-1,11,9,61,-1,61,9,62,-1,1,63,64,-1,1,64,3,-1,3,64,65,-1,3,65,5,-1,5,65,66,-1,5,66,7,-1,7,66,62,-1,7,62,9,-1,29,56,67,-1,29,67,31,-1,31,67,68,-1,31,68,33,-1,33,68,69,-1,33,69,0,-1,0,69,63,-1,0,63,1,-1,
        ]
    }
}
Shape{
    appearance Appearance {
        material  Material 	{
            diffuseColor 0.5882352941176471 0.5725490196078431 0.5254901960784314
            specularColor 0.043137254901960784 0.0392156862745098 0.0392156862745098
            ambientIntensity 0.8167
            transparency 0.0
            shininess 0.5
        }
    }
    geometry IndexedFaceSet {
        ccw TRUE
        solid FALSE
        coord DEF co Coordinate {
            point [
                0.1327 -0.3669 1.5875, 0.1327 -0.3669 1.535, 0.143 -0.3669 1.5875, 0.1426 -0.3669 1.535, 0.162 -0.3669 1.5413, 0.1628 -0.3669 1.5421, 0.1519 -0.3669 1.5361, 0.1576 -0.3669 1.5383, 0.1699 -0.3669 1.5578, 0.1701 -0.3669 1.5619, 0.1663 -0.3669 1.5464, 0.1686 -0.3669 1.5515, 0.1694 -0.3669 1.5692, 0.1676 -0.3669 1.5745, 0.1651 -0.3669 1.5785, 0.1626 -0.3669 1.5811, 0.1578 -0.3669 1.5843, 0.1519 -0.3669 1.5865
            ]
        }
        coordIndex [
            0,1,2,-1,2,1,3,-1,2,4,5,-1,3,6,2,-1,2,6,7,-1,2,7,4,-1,8,9,2,-1,5,10,2,-1,2,10,11,-1,2,11,8,-1,9,12,2,-1,2,12,13,-1,2,13,14,-1,14,15,2,-1,2,15,16,-1,2,16,17,-1,
        ]
    }
}
Shape{
    appearance Appearance {
        material  Material 	{
            diffuseColor 0.0 0.0 0.0
            specularColor 0.0 0.0 0.0
            ambientIntensity 0.0
            transparency 0.0
            shininess 0.5
        }
    }
    geometry IndexedFaceSet {
        ccw TRUE
        solid FALSE
        coord DEF co Coordinate {
            point [
                0.0432 -0.3709 1.5339, 0.0432 -0.3669 1.5339, 0.0368 -0.3669 1.5346, 0.0368 -0.3709 1.5346, 0.0319 -0.3669 1.5364, 0.0319 -0.3709 1.5364, 0.0273 -0.3669 1.5395, 0.0273 -0.3709 1.5395, 0.0257 -0.3669 1.5411, 0.0257 -0.3709 1.5411, 0.0224 -0.3669 1.5457, 0.0224 -0.3709 1.5457, 0.0202 -0.3669 1.5512, 0.0202 -0.3709 1.5512, 0.0191 -0.3669 1.558, 0.0191 -0.3709 1.558, 0.019 -0.3669 1.5605, 0.019 -0.3709 1.5605, 0.0201 -0.3669 1.5698, 0.0201 -0.3709 1.5698, 0.0224 -0.3669 1.5757, 0.0224 -0.3709 1.5757, 0.0257 -0.3669 1.5804, 0.0257 -0.3709 1.5804, 0.0262 -0.3669 1.581, 0.0262 -0.3709 1.581, 0.0307 -0.3669 1.5848, 0.0307 -0.3709 1.5848, 0.0361 -0.3669 1.5873, 0.0361 -0.3709 1.5873, 0.042 -0.3669 1.5884, 0.042 -0.3709 1.5884, 0.0447 -0.3669 1.5885, 0.0447 -0.3709 1.5885, 0.0531 -0.3669 1.5875, 0.0579 -0.3669 1.5857, 0.06 -0.3709 1.5849, 0.0531 -0.3709 1.5875, 0.06 -0.3669 1.5849, 0.0608 -0.3669 1.5845, 0.0608 -0.3709 1.5845, 0.0608 -0.3709 1.5937, 0.0608 -0.3669 1.5937, 0.0446 -0.3669 1.5965, 0.0446 -0.3709 1.5965, 0.046 -0.3709 1.5965, 0.0579 -0.3669 1.5946, 0.0547 -0.3709 1.5956, 0.0547 -0.3669 1.5956, 0.0514 -0.3669 1.5959, 0.046 -0.3669 1.5965, 0.0399 -0.3669 1.5959, 0.0349 -0.3709 1.5953, 0.0349 -0.3669 1.5953, 0.0277 -0.3669 1.5925, 0.0277 -0.3709 1.5925, 0.0211 -0.3669 1.5879, 0.0211 -0.3709 1.5879, 0.0196 -0.3669 1.5865, 0.0196 -0.3709 1.5865, 0.0153 -0.3669 1.581, 0.0128 -0.3669 1.5758, 0.0118 -0.3709 1.5737, 0.0153 -0.3709 1.581, 0.0118 -0.3669 1.5737, 0.01 -0.3669 1.565, 0.01 -0.3709 1.565, 0.0098 -0.3669 1.56, 0.0098 -0.3709 1.56, 0.0111 -0.3669 1.549, 0.0128 -0.3669 1.5445, 0.0139 -0.3709 1.5419, 0.0111 -0.3709 1.549, 0.0139 -0.3669 1.5419, 0.0179 -0.3669 1.5361, 0.0179 -0.3709 1.5361, 0.0185 -0.3669 1.5354, 0.0185 -0.3709 1.5354, 0.0419 -0.3669 1.5261, 0.0419 -0.3709 1.5261, 0.037 -0.3709 1.5264, 0.0235 -0.3669 1.5312, 0.0235 -0.3709 1.5312, 0.0298 -0.3669 1.528, 0.0298 -0.3709 1.528, 0.0357 -0.3669 1.5267, 0.037 -0.3669 1.5264, 0.0608 -0.3669 1.5301, 0.0608 -0.3709 1.5301, 0.0596 -0.3709 1.5295, 0.0523 -0.3709 1.5271, 0.0479 -0.3669 1.5267, 0.0523 -0.3669 1.5271, 0.0579 -0.3669 1.5289, 0.0596 -0.3669 1.5295, 0.0608 -0.3709 1.5385, 0.0608 -0.3669 1.5385, 0.0579 -0.3669 1.5371, 0.0549 -0.3709 1.5357, 0.0549 -0.3669 1.5357, 0.0474 -0.3669 1.5341, 0.0474 -0.3709 1.5341, 0.2874 -0.3709 1.4455, 0.2846 -0.3709 1.4378, 0.3103 -0.3709 1.4455, 0.313 -0.3709 1.4378, 0.2976 -0.3709 1.4738, 0.2943 -0.3709 1.4873, 0.2684 -0.3709 1.4192, 0.2781 -0.3709 1.4192, 0.2982 -0.3709 1.4759, 0.2987 -0.3709 1.4786, 0.3037 -0.3709 1.4873, 0.2989 -0.3709 1.4786, 0.2995 -0.3709 1.4757, 0.3 -0.3709 1.4738, 0.3296 -0.3709 1.4192, 0.3199 -0.3709 1.4192, 0.2943 -0.3669 1.4873, 0.3037 -0.3669 1.4873, 0.2684 -0.3669 1.4192, 0.2781 -0.3669 1.4192, 0.2846 -0.3669 1.4378, 0.313 -0.3669 1.4378, 0.3199 -0.3669 1.4192, 0.3296 -0.3669 1.4192, 0.2976 -0.3669 1.4738, 0.2982 -0.3669 1.4759, 0.2987 -0.3669 1.4786, 0.2874 -0.3669 1.4455, 0.3103 -0.3669 1.4455, 0.3 -0.3669 1.4738, 0.2989 -0.3669 1.4786, 0.2995 -0.3669 1.4757
            ]
        }
        coordIndex [
            0,1,2,-1,0,2,3,-1,3,2,4,-1,3,4,5,-1,5,4,6,-1,5,6,7,-1,7,6,8,-1,7,8,9,-1,9,8,10,-1,9,10,11,-1,11,10,12,-1,11,12,13,-1,13,12,14,-1,13,14,15,-1,15,14,16,-1,15,16,17,-1,17,16,18,-1,17,18,19,-1,19,18,20,-1,19,20,21,-1,21,20,22,-1,21,22,23,-1,23,22,24,-1,23,24,25,-1,25,24,26,-1,25,26,27,-1,27,26,28,-1,27,28,29,-1,29,28,30,-1,29,30,31,-1,31,30,32,-1,31,32,33,-1,33,32,34,-1,35,36,34,-1,34,36,37,-1,34,37,33,-1,35,38,36,-1,36,38,39,-1,36,39,40,-1,41,40,42,-1,42,40,39,-1,43,44,45,-1,41,42,46,-1,41,46,47,-1,46,48,47,-1,47,48,49,-1,47,49,45,-1,45,49,50,-1,45,50,43,-1,44,43,51,-1,44,51,52,-1,51,53,52,-1,52,53,54,-1,52,54,55,-1,55,54,56,-1,55,56,57,-1,57,56,58,-1,57,58,59,-1,59,58,60,-1,61,62,60,-1,60,62,63,-1,60,63,59,-1,61,64,62,-1,62,64,65,-1,62,65,66,-1,66,65,67,-1,66,67,68,-1,68,67,69,-1,70,71,69,-1,69,71,72,-1,69,72,68,-1,70,73,71,-1,71,73,74,-1,71,74,75,-1,75,74,76,-1,75,76,77,-1,78,79,80,-1,77,76,81,-1,77,81,82,-1,82,81,83,-1,82,83,84,-1,84,83,85,-1,84,85,80,-1,80,85,86,-1,80,86,78,-1,87,88,89,-1,79,78,90,-1,90,78,91,-1,91,92,90,-1,90,92,93,-1,90,93,89,-1,89,93,94,-1,89,94,87,-1,95,88,96,-1,96,88,87,-1,95,96,97,-1,95,97,98,-1,97,99,98,-1,98,99,100,-1,98,100,101,-1,101,100,1,-1,101,1,0,-1,36,40,41,-1,19,21,63,-1,36,41,37,-1,63,21,59,-1,44,33,45,-1,45,33,37,-1,45,37,47,-1,47,37,41,-1,21,23,59,-1,59,23,25,-1,59,25,57,-1,57,25,27,-1,57,27,55,-1,55,27,52,-1,52,27,29,-1,52,29,44,-1,44,29,31,-1,44,31,33,-1,68,17,66,-1,66,17,19,-1,66,19,62,-1,62,19,63,-1,88,95,89,-1,89,95,98,-1,89,98,90,-1,90,98,101,-1,90,101,79,-1,79,101,0,-1,79,0,80,-1,80,0,3,-1,80,3,84,-1,84,3,5,-1,84,5,82,-1,82,5,7,-1,82,7,77,-1,77,7,9,-1,77,9,75,-1,75,9,11,-1,75,11,71,-1,71,11,72,-1,72,11,13,-1,72,13,68,-1,68,13,15,-1,68,15,17,-1,102,103,104,-1,104,103,105,-1,106,107,102,-1,102,107,108,-1,102,108,103,-1,103,108,109,-1,106,110,107,-1,107,110,111,-1,107,111,112,-1,112,111,113,-1,112,113,114,-1,114,115,112,-1,112,115,104,-1,112,104,116,-1,116,104,105,-1,116,105,117,-1,107,112,118,-1,118,112,119,-1,108,107,120,-1,120,107,118,-1,109,108,121,-1,121,108,120,-1,103,109,122,-1,122,109,121,-1,105,103,123,-1,123,103,122,-1,117,105,124,-1,124,105,123,-1,116,117,125,-1,125,117,124,-1,112,116,119,-1,119,116,125,-1,106,126,127,-1,106,127,110,-1,110,127,128,-1,110,128,111,-1,106,102,126,-1,126,102,129,-1,102,104,129,-1,129,104,130,-1,104,115,130,-1,130,115,131,-1,113,132,133,-1,113,133,114,-1,114,133,131,-1,114,131,115,-1,113,111,132,-1,132,111,128,-1,
        ]
    }
}
Shape{
    appearance Appearance {
        material  Material 	{
            diffuseColor 0.5882352941176471 0.5725490196078431 0.5254901960784314
            specularColor 0.043137254901960784 0.0392156862745098 0.0392156862745098
            ambientIntensity 0.8167
            transparency 0.0
            shininess 0.5
        }
    }
    geometry IndexedFaceSet {
        ccw TRUE
        solid FALSE
        coord DEF co Coordinate {
            point [
                0.2989 -0.3669 1.4786, 0.2987 -0.3669 1.4786, 0.2995 -0.3669 1.4757, 0.2982 -0.3669 1.4759, 0.3 -0.3669 1.4738, 0.2976 -0.3669 1.4738, 0.3103 -0.3669 1.4455, 0.2874 -0.3669 1.4455
            ]
        }
        coordIndex [
            0,1,2,-1,2,1,3,-1,2,3,4,-1,4,3,5,-1,4,5,6,-1,6,5,7,-1,
        ]
    }
}
Shape{
    appearance Appearance {
        material  Material 	{
            diffuseColor 0.0 0.0 0.0
            specularColor 0.0 0.0 0.0
            ambientIntensity 0.0
            transparency 0.0
            shininess 0.5
        }
    }
    geometry IndexedFaceSet {
        ccw TRUE
        solid FALSE
        coord DEF co Coordinate {
            point [
                0.1685 -0.3669 1.427, 0.1685 -0.3709 1.427, 0.1812 -0.3669 1.427, 0.1963 -0.3709 1.427, 0.1963 -0.3669 1.427, 0.1685 -0.3709 1.4499, 0.1685 -0.3669 1.4499, 0.1928 -0.3709 1.4499, 0.1812 -0.3669 1.4499, 0.1928 -0.3669 1.4499, 0.1928 -0.3709 1.4577, 0.1928 -0.3669 1.4577, 0.1685 -0.3669 1.4577, 0.1685 -0.3709 1.4577, 0.1812 -0.3669 1.4577, 0.1685 -0.3709 1.4795, 0.1685 -0.3669 1.4795, 0.1948 -0.3669 1.4795, 0.1948 -0.3709 1.4795, 0.1812 -0.3669 1.4795, 0.1948 -0.3709 1.4873, 0.1948 -0.3669 1.4873, 0.1597 -0.3669 1.4873, 0.1597 -0.3709 1.4873, 0.1812 -0.3669 1.4873, 0.1597 -0.3709 1.4192, 0.1597 -0.3669 1.4192, 0.1963 -0.3669 1.4192, 0.1963 -0.3709 1.4192, 0.1812 -0.3669 1.4192, -0.0201 -0.3709 1.427, 0.0077 -0.3709 1.427, -0.0201 -0.3669 1.427, 0.0077 -0.3669 1.427, -0.0201 -0.3709 1.4499, -0.0201 -0.3669 1.4499, 0.0042 -0.3709 1.4499, 0.0042 -0.3669 1.4499, 0.0042 -0.3709 1.4577, 0.0042 -0.3669 1.4577, -0.0201 -0.3709 1.4577, -0.0201 -0.3669 1.4577, -0.0201 -0.3709 1.4795, -0.0201 -0.3669 1.4795, 0.0062 -0.3709 1.4795, 0.0062 -0.3669 1.4795, 0.0062 -0.3709 1.4873, 0.0062 -0.3669 1.4873, -0.0289 -0.3709 1.4873, -0.0289 -0.3669 1.4873, -0.0289 -0.3709 1.4192, -0.0289 -0.3669 1.4192, 0.0077 -0.3709 1.4192, 0.0077 -0.3669 1.4192, 0.2021 -0.3709 1.5536, 0.1994 -0.3709 1.5459, 0.225 -0.3709 1.5536, 0.2277 -0.3709 1.5459, 0.2123 -0.3709 1.5819, 0.209 -0.3709 1.5953, 0.1831 -0.3709 1.5272, 0.1928 -0.3709 1.5272, 0.2129 -0.3709 1.5839, 0.2134 -0.3709 1.5866, 0.2184 -0.3709 1.5953, 0.2137 -0.3709 1.5866, 0.2142 -0.3709 1.5837, 0.2147 -0.3709 1.5819, 0.2444 -0.3709 1.5272, 0.2347 -0.3709 1.5272, 0.209 -0.3669 1.5953, 0.2184 -0.3669 1.5953, 0.1831 -0.3669 1.5272, 0.2027 -0.3669 1.5788, 0.1928 -0.3669 1.5272, 0.1994 -0.3669 1.5459, 0.2277 -0.3669 1.5459, 0.2027 -0.3669 1.5459, 0.2347 -0.3669 1.5272, 0.2444 -0.3669 1.5272, 0.2123 -0.3669 1.5819, 0.2129 -0.3669 1.5839, 0.2134 -0.3669 1.5866, 0.2021 -0.3669 1.5536, 0.225 -0.3669 1.5536, 0.2147 -0.3669 1.5819, 0.2137 -0.3669 1.5866, 0.2142 -0.3669 1.5837
            ]
        }
        coordIndex [
            0,1,2,-1,2,1,3,-1,2,3,4,-1,5,1,6,-1,6,1,0,-1,5,6,7,-1,7,6,8,-1,7,8,9,-1,10,7,11,-1,11,7,9,-1,12,13,14,-1,14,13,10,-1,14,10,11,-1,15,13,16,-1,16,13,12,-1,17,18,19,-1,19,18,15,-1,19,15,16,-1,20,18,21,-1,21,18,17,-1,22,23,24,-1,24,23,20,-1,24,20,21,-1,25,23,26,-1,26,23,22,-1,27,28,29,-1,29,28,25,-1,29,25,26,-1,3,28,4,-1,4,28,27,-1,25,28,3,-1,3,1,25,-1,25,1,5,-1,25,5,23,-1,18,20,15,-1,15,20,23,-1,15,23,13,-1,13,23,5,-1,13,5,10,-1,10,5,7,-1,30,31,32,-1,32,31,33,-1,34,30,35,-1,35,30,32,-1,36,34,37,-1,37,34,35,-1,38,36,39,-1,39,36,37,-1,40,38,41,-1,41,38,39,-1,42,40,43,-1,43,40,41,-1,44,42,45,-1,45,42,43,-1,46,44,47,-1,47,44,45,-1,48,46,49,-1,49,46,47,-1,50,48,51,-1,51,48,49,-1,52,50,53,-1,53,50,51,-1,31,52,33,-1,33,52,53,-1,50,52,31,-1,31,30,50,-1,50,30,34,-1,50,34,48,-1,44,46,42,-1,42,46,48,-1,42,48,40,-1,40,48,34,-1,40,34,38,-1,38,34,36,-1,54,55,56,-1,56,55,57,-1,58,59,54,-1,54,59,60,-1,54,60,55,-1,55,60,61,-1,58,62,59,-1,59,62,63,-1,59,63,64,-1,64,63,65,-1,64,65,66,-1,66,67,64,-1,64,67,56,-1,64,56,68,-1,68,56,57,-1,68,57,69,-1,59,64,70,-1,70,64,71,-1,72,60,73,-1,73,60,59,-1,73,59,70,-1,61,60,74,-1,74,60,72,-1,55,61,75,-1,75,61,74,-1,76,57,77,-1,77,57,55,-1,77,55,75,-1,69,57,78,-1,78,57,76,-1,68,69,79,-1,79,69,78,-1,64,68,71,-1,71,68,79,-1,58,80,81,-1,58,81,62,-1,62,81,82,-1,62,82,63,-1,58,54,80,-1,80,54,83,-1,54,56,83,-1,83,56,84,-1,56,67,84,-1,84,67,85,-1,65,86,87,-1,65,87,66,-1,66,87,85,-1,66,85,67,-1,65,63,86,-1,86,63,82,-1,
        ]
    }
}
Shape{
    appearance Appearance {
        material  Material 	{
            diffuseColor 0.5882352941176471 0.5725490196078431 0.5254901960784314
            specularColor 0.043137254901960784 0.0392156862745098 0.0392156862745098
            ambientIntensity 0.8167
            transparency 0.0
            shininess 0.5
        }
    }
    geometry IndexedFaceSet {
        ccw TRUE
        solid FALSE
        coord DEF co Coordinate {
            point [
                0.2137 -0.3669 1.5866, 0.2134 -0.3669 1.5866, 0.2142 -0.3669 1.5837, 0.2129 -0.3669 1.5839, 0.2147 -0.3669 1.5819, 0.2123 -0.3669 1.5819, 0.225 -0.3669 1.5536, 0.2021 -0.3669 1.5536
            ]
        }
        coordIndex [
            0,1,2,-1,2,1,3,-1,2,3,4,-1,4,3,5,-1,4,5,6,-1,6,5,7,-1,
        ]
    }
}
Shape{
    appearance Appearance {
        material  Material 	{
            diffuseColor 0.0 0.0 0.0
            specularColor 0.0 0.0 0.0
            ambientIntensity 0.0
            transparency 0.0
            shininess 0.5
        }
    }
    geometry IndexedFaceSet {
        ccw TRUE
        solid FALSE
        coord DEF co Coordinate {
            point [
                0.0832 -0.3669 1.535, 0.0832 -0.3709 1.535, 0.1016 -0.3669 1.535, 0.111 -0.3709 1.535, 0.111 -0.3669 1.535, 0.0832 -0.3709 1.5579, 0.0832 -0.3669 1.5579, 0.1075 -0.3709 1.5579, 0.1016 -0.3669 1.5579, 0.1075 -0.3669 1.5579, 0.1075 -0.3709 1.5657, 0.1075 -0.3669 1.5657, 0.0832 -0.3669 1.5657, 0.0832 -0.3709 1.5657, 0.1016 -0.3669 1.5657, 0.0832 -0.3709 1.5875, 0.0832 -0.3669 1.5875, 0.1095 -0.3709 1.5875, 0.1016 -0.3669 1.5875, 0.1095 -0.3669 1.5875, 0.1095 -0.3709 1.5953, 0.1095 -0.3669 1.5953, 0.0744 -0.3669 1.5953, 0.0744 -0.3709 1.5953, 0.1016 -0.3669 1.5953, 0.0744 -0.3709 1.5272, 0.0744 -0.3669 1.5272, 0.111 -0.3709 1.5272, 0.1016 -0.3669 1.5272, 0.111 -0.3669 1.5272, -0.0201 -0.3709 1.535, 0.007 -0.3709 1.535, -0.0201 -0.3669 1.535, 0.007 -0.3669 1.535, -0.0201 -0.3709 1.5953, -0.0201 -0.3669 1.5953, -0.0289 -0.3709 1.5953, -0.0289 -0.3669 1.5953, -0.0289 -0.3709 1.5272, -0.0289 -0.3669 1.5272, 0.007 -0.3709 1.5272, 0.007 -0.3669 1.5272
            ]
        }
        coordIndex [
            0,1,2,-1,2,1,3,-1,2,3,4,-1,5,1,6,-1,6,1,0,-1,5,6,7,-1,7,6,8,-1,7,8,9,-1,10,7,11,-1,11,7,9,-1,12,13,14,-1,14,13,10,-1,14,10,11,-1,15,13,16,-1,16,13,12,-1,15,16,17,-1,17,16,18,-1,17,18,19,-1,20,17,21,-1,21,17,19,-1,22,23,24,-1,24,23,20,-1,24,20,21,-1,25,23,26,-1,26,23,22,-1,25,26,27,-1,27,26,28,-1,27,28,29,-1,3,27,4,-1,4,27,29,-1,25,27,3,-1,3,1,25,-1,25,1,5,-1,25,5,23,-1,17,20,15,-1,15,20,23,-1,15,23,13,-1,13,23,5,-1,13,5,10,-1,10,5,7,-1,30,31,32,-1,32,31,33,-1,34,30,35,-1,35,30,32,-1,36,34,37,-1,37,34,35,-1,38,36,39,-1,39,36,37,-1,40,38,41,-1,41,38,39,-1,31,40,33,-1,33,40,41,-1,34,36,30,-1,30,36,38,-1,30,38,31,-1,31,38,40,-1,
        ]
    }
}