#VRML V2.0 utf8
# 3D model generated by easyeda2kicad.py (https://github.com/uPesy/easyeda2kicad.py)

Shape{
    appearance Appearance {
        material  Material 	{
            diffuseColor 0.25098039215686274 0.25098039215686274 0.25098039215686274
            specularColor 0.12549019607843137 0.12549019607843137 0.12549019607843137
            ambientIntensity 0.251
            transparency 0.0
            shininess 0.5
        }
    }
    geometry IndexedFaceSet {
        ccw TRUE
        solid FALSE
        coord DEF co Coordinate {
            point [
                -0.0188 0.1423 0.0197, -0.015 -0.0144 0.0197, -0.0188 -0.0189 0.0197, -0.015 -0.0187 0.0197, 0.0061 -0.0187 0.0197, 0.0138 -0.0167 0.0197, 0.0138 -0.0123 0.0197, 0.0061 0.0207 0.0197, 0.0008 0.0164 0.0197, 0.0008 0.0034 0.0197, -0.014 0.0164 0.0197, -0.0131 0.0034 0.0197, 0.0008 -0.0009 0.0197, 0.0008 -0.0144 0.0197, -0.0131 -0.0009 0.0197, 0.0666 -0.0187 0.0197, 0.0269 -0.0189 0.0197, 0.0464 -0.0187 0.0197, 0.0295 -0.0187 0.0197, 0.0333 -0.0174 0.0197, -0.014 0.0207 0.0197, 0.041 0.0103 0.0197, 0.0387 0.014 0.0197, 0.0613 0.0207 0.0197, 0.0269 0.0164 0.0197, 0.0298 0.0153 0.0197, 0.0145 -0.0127 0.0197, 0.0326 0.0135 0.0197, 0.0349 0.0109 0.0197, 0.0378 0.0006 0.0197, 0.0374 -0.0037 0.0197, 0.0363 -0.0071 0.0197, 0.0276 -0.0144 0.0197, 0.0239 -0.0149 0.0197, 0.0304 -0.0134 0.0197, 0.0329 -0.0118 0.0197, 0.0347 -0.0098 0.0197, 0.0187 -0.0143 0.0197, 0.0366 0.0078 0.0197, 0.0376 0.0036 0.0197, 0.0365 -0.0153 0.0197, 0.0394 -0.0122 0.0197, 0.0464 -0.0144 0.0197, 0.0415 -0.0085 0.0197, 0.0613 -0.0144 0.0197, 0.0427 -0.0043 0.0197, 0.0431 0.0002 0.0197, 0.0425 0.0058 0.0197, 0.0351 0.0174 0.0197, 0.0314 0.0196 0.0197, 0.027 0.0208 0.0197, 0.0231 0.0212 0.0197, 0.0184 0.0208 0.0197, 0.0138 0.0196 0.0197, 0.0138 0.0143 0.0197, 0.0182 0.0162 0.0197, 0.023 0.0168 0.0197, 0.022 -0.0189 0.0197, 0.0236 -0.0192 0.0197, -0.0188 -0.1423 0.0197, 0.0246 -0.0192 0.0197, 0.0666 0.0207 0.0197, 0.2998 0.1423 0.0197, 0.2998 -0.0189 0.0197, 0.2998 -0.1423 0.0197, -0.2998 -0.1423 0.0197, -0.2998 -0.0189 0.0197, 0.018 -0.0184 0.0197, -0.0573 -0.0187 0.0197, -0.0524 -0.0079 0.0197, -0.0502 -0.0114 0.0197, -0.087 -0.0187 0.0197, -0.0928 -0.0187 0.0197, -0.0774 0.0207 0.0197, -0.2998 0.1423 0.0197, -0.0721 0.0207 0.0197, -0.0469 -0.0145 0.0197, -0.0428 -0.0169 0.0197, -0.0383 -0.0183 0.0197, -0.0334 -0.0187 0.0197, -0.0227 -0.0187 0.0197, -0.0227 0.0207 0.0197, -0.0338 0.0207 0.0197, -0.0484 0.0155 0.0197, -0.0512 0.0125 0.0197, -0.053 0.0091 0.0197, -0.0395 0.0201 0.0197, -0.0441 0.0185 0.0197, -0.0484 0.0156 0.0197, -0.063 -0.0187 0.0197, -0.0668 -0.0076 0.0197, -0.083 -0.0076 0.0197, -0.0541 0.0052 0.0197, -0.0544 0.0015 0.0197, -0.0538 -0.0038 0.0197, -0.1575 -0.152 0.1575, -0.2362 -0.152 0.1575, -0.315 -0.1575 0.2362, -0.2362 -0.1561 0.2165, -0.1575 -0.1561 0.2165, 0.1575 -0.1561 0.2165, 0.315 -0.1575 0.2362, 0.2362 -0.1561 0.2165, 0.2362 -0.152 0.1575, 0.1575 -0.152 0.1575, 0.315 0.1575 0.2362, -0.315 0.1575 0.2362, 0.0591 0.1561 0.2165, -0.0591 0.1561 0.2165, -0.0591 0.152 0.1575, 0.0591 0.152 0.1575, 0.315 0.1575 0.2953, 0.315 -0.1575 0.2953, -0.315 0.1575 0.2953, -0.315 -0.1575 0.2953, 0.218 -0.1109 0.2953, 0.2135 -0.1051 0.2953, 0.2618 -0.0773 0.2953, 0.2646 -0.084 0.2953, 0.2377 -0.0633 0.2953, 0.2449 -0.0643 0.2953, 0.2656 -0.0912 0.2953, 0.2646 -0.0984 0.2953, 0.2618 -0.1051 0.2953, 0.2574 -0.1109 0.2953, 0.2516 -0.1153 0.2953, 0.2449 -0.1181 0.2953, 0.2377 -0.1191 0.2953, 0.2305 -0.1181 0.2953, 0.2238 -0.1153 0.2953, 0.2516 -0.0671 0.2953, 0.2574 -0.0715 0.2953, 0.2108 -0.0984 0.2953, 0.2098 -0.0912 0.2953, 0.2108 -0.084 0.2953, 0.2135 -0.0773 0.2953, 0.218 -0.0715 0.2953, 0.2238 -0.0671 0.2953, 0.2305 -0.0643 0.2953
            ]
        }
        coordIndex [
            0,1,2,-1,2,1,3,-1,2,3,4,-1,5,4,6,-1,6,4,7,-1,8,9,10,-1,10,9,11,-1,12,13,14,-1,14,13,1,-1,15,16,17,-1,17,16,18,-1,17,18,19,-1,7,20,0,-1,0,20,10,-1,0,10,1,-1,1,10,11,-1,1,11,14,-1,21,22,23,-1,24,25,26,-1,26,25,27,-1,26,27,28,-1,29,30,26,-1,26,30,31,-1,32,33,34,-1,34,33,35,-1,31,36,26,-1,26,36,35,-1,26,35,37,-1,37,35,33,-1,28,38,26,-1,26,38,39,-1,26,39,29,-1,19,40,17,-1,17,40,41,-1,17,41,42,-1,42,41,43,-1,42,43,44,-1,43,45,44,-1,44,45,46,-1,44,46,23,-1,23,46,47,-1,23,47,21,-1,48,49,0,-1,0,49,50,-1,0,50,51,-1,51,52,0,-1,0,52,53,-1,0,53,7,-1,7,53,54,-1,7,54,6,-1,6,54,55,-1,6,55,26,-1,26,55,56,-1,26,56,24,-1,57,58,59,-1,59,58,60,-1,59,60,16,-1,22,48,23,-1,23,48,0,-1,23,0,61,-1,61,0,62,-1,61,62,15,-1,15,62,63,-1,15,63,16,-1,16,63,64,-1,16,64,59,-1,65,66,59,-1,59,66,2,-1,59,2,57,-1,57,2,4,-1,57,4,67,-1,67,4,5,-1,68,69,70,-1,71,2,72,-1,72,2,66,-1,72,66,73,-1,73,66,74,-1,73,74,75,-1,75,74,0,-1,70,76,68,-1,68,76,77,-1,68,77,78,-1,79,80,2,-1,2,80,81,-1,2,81,0,-1,0,81,82,-1,83,84,75,-1,75,84,85,-1,82,86,0,-1,0,86,87,-1,0,87,75,-1,75,87,88,-1,75,88,83,-1,78,79,68,-1,68,79,2,-1,68,2,89,-1,89,2,71,-1,89,71,90,-1,90,71,91,-1,85,92,75,-1,75,92,93,-1,75,93,68,-1,68,93,94,-1,68,94,69,-1,59,95,65,-1,65,95,96,-1,65,96,97,-1,97,96,98,-1,98,99,97,-1,97,99,100,-1,97,100,101,-1,101,100,102,-1,101,102,64,-1,64,102,103,-1,64,103,59,-1,59,103,104,-1,59,104,95,-1,95,104,100,-1,95,100,99,-1,62,105,63,-1,63,105,101,-1,63,101,64,-1,106,74,97,-1,97,74,66,-1,97,66,65,-1,105,107,108,-1,109,74,108,-1,108,74,106,-1,108,106,105,-1,107,105,110,-1,110,105,62,-1,110,62,109,-1,109,62,0,-1,109,0,74,-1,111,112,105,-1,105,112,101,-1,113,111,106,-1,106,111,105,-1,114,113,97,-1,97,113,106,-1,112,114,101,-1,101,114,97,-1,115,116,114,-1,117,118,111,-1,119,120,111,-1,111,118,112,-1,118,121,112,-1,112,121,122,-1,112,122,123,-1,123,124,112,-1,112,124,125,-1,112,125,126,-1,126,127,112,-1,112,127,128,-1,112,128,114,-1,114,128,129,-1,114,129,115,-1,120,130,111,-1,111,130,131,-1,111,131,117,-1,116,132,114,-1,114,132,133,-1,114,133,113,-1,113,133,134,-1,113,134,135,-1,135,136,113,-1,113,136,137,-1,113,137,111,-1,111,137,138,-1,111,138,119,-1,
        ]
    }
}
Shape{
    appearance Appearance {
        material  Material 	{
            diffuseColor 1.0 1.0 1.0
            specularColor 0.5019607843137255 0.5019607843137255 0.5019607843137255
            ambientIntensity 1.0
            transparency 0.0
            shininess 0.5
        }
    }
    geometry IndexedFaceSet {
        ccw TRUE
        solid FALSE
        coord DEF co Coordinate {
            point [
                0.0591 0.315 0.0, 0.0591 0.2558 0.0, -0.0591 0.315 0.0, -0.0591 0.2558 0.0, 0.0591 0.315 0.0591, -0.0591 0.315 0.0591, 0.0591 0.2558 0.0591, -0.0591 0.2558 0.0591, 0.0591 0.2509 0.0597, -0.0591 0.2509 0.0597, 0.0591 0.2463 0.0615, -0.0591 0.2463 0.0615, 0.0591 0.2422 0.0645, -0.0591 0.2422 0.0645, 0.0591 0.2391 0.0683, -0.0591 0.2391 0.0683, 0.0591 0.237 0.0728, -0.0591 0.237 0.0728, 0.0591 0.2361 0.0777, -0.0591 0.2361 0.0777, 0.0591 0.2328 0.1419, -0.0591 0.2328 0.1419, -0.0591 0.2301 0.1585, 0.0591 0.2301 0.1585, -0.0591 0.224 0.1741, 0.0591 0.224 0.1741, -0.0591 0.2147 0.1881, 0.0591 0.2147 0.1881, -0.0591 0.2027 0.1998, 0.0591 0.2027 0.1998, -0.0591 0.1885 0.2086, 0.0591 0.1885 0.2086, -0.0591 0.1727 0.2143, 0.0591 0.1727 0.2143, -0.0591 0.1561 0.2165, 0.0591 0.1561 0.2165, -0.0591 0.1541 0.1575, 0.0591 0.1541 0.1575, -0.0591 0.152 0.1575, 0.0591 0.152 0.1575, 0.0591 0.1591 0.1569, -0.0591 0.1591 0.1569, 0.0591 0.1637 0.155, -0.0591 0.1637 0.155, 0.0591 0.1677 0.1521, -0.0591 0.1677 0.1521, 0.0591 0.1708 0.1482, -0.0591 0.1708 0.1482, 0.0591 0.1729 0.1437, -0.0591 0.1729 0.1437, 0.0591 0.1738 0.1388, -0.0591 0.1738 0.1388, 0.0591 0.1772 0.0746, -0.0591 0.1772 0.0746, -0.0591 0.1799 0.0578, 0.0591 0.1799 0.0578, -0.0591 0.1862 0.0419, 0.0591 0.1862 0.0419, -0.0591 0.1957 0.0278, 0.0591 0.1957 0.0278, -0.0591 0.2081 0.0161, 0.0591 0.2081 0.0161, -0.0591 0.2227 0.0073, 0.0591 0.2227 0.0073, -0.0591 0.2389 0.0018, 0.0591 0.2389 0.0018, 0.2362 -0.1738 0.1388, 0.1575 -0.1738 0.1388, 0.2362 -0.1729 0.1437, 0.1575 -0.1729 0.1437, 0.2362 -0.1708 0.1482, 0.1575 -0.1708 0.1482, 0.2362 -0.1677 0.1521, 0.1575 -0.1677 0.1521, 0.2362 -0.1637 0.155, 0.1575 -0.1637 0.155, 0.2362 -0.1591 0.1569, 0.1575 -0.1591 0.1569, 0.2362 -0.1541 0.1575, 0.1575 -0.1541 0.1575, 0.2362 -0.152 0.1575, 0.1575 -0.152 0.1575, 0.2362 -0.1561 0.2165, 0.1575 -0.1561 0.2165, 0.1575 -0.1727 0.2143, 0.2362 -0.1727 0.2143, 0.1575 -0.1885 0.2086, 0.2362 -0.1885 0.2086, 0.1575 -0.2027 0.1998, 0.2362 -0.2027 0.1998, 0.1575 -0.2147 0.1881, 0.2362 -0.2147 0.1881, 0.1575 -0.224 0.1741, 0.2362 -0.224 0.1741, 0.1575 -0.2301 0.1585, 0.2362 -0.2301 0.1585, 0.1575 -0.2328 0.1419, 0.2362 -0.2328 0.1419, 0.2362 -0.2361 0.0777, 0.1575 -0.2361 0.0777, 0.2362 -0.237 0.0728, 0.1575 -0.237 0.0728, 0.2362 -0.2391 0.0683, 0.1575 -0.2391 0.0683, 0.2362 -0.2422 0.0645, 0.1575 -0.2422 0.0645, 0.2362 -0.2463 0.0615, 0.1575 -0.2463 0.0615, 0.2362 -0.2509 0.0597, 0.1575 -0.2509 0.0597, 0.2362 -0.2558 0.0591, 0.1575 -0.2558 0.0591, 0.2362 -0.315 0.0591, 0.1575 -0.315 0.0591, 0.2362 -0.315 0.0, 0.1575 -0.315 0.0, 0.2362 -0.2558 0.0, 0.1575 -0.2558 0.0, 0.1575 -0.2389 0.0018, 0.2362 -0.2389 0.0018, 0.1575 -0.2227 0.0073, 0.2362 -0.2227 0.0073, 0.1575 -0.2081 0.0161, 0.2362 -0.2081 0.0161, 0.1575 -0.1957 0.0278, 0.2362 -0.1957 0.0278, 0.1575 -0.1862 0.0419, 0.2362 -0.1862 0.0419, 0.1575 -0.1799 0.0578, 0.2362 -0.1799 0.0578, 0.1575 -0.1772 0.0746, 0.2362 -0.1772 0.0746, -0.2362 -0.1541 0.1575, -0.1575 -0.1541 0.1575, -0.2362 -0.1591 0.1569, -0.1575 -0.1591 0.1569, -0.2362 -0.1637 0.155, -0.1575 -0.1637 0.155, -0.2362 -0.1677 0.1521, -0.1575 -0.1677 0.1521, -0.2362 -0.1708 0.1482, -0.1575 -0.1708 0.1482, -0.2362 -0.1729 0.1437, -0.1575 -0.1729 0.1437, -0.2362 -0.1738 0.1388, -0.1575 -0.1738 0.1388, -0.2362 -0.1772 0.0746, -0.1575 -0.1772 0.0746, -0.1575 -0.1799 0.0578, -0.2362 -0.1799 0.0578, -0.1575 -0.1862 0.0419, -0.2362 -0.1862 0.0419, -0.1575 -0.1957 0.0278, -0.2362 -0.1957 0.0278, -0.1575 -0.2081 0.0161, -0.2362 -0.2081 0.0161, -0.1575 -0.2227 0.0073, -0.2362 -0.2227 0.0073, -0.1575 -0.2389 0.0018, -0.2362 -0.2389 0.0018, -0.1575 -0.2558 0.0, -0.2362 -0.2558 0.0, -0.2362 -0.315 0.0, -0.1575 -0.315 0.0, -0.2362 -0.315 0.0591, -0.1575 -0.315 0.0591, -0.2362 -0.2558 0.0591, -0.1575 -0.2558 0.0591, -0.2362 -0.2509 0.0597, -0.1575 -0.2509 0.0597, -0.2362 -0.2463 0.0615, -0.1575 -0.2463 0.0615, -0.2362 -0.2422 0.0645, -0.1575 -0.2422 0.0645, -0.2362 -0.2391 0.0683, -0.1575 -0.2391 0.0683, -0.2362 -0.237 0.0728, -0.1575 -0.237 0.0728, -0.2362 -0.2361 0.0777, -0.1575 -0.2361 0.0777, -0.2362 -0.2328 0.1419, -0.1575 -0.2328 0.1419, -0.1575 -0.2301 0.1585, -0.2362 -0.2301 0.1585, -0.1575 -0.224 0.1741, -0.2362 -0.224 0.1741, -0.1575 -0.2147 0.1881, -0.2362 -0.2147 0.1881, -0.1575 -0.2027 0.1998, -0.2362 -0.2027 0.1998, -0.1575 -0.1885 0.2086, -0.2362 -0.1885 0.2086, -0.1575 -0.1727 0.2143, -0.2362 -0.1727 0.2143, -0.1575 -0.1561 0.2165, -0.2362 -0.1561 0.2165, -0.2362 -0.152 0.1575, -0.1575 -0.152 0.1575
            ]
        }
        coordIndex [
            0,1,2,-1,2,1,3,-1,4,0,5,-1,5,0,2,-1,6,4,7,-1,7,4,5,-1,6,7,8,-1,8,7,9,-1,8,9,10,-1,10,9,11,-1,10,11,12,-1,12,11,13,-1,12,13,14,-1,14,13,15,-1,14,15,16,-1,16,15,17,-1,16,17,18,-1,18,17,19,-1,20,18,21,-1,21,18,19,-1,20,21,22,-1,20,22,23,-1,23,22,24,-1,23,24,25,-1,25,24,26,-1,25,26,27,-1,27,26,28,-1,27,28,29,-1,29,28,30,-1,29,30,31,-1,31,30,32,-1,31,32,33,-1,33,32,34,-1,33,34,35,-1,36,37,38,-1,38,37,39,-1,37,36,40,-1,40,36,41,-1,40,41,42,-1,42,41,43,-1,42,43,44,-1,44,43,45,-1,44,45,46,-1,46,45,47,-1,46,47,48,-1,48,47,49,-1,48,49,50,-1,50,49,51,-1,52,50,53,-1,53,50,51,-1,52,53,54,-1,52,54,55,-1,55,54,56,-1,55,56,57,-1,57,56,58,-1,57,58,59,-1,59,58,60,-1,59,60,61,-1,61,60,62,-1,61,62,63,-1,63,62,64,-1,63,64,65,-1,65,64,3,-1,65,3,1,-1,46,25,27,-1,46,27,44,-1,44,27,29,-1,44,29,42,-1,42,29,31,-1,42,31,40,-1,40,31,33,-1,40,33,37,-1,37,33,35,-1,37,35,39,-1,0,4,1,-1,1,4,6,-1,1,6,65,-1,65,6,8,-1,65,8,63,-1,63,8,10,-1,63,10,61,-1,61,10,12,-1,25,46,23,-1,23,46,48,-1,23,48,20,-1,20,48,50,-1,20,50,18,-1,18,50,52,-1,18,52,16,-1,16,52,55,-1,16,55,14,-1,14,55,57,-1,14,57,12,-1,12,57,59,-1,12,59,61,-1,45,43,30,-1,30,43,32,-1,32,43,41,-1,32,41,34,-1,34,41,36,-1,34,36,38,-1,11,60,13,-1,13,60,58,-1,13,58,15,-1,15,58,56,-1,15,56,17,-1,17,56,54,-1,17,54,19,-1,19,54,53,-1,19,53,21,-1,21,53,51,-1,21,51,22,-1,22,51,49,-1,22,49,24,-1,24,49,47,-1,24,47,26,-1,26,47,45,-1,26,45,28,-1,28,45,30,-1,5,2,7,-1,7,2,3,-1,7,3,9,-1,9,3,64,-1,9,64,11,-1,11,64,62,-1,11,62,60,-1,66,67,68,-1,68,67,69,-1,68,69,70,-1,70,69,71,-1,70,71,72,-1,72,71,73,-1,72,73,74,-1,74,73,75,-1,74,75,76,-1,76,75,77,-1,76,77,78,-1,78,77,79,-1,80,78,81,-1,81,78,79,-1,82,83,84,-1,82,84,85,-1,85,84,86,-1,85,86,87,-1,87,86,88,-1,87,88,89,-1,89,88,90,-1,89,90,91,-1,91,90,92,-1,91,92,93,-1,93,92,94,-1,93,94,95,-1,95,94,96,-1,95,96,97,-1,98,97,99,-1,99,97,96,-1,98,99,100,-1,100,99,101,-1,100,101,102,-1,102,101,103,-1,102,103,104,-1,104,103,105,-1,104,105,106,-1,106,105,107,-1,106,107,108,-1,108,107,109,-1,108,109,110,-1,110,109,111,-1,112,110,113,-1,113,110,111,-1,114,112,115,-1,115,112,113,-1,116,114,117,-1,117,114,115,-1,116,117,118,-1,116,118,119,-1,119,118,120,-1,119,120,121,-1,121,120,122,-1,121,122,123,-1,123,122,124,-1,123,124,125,-1,125,124,126,-1,125,126,127,-1,127,126,128,-1,127,128,129,-1,129,128,130,-1,129,130,131,-1,66,131,67,-1,67,131,130,-1,72,74,87,-1,87,74,85,-1,85,74,76,-1,85,76,82,-1,82,76,78,-1,82,78,80,-1,112,114,110,-1,110,114,116,-1,110,116,108,-1,108,116,119,-1,108,119,106,-1,87,89,72,-1,72,89,91,-1,72,91,70,-1,70,91,93,-1,70,93,68,-1,68,93,95,-1,68,95,66,-1,66,95,97,-1,66,97,131,-1,131,97,98,-1,131,98,129,-1,129,98,100,-1,129,100,127,-1,127,100,102,-1,127,102,125,-1,125,102,104,-1,125,104,123,-1,123,104,106,-1,123,106,121,-1,121,106,119,-1,71,90,73,-1,73,90,88,-1,73,88,75,-1,75,88,86,-1,75,86,77,-1,77,86,84,-1,77,84,79,-1,79,84,83,-1,79,83,81,-1,115,113,117,-1,117,113,111,-1,117,111,118,-1,118,111,109,-1,118,109,120,-1,120,109,107,-1,120,107,122,-1,122,107,105,-1,122,105,124,-1,124,105,126,-1,126,105,103,-1,126,103,128,-1,128,103,101,-1,128,101,130,-1,130,101,99,-1,130,99,67,-1,67,99,96,-1,67,96,69,-1,69,96,94,-1,69,94,71,-1,71,94,92,-1,71,92,90,-1,132,133,134,-1,134,133,135,-1,134,135,136,-1,136,135,137,-1,136,137,138,-1,138,137,139,-1,138,139,140,-1,140,139,141,-1,140,141,142,-1,142,141,143,-1,142,143,144,-1,144,143,145,-1,146,144,147,-1,147,144,145,-1,146,147,148,-1,146,148,149,-1,149,148,150,-1,149,150,151,-1,151,150,152,-1,151,152,153,-1,153,152,154,-1,153,154,155,-1,155,154,156,-1,155,156,157,-1,157,156,158,-1,157,158,159,-1,159,158,160,-1,159,160,161,-1,162,161,163,-1,163,161,160,-1,164,162,165,-1,165,162,163,-1,166,164,167,-1,167,164,165,-1,166,167,168,-1,168,167,169,-1,168,169,170,-1,170,169,171,-1,170,171,172,-1,172,171,173,-1,172,173,174,-1,174,173,175,-1,174,175,176,-1,176,175,177,-1,176,177,178,-1,178,177,179,-1,180,178,181,-1,181,178,179,-1,180,181,182,-1,180,182,183,-1,183,182,184,-1,183,184,185,-1,185,184,186,-1,185,186,187,-1,187,186,188,-1,187,188,189,-1,189,188,190,-1,189,190,191,-1,191,190,192,-1,191,192,193,-1,193,192,194,-1,193,194,195,-1,132,196,133,-1,133,196,197,-1,140,187,138,-1,138,187,189,-1,138,189,136,-1,136,189,191,-1,136,191,134,-1,134,191,193,-1,134,193,132,-1,132,193,195,-1,132,195,196,-1,162,164,161,-1,161,164,166,-1,161,166,159,-1,159,166,168,-1,159,168,157,-1,157,168,170,-1,157,170,155,-1,155,170,172,-1,155,172,153,-1,153,172,151,-1,151,172,174,-1,151,174,149,-1,149,174,176,-1,149,176,146,-1,146,176,178,-1,146,178,144,-1,144,178,180,-1,144,180,142,-1,142,180,183,-1,142,183,140,-1,140,183,185,-1,140,185,187,-1,139,137,190,-1,190,137,192,-1,192,137,135,-1,192,135,194,-1,194,135,133,-1,194,133,197,-1,165,163,167,-1,167,163,160,-1,167,160,169,-1,169,160,158,-1,169,158,171,-1,190,188,139,-1,139,188,186,-1,139,186,141,-1,141,186,184,-1,141,184,143,-1,143,184,182,-1,143,182,145,-1,145,182,181,-1,145,181,147,-1,147,181,179,-1,147,179,148,-1,148,179,177,-1,148,177,150,-1,150,177,175,-1,150,175,152,-1,152,175,173,-1,152,173,154,-1,154,173,171,-1,154,171,156,-1,156,171,158,-1,
        ]
    }
}
Shape{
    appearance Appearance {
        material  Material 	{
            diffuseColor 0.0 0.0 0.0
            specularColor 0.0 0.0 0.0
            ambientIntensity 0.0
            transparency 0.0
            shininess 0.5
        }
    }
    geometry IndexedFaceSet {
        ccw TRUE
        solid FALSE
        coord DEF co Coordinate {
            point [
                0.2656 -0.0912 0.2949, 0.2656 -0.0912 0.2953, 0.2646 -0.084 0.2949, 0.2646 -0.084 0.2953, 0.2618 -0.0773 0.2949, 0.2618 -0.0773 0.2953, 0.2574 -0.0715 0.2949, 0.2574 -0.0715 0.2953, 0.2516 -0.0671 0.2949, 0.2516 -0.0671 0.2953, 0.2449 -0.0643 0.2949, 0.2449 -0.0643 0.2953, 0.2377 -0.0633 0.2949, 0.2377 -0.0633 0.2953, 0.2305 -0.0643 0.2949, 0.2305 -0.0643 0.2953, 0.2238 -0.0671 0.2949, 0.2238 -0.0671 0.2953, 0.218 -0.0715 0.2949, 0.218 -0.0715 0.2953, 0.2135 -0.0773 0.2949, 0.2135 -0.0773 0.2953, 0.2108 -0.084 0.2949, 0.2108 -0.084 0.2953, 0.2098 -0.0912 0.2949, 0.2098 -0.0912 0.2953, 0.2108 -0.0984 0.2949, 0.2108 -0.0984 0.2953, 0.2135 -0.1051 0.2949, 0.2135 -0.1051 0.2953, 0.218 -0.1109 0.2949, 0.218 -0.1109 0.2953, 0.2238 -0.1153 0.2949, 0.2238 -0.1153 0.2953, 0.2305 -0.1181 0.2949, 0.2305 -0.1181 0.2953, 0.2377 -0.1191 0.2949, 0.2377 -0.1191 0.2953, 0.2449 -0.1181 0.2949, 0.2449 -0.1181 0.2953, 0.2516 -0.1153 0.2949, 0.2516 -0.1153 0.2953, 0.2574 -0.1109 0.2949, 0.2574 -0.1109 0.2953, 0.2618 -0.1051 0.2949, 0.2618 -0.1051 0.2953, 0.2646 -0.0984 0.2949, 0.2646 -0.0984 0.2953, 0.2377 -0.0912 0.2949, -0.0774 0.0207 0.0201, -0.0928 -0.0187 0.0201, -0.0774 0.0207 0.0197, -0.0928 -0.0187 0.0197, -0.087 -0.0187 0.0201, -0.087 -0.0187 0.0197, -0.083 -0.0076 0.0201, -0.083 -0.0076 0.0197, -0.0668 -0.0076 0.0201, -0.0668 -0.0076 0.0197, -0.063 -0.0187 0.0201, -0.063 -0.0187 0.0197, -0.0573 -0.0187 0.0201, -0.0573 -0.0187 0.0197, -0.0721 0.0207 0.0201, -0.0721 0.0207 0.0197, -0.0681 -0.0033 0.0201, -0.0813 -0.0033 0.0201, -0.074 0.0131 0.0201, -0.0744 0.0145 0.0201, -0.0746 0.0159 0.0201, -0.0747 0.0159 0.0201, -0.075 0.0145 0.0201, -0.0753 0.0131 0.0201, -0.0681 -0.0033 0.0197, -0.0813 -0.0033 0.0197, -0.074 0.0131 0.0197, -0.0744 0.0145 0.0197, -0.0746 0.0159 0.0197, -0.0747 0.0159 0.0197, -0.075 0.0145 0.0197, -0.0753 0.0131 0.0197, -0.0334 -0.0187 0.0201, -0.0227 -0.0187 0.0201, -0.0334 -0.0187 0.0197, -0.0227 -0.0187 0.0197, -0.0227 0.0207 0.0201, -0.0227 0.0207 0.0197, -0.0338 0.0207 0.0201, -0.0338 0.0207 0.0197, -0.0544 0.0015 0.0201, -0.0544 0.0015 0.0197, -0.0541 0.0052 0.0197, -0.0541 0.0052 0.0201, -0.053 0.0091 0.0197, -0.053 0.0091 0.0201, -0.0512 0.0125 0.0197, -0.0512 0.0125 0.0201, -0.0484 0.0155 0.0197, -0.0484 0.0155 0.0201, -0.0484 0.0156 0.0197, -0.0484 0.0156 0.0201, -0.0441 0.0185 0.0197, -0.0441 0.0185 0.0201, -0.0395 0.0201 0.0197, -0.0395 0.0201 0.0201, -0.0383 -0.0183 0.0197, -0.0383 -0.0183 0.0201, -0.0428 -0.0169 0.0197, -0.0428 -0.0169 0.0201, -0.0469 -0.0145 0.0197, -0.0469 -0.0145 0.0201, -0.0502 -0.0114 0.0197, -0.0502 -0.0114 0.0201, -0.0524 -0.0079 0.0197, -0.0524 -0.0079 0.0201, -0.0538 -0.0038 0.0197, -0.0538 -0.0038 0.0201, -0.0465 0.0108 0.0201, -0.0446 0.0129 0.0201, -0.0417 0.0147 0.0201, -0.0384 0.0159 0.0201, -0.0338 0.0164 0.0201, -0.028 0.0164 0.0201, -0.028 -0.0144 0.0201, -0.0336 -0.0144 0.0201, -0.0377 -0.014 0.0201, -0.041 -0.013 0.0201, -0.0437 -0.0114 0.0201, -0.0459 -0.0092 0.0201, -0.0476 -0.0065 0.0201, -0.0487 -0.0028 0.0201, -0.0491 0.0014 0.0201, -0.0488 0.0053 0.0201, -0.0478 0.0084 0.0201, -0.0338 0.0164 0.0197, -0.028 0.0164 0.0197, -0.0384 0.0159 0.0197, -0.0417 0.0147 0.0197, -0.0446 0.0129 0.0197, -0.0465 0.0108 0.0197, -0.0478 0.0084 0.0197, -0.0488 0.0053 0.0197, -0.0491 0.0014 0.0197, -0.0487 -0.0028 0.0197, -0.0476 -0.0065 0.0197, -0.0459 -0.0092 0.0197, -0.0437 -0.0114 0.0197, -0.041 -0.013 0.0197, -0.0377 -0.014 0.0197, -0.0336 -0.0144 0.0197, -0.028 -0.0144 0.0197, -0.015 -0.0144 0.0201, -0.015 -0.0187 0.0201, -0.015 -0.0144 0.0197, -0.015 -0.0187 0.0197, 0.0061 -0.0187 0.0201, 0.0061 -0.0187 0.0197, 0.0061 0.0207 0.0201, 0.0061 0.0207 0.0197, -0.014 0.0207 0.0201, -0.014 0.0207 0.0197, -0.014 0.0164 0.0201, -0.014 0.0164 0.0197, 0.0008 0.0164 0.0201, 0.0008 0.0164 0.0197, 0.0008 0.0034 0.0201, 0.0008 0.0034 0.0197, -0.0131 0.0034 0.0201, -0.0131 0.0034 0.0197, -0.0131 -0.0009 0.0201, -0.0131 -0.0009 0.0197, 0.0008 -0.0009 0.0201, 0.0008 -0.0009 0.0197, 0.0008 -0.0144 0.0201, 0.0008 -0.0144 0.0197, 0.0138 -0.0123 0.0201, 0.0138 -0.0167 0.0201, 0.0138 -0.0123 0.0197, 0.0138 -0.0167 0.0197, 0.018 -0.0184 0.0201, 0.0246 -0.0192 0.0201, 0.0246 -0.0192 0.0197, 0.0236 -0.0192 0.0197, 0.0236 -0.0192 0.0201, 0.022 -0.0189 0.0197, 0.018 -0.0184 0.0197, 0.0269 -0.0189 0.0197, 0.0295 -0.0187 0.0201, 0.0295 -0.0187 0.0197, 0.0333 -0.0174 0.0201, 0.0333 -0.0174 0.0197, 0.0365 -0.0153 0.0201, 0.0365 -0.0153 0.0197, 0.0394 -0.0122 0.0201, 0.0394 -0.0122 0.0197, 0.0415 -0.0085 0.0201, 0.0415 -0.0085 0.0197, 0.0427 -0.0043 0.0201, 0.0427 -0.0043 0.0197, 0.0431 0.0002 0.0201, 0.0431 0.0002 0.0197, 0.0231 0.0212 0.0201, 0.0231 0.0212 0.0197, 0.027 0.0208 0.0197, 0.027 0.0208 0.0201, 0.0314 0.0196 0.0197, 0.0314 0.0196 0.0201, 0.0351 0.0174 0.0197, 0.0351 0.0174 0.0201, 0.0387 0.014 0.0197, 0.0387 0.014 0.0201, 0.041 0.0103 0.0197, 0.041 0.0103 0.0201, 0.0425 0.0058 0.0197, 0.0425 0.0058 0.0201, 0.0138 0.0196 0.0201, 0.0138 0.0196 0.0197, 0.0184 0.0208 0.0197, 0.0184 0.0208 0.0201, 0.0138 0.0143 0.0201, 0.0138 0.0143 0.0197, 0.023 0.0168 0.0201, 0.023 0.0168 0.0197, 0.0182 0.0162 0.0197, 0.0182 0.0162 0.0201, 0.0378 0.0006 0.0201, 0.0378 0.0006 0.0197, 0.0376 0.0036 0.0197, 0.0376 0.0036 0.0201, 0.0366 0.0078 0.0197, 0.0366 0.0078 0.0201, 0.0349 0.0109 0.0197, 0.0349 0.0109 0.0201, 0.0326 0.0135 0.0197, 0.0326 0.0135 0.0201, 0.0298 0.0153 0.0197, 0.0298 0.0153 0.0201, 0.0269 0.0164 0.0197, 0.0269 0.0164 0.0201, 0.0239 -0.0149 0.0201, 0.0239 -0.0149 0.0197, 0.0276 -0.0144 0.0197, 0.0276 -0.0144 0.0201, 0.0304 -0.0134 0.0197, 0.0304 -0.0134 0.0201, 0.0329 -0.0118 0.0197, 0.0329 -0.0118 0.0201, 0.0347 -0.0098 0.0197, 0.0347 -0.0098 0.0201, 0.0363 -0.0071 0.0197, 0.0363 -0.0071 0.0201, 0.0374 -0.0037 0.0197, 0.0374 -0.0037 0.0201, 0.0145 -0.0127 0.0197, 0.0145 -0.0127 0.0201, 0.0187 -0.0143 0.0197, 0.0187 -0.0143 0.0201, 0.0464 -0.0144 0.0201, 0.0464 -0.0187 0.0201, 0.0464 -0.0144 0.0197, 0.0464 -0.0187 0.0197, 0.0666 -0.0187 0.0201, 0.0666 -0.0187 0.0197, 0.0666 0.0207 0.0201, 0.0666 0.0207 0.0197, 0.0613 0.0207 0.0201, 0.0613 0.0207 0.0197, 0.0613 -0.0144 0.0201, 0.0613 -0.0144 0.0197
            ]
        }
        coordIndex [
            0,1,2,-1,2,1,3,-1,2,3,4,-1,4,3,5,-1,4,5,6,-1,6,5,7,-1,6,7,8,-1,8,7,9,-1,8,9,10,-1,10,9,11,-1,10,11,12,-1,12,11,13,-1,12,13,14,-1,14,13,15,-1,14,15,16,-1,16,15,17,-1,16,17,18,-1,18,17,19,-1,18,19,20,-1,20,19,21,-1,20,21,22,-1,22,21,23,-1,22,23,24,-1,24,23,25,-1,24,25,26,-1,26,25,27,-1,26,27,28,-1,28,27,29,-1,28,29,30,-1,30,29,31,-1,30,31,32,-1,32,31,33,-1,32,33,34,-1,34,33,35,-1,34,35,36,-1,36,35,37,-1,36,37,38,-1,38,37,39,-1,38,39,40,-1,40,39,41,-1,40,41,42,-1,42,41,43,-1,42,43,44,-1,44,43,45,-1,44,45,46,-1,46,45,47,-1,46,47,0,-1,0,47,1,-1,44,46,48,-1,48,46,0,-1,48,0,2,-1,38,40,48,-1,48,40,42,-1,48,42,44,-1,32,34,48,-1,48,34,36,-1,48,36,38,-1,26,28,48,-1,48,28,30,-1,48,30,32,-1,20,22,48,-1,48,22,24,-1,48,24,26,-1,14,16,48,-1,48,16,18,-1,48,18,20,-1,8,10,48,-1,48,10,12,-1,48,12,14,-1,2,4,48,-1,48,4,6,-1,48,6,8,-1,49,50,51,-1,51,50,52,-1,50,53,52,-1,52,53,54,-1,53,55,54,-1,54,55,56,-1,55,57,56,-1,56,57,58,-1,57,59,58,-1,58,59,60,-1,59,61,60,-1,60,61,62,-1,61,63,62,-1,62,63,64,-1,63,49,64,-1,64,49,51,-1,65,57,66,-1,66,57,55,-1,67,63,65,-1,65,63,61,-1,65,61,57,-1,57,61,59,-1,67,68,63,-1,63,68,69,-1,63,69,49,-1,49,69,70,-1,49,70,71,-1,71,72,49,-1,49,72,66,-1,49,66,50,-1,50,66,55,-1,50,55,53,-1,65,66,73,-1,73,66,74,-1,67,65,75,-1,75,65,73,-1,67,75,76,-1,67,76,68,-1,68,76,77,-1,68,77,69,-1,70,69,78,-1,78,69,77,-1,70,78,79,-1,70,79,71,-1,71,79,80,-1,71,80,72,-1,66,72,74,-1,74,72,80,-1,81,82,83,-1,83,82,84,-1,82,85,84,-1,84,85,86,-1,85,87,86,-1,86,87,88,-1,89,90,91,-1,89,91,92,-1,92,91,93,-1,92,93,94,-1,94,93,95,-1,94,95,96,-1,96,95,97,-1,96,97,98,-1,98,97,99,-1,98,99,100,-1,100,99,101,-1,100,101,102,-1,102,101,103,-1,102,103,104,-1,104,103,88,-1,104,88,87,-1,81,83,105,-1,81,105,106,-1,106,105,107,-1,106,107,108,-1,108,107,109,-1,108,109,110,-1,110,109,111,-1,110,111,112,-1,112,111,113,-1,112,113,114,-1,114,113,115,-1,114,115,116,-1,116,115,90,-1,116,90,89,-1,94,96,117,-1,117,96,98,-1,117,98,118,-1,118,98,100,-1,118,100,119,-1,119,100,102,-1,119,102,120,-1,120,102,104,-1,120,104,121,-1,121,104,87,-1,121,87,122,-1,122,87,85,-1,122,85,123,-1,123,85,82,-1,123,82,124,-1,124,82,81,-1,124,81,125,-1,125,81,106,-1,125,106,126,-1,126,106,108,-1,126,108,127,-1,127,108,110,-1,127,110,128,-1,128,110,112,-1,128,112,129,-1,129,112,114,-1,129,114,130,-1,130,114,116,-1,130,116,131,-1,131,116,89,-1,131,89,132,-1,132,89,92,-1,132,92,133,-1,133,92,94,-1,133,94,117,-1,121,122,134,-1,134,122,135,-1,121,134,136,-1,121,136,120,-1,120,136,137,-1,120,137,119,-1,119,137,138,-1,119,138,118,-1,118,138,139,-1,118,139,117,-1,117,139,140,-1,117,140,133,-1,133,140,141,-1,133,141,132,-1,132,141,142,-1,132,142,131,-1,131,142,143,-1,131,143,130,-1,130,143,144,-1,130,144,129,-1,129,144,145,-1,129,145,128,-1,128,145,146,-1,128,146,127,-1,127,146,147,-1,127,147,126,-1,126,147,148,-1,126,148,125,-1,125,148,149,-1,125,149,124,-1,123,124,150,-1,150,124,149,-1,122,123,135,-1,135,123,150,-1,151,152,153,-1,153,152,154,-1,152,155,154,-1,154,155,156,-1,155,157,156,-1,156,157,158,-1,157,159,158,-1,158,159,160,-1,159,161,160,-1,160,161,162,-1,161,163,162,-1,162,163,164,-1,163,165,164,-1,164,165,166,-1,165,167,166,-1,166,167,168,-1,167,169,168,-1,168,169,170,-1,169,171,170,-1,170,171,172,-1,171,173,172,-1,172,173,174,-1,173,151,174,-1,174,151,153,-1,155,152,151,-1,151,173,155,-1,155,173,171,-1,155,171,157,-1,161,159,163,-1,163,159,157,-1,163,157,165,-1,165,157,171,-1,165,171,167,-1,167,171,169,-1,175,176,177,-1,177,176,178,-1,178,176,179,-1,180,181,182,-1,180,182,183,-1,183,182,184,-1,183,184,179,-1,179,184,185,-1,179,185,178,-1,181,180,186,-1,186,180,187,-1,186,187,188,-1,188,187,189,-1,188,189,190,-1,190,189,191,-1,190,191,192,-1,192,191,193,-1,192,193,194,-1,194,193,195,-1,194,195,196,-1,196,195,197,-1,196,197,198,-1,198,197,199,-1,198,199,200,-1,201,202,203,-1,201,203,204,-1,204,203,205,-1,204,205,206,-1,206,205,207,-1,206,207,208,-1,208,207,209,-1,208,209,210,-1,210,209,211,-1,210,211,212,-1,212,211,213,-1,212,213,214,-1,214,213,200,-1,214,200,199,-1,215,216,217,-1,215,217,218,-1,218,217,202,-1,218,202,201,-1,215,219,216,-1,216,219,220,-1,221,222,223,-1,221,223,224,-1,224,223,220,-1,224,220,219,-1,225,226,227,-1,225,227,228,-1,228,227,229,-1,228,229,230,-1,230,229,231,-1,230,231,232,-1,232,231,233,-1,232,233,234,-1,234,233,235,-1,234,235,236,-1,236,235,237,-1,236,237,238,-1,238,237,222,-1,238,222,221,-1,239,240,241,-1,239,241,242,-1,242,241,243,-1,242,243,244,-1,244,243,245,-1,244,245,246,-1,246,245,247,-1,246,247,248,-1,248,247,249,-1,248,249,250,-1,250,249,251,-1,250,251,252,-1,252,251,226,-1,252,226,225,-1,175,177,253,-1,175,253,254,-1,254,253,255,-1,254,255,256,-1,256,255,240,-1,256,240,239,-1,242,180,239,-1,239,180,183,-1,239,183,256,-1,256,183,179,-1,256,179,254,-1,254,179,176,-1,254,176,175,-1,219,215,224,-1,224,215,218,-1,224,218,221,-1,221,218,201,-1,221,201,238,-1,238,201,204,-1,238,204,236,-1,236,204,206,-1,236,206,234,-1,234,206,208,-1,234,208,232,-1,232,208,210,-1,232,210,230,-1,230,210,212,-1,230,212,228,-1,228,212,214,-1,228,214,225,-1,225,214,199,-1,225,199,252,-1,252,199,197,-1,252,197,250,-1,250,197,195,-1,250,195,248,-1,248,195,193,-1,248,193,246,-1,246,193,191,-1,246,191,244,-1,244,191,189,-1,244,189,242,-1,242,189,187,-1,242,187,180,-1,257,258,259,-1,259,258,260,-1,258,261,260,-1,260,261,262,-1,261,263,262,-1,262,263,264,-1,263,265,264,-1,264,265,266,-1,265,267,266,-1,266,267,268,-1,267,257,268,-1,268,257,259,-1,265,263,267,-1,267,263,261,-1,267,261,257,-1,257,261,258,-1,
        ]
    }
}
Shape{
    appearance Appearance {
        material  Material 	{
            diffuseColor 0.25098039215686274 0.25098039215686274 0.25098039215686274
            specularColor 0.12549019607843137 0.12549019607843137 0.12549019607843137
            ambientIntensity 0.251
            transparency 0.0
            shininess 0.5
        }
    }
    geometry IndexedFaceSet {
        ccw TRUE
        solid FALSE
        coord DEF co Coordinate {
            point [
                -0.0681 -0.0033 0.0197, -0.0813 -0.0033 0.0197, -0.074 0.0131 0.0197, -0.0753 0.0131 0.0197, -0.0744 0.0145 0.0197, -0.075 0.0145 0.0197, -0.0746 0.0159 0.0197, -0.0747 0.0159 0.0197, -0.028 0.0164 0.0197, -0.028 -0.0144 0.0197, -0.0338 0.0164 0.0197, -0.0336 -0.0144 0.0197, -0.0377 -0.014 0.0197, -0.0491 0.0014 0.0197, -0.0488 0.0053 0.0197, -0.0478 0.0084 0.0197, -0.0384 0.0159 0.0197, -0.041 -0.013 0.0197, -0.0437 -0.0114 0.0197, -0.0459 -0.0092 0.0197, -0.0476 -0.0065 0.0197, -0.0487 -0.0028 0.0197, -0.0465 0.0108 0.0197, -0.0446 0.0129 0.0197, -0.0417 0.0147 0.0197
            ]
        }
        coordIndex [
            0,1,2,-1,2,1,3,-1,2,3,4,-1,4,3,5,-1,4,5,6,-1,6,5,7,-1,8,9,10,-1,10,9,11,-1,10,11,12,-1,13,14,10,-1,10,14,15,-1,10,15,16,-1,12,17,10,-1,10,17,18,-1,10,18,19,-1,19,20,10,-1,10,20,21,-1,10,21,13,-1,22,23,15,-1,15,23,24,-1,15,24,16,-1,
        ]
    }
}