#VRML V2.0 utf8
# 3D model generated by easyeda2kicad.py (https://github.com/uPesy/easyeda2kicad.py)

Shape{
    appearance Appearance {
        material  Material 	{
            diffuseColor 0.2235294117647059 0.2235294117647059 0.2235294117647059
            specularColor 0.11372549019607843 0.11372549019607843 0.11372549019607843
            ambientIntensity 0.2235
            transparency 0.0
            shininess 0.5
        }
    }
    geometry IndexedFaceSet {
        ccw TRUE
        solid FALSE
        coord DEF co Coordinate {
            point [
                -0.2759 2.1505 0.0079, -0.2609 2.1063 0.0079, -0.341 2.1505 0.0079, -0.3569 2.1063 0.0079, 0.0157 2.1063 0.0079, 0.0157 2.2638 0.0079, 0.0464 2.1317 0.0079, 0.0464 2.1145 0.0079, 0.0572 2.1094 0.0079, 0.0686 2.1063 0.0079, 0.3819 2.1063 0.0079, 0.2576 2.1063 0.0079, 0.2576 2.2638 0.0079, -0.065 2.2465 0.0079, -0.0055 2.2465 0.0079, -0.0055 2.1946 0.0079, 0.2365 2.2638 0.0079, -0.3819 3.0905 0.0079, 0.3819 3.0905 0.0079, -0.065 2.2638 0.0079, 0.177 2.1063 0.0079, 0.1087 2.1063 0.0079, 0.1257 2.1123 0.0079, -0.38 2.1063 0.0079, -0.3819 2.1063 0.0079, -0.3185 2.2638 0.0079, -0.2974 2.2638 0.0079, -0.0996 2.2638 0.0079, -0.0612 2.1946 0.0079, -0.0996 2.1063 0.0079, -0.0612 2.1774 0.0079, 0.0464 2.2595 0.0079, 0.0464 2.2383 0.0079, -0.0688 2.1063 0.0079, -0.0688 2.1236 0.0079, -0.0055 2.1236 0.0079, -0.0055 2.1774 0.0079, 0.0641 2.2459 0.0079, 0.0492 2.1302 0.0079, 0.0833 2.2484 0.0079, 0.0988 2.2467 0.0079, 0.1382 2.1207 0.0079, 0.1492 2.1326 0.0079, 0.177 2.1236 0.0079, -0.144 2.2638 0.0079, -0.1668 2.2613 0.0079, 0.1106 2.2424 0.0079, 0.1215 2.2351 0.0079, 0.131 2.2246 0.0079, 0.1424 2.1834 0.0079, 0.1408 2.1663 0.0079, 0.1365 2.1528 0.0079, 0.1015 2.1233 0.0079, 0.0868 2.1217 0.0079, 0.113 2.1275 0.0079, 0.1226 2.134 0.0079, 0.13 2.1418 0.0079, 0.0659 2.124 0.0079, -0.2136 2.2309 0.0079, -0.221 2.2173 0.0079, -0.1965 2.123 0.0079, -0.2379 2.1063 0.0079, -0.2094 2.1354 0.0079, -0.2185 2.1495 0.0079, 0.1375 2.2125 0.0079, 0.1417 2.1956 0.0079, 0.1552 2.2223 0.0079, 0.146 2.237 0.0079, 0.1318 2.2507 0.0079, 0.1168 2.2593 0.0079, 0.0993 2.2644 0.0079, -0.18 2.1134 0.0079, -0.1619 2.108 0.0079, -0.1424 2.1063 0.0079, 0.1574 2.1476 0.0079, 0.1621 2.1643 0.0079, 0.2365 2.1236 0.0079, 0.1635 2.1821 0.0079, 0.1613 2.2045 0.0079, -0.1852 2.2549 0.0079, -0.2023 2.2434 0.0079, -0.2025 2.2432 0.0079, 0.0834 2.2657 0.0079, 0.0646 2.2644 0.0079, -0.2252 2.2018 0.0079, -0.2263 2.187 0.0079, -0.2241 2.1659 0.0079, -2.5 2.1063 0.2047, -2.5 2.1063 0.126, -2.3819 2.1063 0.0079, 0.5 2.1063 0.126, 0.6181 2.1063 0.0079, 1.3819 2.1063 0.0079, -0.5 2.1063 0.126, 1.5 2.1063 0.126, 1.6181 2.1063 0.0079, 2.5 2.1063 0.2047, 2.3819 2.1063 0.0079, 2.5 2.1063 0.126, -1.3819 2.1063 0.0079, -0.6181 2.1063 0.0079, -1.5 2.1063 0.126, -1.6181 2.1063 0.0079, -0.3569 2.1063 0.0118, -0.2609 2.1063 0.0118, -0.38 2.1063 0.0118, -0.2379 2.1063 0.0118, -0.0996 2.1063 0.0118, -0.0688 2.1063 0.0118, 0.0157 2.1063 0.0118, -0.1424 2.1063 0.0118, 0.0686 2.1063 0.0118, 0.1087 2.1063 0.0118, 0.2576 2.1063 0.0118, 0.177 2.1063 0.0118, -1.6181 3.0905 1.9764, -2.3819 3.0905 1.9764, -1.6181 2.1063 1.9764, -2.3819 2.1063 1.9764, -1.5 3.0905 1.8583, -1.5 2.1063 1.8583, -1.6181 3.0905 0.0079, -1.5 3.0905 0.126, -2.3819 3.0905 0.0079, -2.5 3.0905 0.126, -2.5 2.2244 0.2047, -2.5 2.1063 1.7795, -2.5 2.1063 1.8583, -2.5 2.2244 1.7795, -2.5 3.0905 1.8583, -2.5 2.2244 0.9921, -2.5 3.0905 0.9921, -2.5 2.2244 0.2854, -2.5 3.0905 0.187, -0.874 3.0905 1.6181, -1.126 3.0905 1.6181, -1.3819 3.0905 1.9764, -1.5 3.0905 0.187, -1.874 3.0905 1.6181, -2.126 3.0905 1.6181, -2.126 3.0905 1.3661, -1.5 3.0905 0.9921, -1.874 3.0905 1.3661, -0.5 3.0905 0.187, -1.3819 3.0905 0.0079, 0.5 3.0905 0.126, -0.5 3.0905 0.126, 1.3819 3.0905 0.0079, 0.6181 3.0905 0.0079, 1.5 3.0905 0.187, 0.5 3.0905 0.187, -0.6181 3.0905 0.0079, 1.5 3.0905 0.126, 2.313 3.0905 0.187, 1.6181 3.0905 0.0079, 2.5 3.0905 0.126, 2.3819 3.0905 0.0079, 2.313 3.0905 0.0079, 2.313 3.0905 1.9764, 2.3819 3.0905 1.9764, 2.5 3.0905 1.8583, 1.874 3.0905 1.6181, 1.874 3.0905 1.3661, 1.5 3.0905 0.9921, 2.313 3.0905 0.9921, 2.126 3.0905 1.3661, 2.126 3.0905 1.6181, 1.6181 3.0905 1.9764, 0.874 3.0905 1.6181, 0.874 3.0905 1.3661, 0.5 3.0905 0.9921, 1.126 3.0905 1.3661, 1.126 3.0905 1.6181, 1.5 3.0905 1.8583, 1.3819 3.0905 1.9764, 0.6181 3.0905 1.9764, -0.126 3.0905 1.6181, -0.126 3.0905 1.3661, -0.5 3.0905 0.9921, 0.126 3.0905 1.3661, 0.126 3.0905 1.6181, 0.5 3.0905 1.8583, 0.3819 3.0905 1.9764, -0.3819 3.0905 1.9764, -1.126 3.0905 1.3661, -0.874 3.0905 1.3661, -0.5 3.0905 1.8583, -0.6181 3.0905 1.9764, -1.874 3.0905 0.6181, -1.874 3.0905 0.3661, -2.126 3.0905 0.3661, -2.126 3.0905 0.6181, -0.874 3.0905 0.6181, -0.874 3.0905 0.3661, -1.126 3.0905 0.3661, -1.126 3.0905 0.6181, 0.126 3.0905 0.6181, 0.126 3.0905 0.3661, -0.126 3.0905 0.3661, -0.126 3.0905 0.6181, 1.126 3.0905 0.6181, 1.126 3.0905 0.3661, 0.874 3.0905 0.3661, 0.874 3.0905 0.6181, 2.126 3.0905 0.6181, 2.126 3.0905 0.3661, 1.874 3.0905 0.3661, 1.874 3.0905 0.6181, 2.5 3.0905 0.9921, 2.5 3.0905 0.187, 1.3819 2.1063 1.9764, 0.6181 2.1063 1.9764, 1.5 2.1063 1.8583, 0.5 2.1063 1.8583, 2.3819 2.1063 1.9764, 1.6181 2.1063 1.9764, 2.5 2.1063 1.8583, 2.5 2.1063 1.7795, -0.6181 2.1063 1.9764, -1.3819 2.1063 1.9764, -0.5 2.1063 1.8583, 0.3819 2.1063 1.9764, -0.3819 2.1063 1.9764, 2.5 2.2244 0.2047, 2.5 2.2244 1.7795, 2.5 2.2244 0.2854, 2.5 2.2244 0.9921, -0.5 2.2244 0.2047, 0.5 2.2244 0.2047, 1.5 2.2244 0.2047, -1.5 2.2244 0.2047, -2.313 2.2244 0.2047, -2.313 2.2244 0.2854, -2.313 2.2244 0.9921, -2.313 2.2244 1.7795, -1.874 2.2244 1.6181, -1.5 2.2244 1.7795, -2.126 2.2244 1.6181, -2.126 2.2244 1.3661, -1.874 2.2244 1.3661, -1.5 2.2244 0.9921, -1.874 2.2244 0.6181, -2.126 2.2244 0.6181, -2.126 2.2244 0.3661, -1.874 2.2244 0.3661, -1.5 2.2244 0.2854, -0.874 2.2244 1.6181, -0.5 2.2244 1.7795, -1.126 2.2244 1.6181, -1.126 2.2244 1.3661, -0.874 2.2244 1.3661, -0.5 2.2244 0.9921, -0.874 2.2244 0.6181, -1.126 2.2244 0.6181, -1.126 2.2244 0.3661, -0.874 2.2244 0.3661, -0.5 2.2244 0.2854, 0.126 2.2244 1.6181, 0.5 2.2244 1.7795, -0.126 2.2244 1.6181, -0.126 2.2244 1.3661, 0.126 2.2244 1.3661, 0.5 2.2244 0.9921, 0.126 2.2244 0.6181, -0.126 2.2244 0.6181, -0.126 2.2244 0.3661, 0.126 2.2244 0.3661, 0.5 2.2244 0.2854, 1.126 2.2244 1.6181, 1.5 2.2244 1.7795, 0.874 2.2244 1.6181, 0.874 2.2244 1.3661, 1.126 2.2244 1.3661, 1.5 2.2244 0.9921, 1.126 2.2244 0.6181, 0.874 2.2244 0.6181, 0.874 2.2244 0.3661, 1.126 2.2244 0.3661, 1.5 2.2244 0.2854, 2.126 2.2244 1.6181, 1.874 2.2244 1.6181, 1.874 2.2244 1.3661, 2.126 2.2244 1.3661, 2.126 2.2244 0.6181, 1.874 2.2244 0.6181, 1.874 2.2244 0.3661, 2.126 2.2244 0.3661
            ]
        }
        coordIndex [
            0,1,2,-1,2,1,3,-1,4,5,6,-1,6,7,4,-1,4,7,8,-1,4,8,9,-1,10,11,12,-1,13,14,15,-1,16,17,12,-1,12,17,18,-1,12,18,10,-1,17,19,13,-1,20,21,22,-1,23,24,25,-1,25,24,17,-1,25,17,26,-1,27,28,29,-1,29,28,30,-1,17,31,32,-1,33,29,34,-1,34,29,30,-1,34,30,35,-1,35,30,36,-1,19,17,5,-1,5,17,32,-1,5,32,6,-1,6,32,37,-1,6,37,38,-1,38,37,39,-1,38,39,40,-1,22,41,20,-1,20,41,42,-1,20,42,43,-1,15,28,13,-1,13,28,27,-1,13,27,17,-1,17,27,44,-1,17,44,45,-1,40,46,38,-1,38,46,47,-1,38,47,48,-1,49,50,38,-1,38,50,51,-1,52,53,54,-1,54,53,55,-1,51,56,38,-1,38,56,55,-1,38,55,57,-1,57,55,53,-1,26,58,59,-1,60,61,62,-1,62,61,63,-1,48,64,38,-1,38,64,65,-1,38,65,49,-1,66,67,16,-1,16,67,68,-1,16,68,17,-1,17,68,69,-1,17,69,70,-1,60,71,61,-1,61,71,72,-1,61,72,73,-1,42,74,43,-1,43,74,75,-1,43,75,76,-1,76,75,77,-1,76,77,16,-1,16,77,78,-1,16,78,66,-1,45,79,17,-1,17,79,80,-1,17,80,26,-1,26,80,81,-1,26,81,58,-1,70,82,17,-1,17,82,83,-1,17,83,31,-1,59,84,26,-1,26,84,85,-1,26,85,61,-1,61,85,86,-1,61,86,63,-1,87,88,89,-1,90,91,92,-1,93,24,23,-1,94,95,96,-1,96,95,97,-1,96,97,98,-1,99,100,101,-1,101,100,93,-1,92,94,90,-1,90,94,96,-1,90,96,93,-1,93,96,87,-1,93,87,101,-1,101,87,89,-1,101,89,102,-1,3,1,103,-1,103,1,104,-1,23,105,93,-1,93,105,103,-1,93,103,90,-1,90,103,104,-1,90,104,106,-1,107,29,33,-1,108,109,90,-1,33,108,107,-1,107,108,90,-1,107,90,110,-1,110,90,106,-1,110,106,73,-1,73,106,61,-1,4,9,109,-1,109,9,111,-1,109,111,90,-1,90,111,112,-1,11,10,113,-1,113,10,90,-1,113,90,114,-1,114,90,112,-1,114,112,20,-1,20,112,21,-1,115,116,117,-1,117,116,118,-1,119,115,120,-1,120,115,117,-1,121,122,102,-1,102,122,101,-1,123,121,89,-1,89,121,102,-1,124,123,88,-1,88,123,89,-1,88,87,125,-1,126,127,128,-1,128,127,129,-1,128,129,130,-1,130,129,131,-1,130,131,132,-1,132,131,133,-1,132,133,125,-1,125,133,124,-1,125,124,88,-1,116,129,118,-1,118,129,127,-1,134,135,136,-1,124,133,137,-1,138,139,116,-1,131,129,116,-1,116,139,131,-1,131,139,140,-1,131,140,141,-1,141,140,142,-1,141,142,138,-1,121,123,122,-1,122,123,124,-1,124,137,122,-1,122,137,143,-1,122,143,144,-1,18,17,145,-1,145,17,146,-1,147,148,149,-1,149,148,145,-1,149,145,150,-1,150,145,146,-1,150,146,143,-1,143,146,151,-1,143,151,144,-1,147,149,152,-1,152,149,153,-1,152,153,154,-1,155,156,153,-1,153,156,157,-1,153,157,154,-1,158,159,160,-1,161,162,163,-1,163,162,164,-1,164,162,165,-1,164,165,158,-1,158,165,166,-1,158,166,167,-1,168,169,170,-1,170,169,163,-1,163,169,171,-1,163,171,172,-1,166,161,167,-1,167,161,163,-1,167,163,173,-1,173,163,172,-1,173,172,174,-1,174,172,175,-1,176,177,178,-1,178,177,170,-1,170,177,179,-1,170,179,180,-1,172,168,175,-1,175,168,170,-1,175,170,181,-1,181,170,180,-1,181,180,182,-1,182,180,183,-1,116,115,138,-1,138,115,119,-1,138,119,141,-1,141,119,136,-1,136,135,141,-1,141,135,184,-1,141,184,178,-1,178,184,185,-1,178,185,134,-1,180,176,183,-1,183,176,178,-1,183,178,186,-1,186,178,134,-1,186,134,187,-1,187,134,136,-1,188,141,189,-1,189,141,137,-1,189,137,190,-1,190,137,133,-1,190,133,191,-1,191,133,131,-1,191,131,188,-1,188,131,141,-1,192,178,193,-1,193,178,143,-1,193,143,194,-1,194,143,137,-1,194,137,195,-1,195,137,141,-1,195,141,192,-1,192,141,178,-1,196,170,197,-1,197,170,150,-1,197,150,198,-1,198,150,143,-1,198,143,199,-1,199,143,178,-1,199,178,196,-1,196,178,170,-1,200,163,201,-1,201,163,149,-1,201,149,202,-1,202,149,150,-1,202,150,203,-1,203,150,170,-1,203,170,200,-1,200,170,163,-1,204,164,205,-1,205,164,153,-1,205,153,206,-1,206,153,149,-1,206,149,207,-1,207,149,163,-1,207,163,204,-1,204,163,164,-1,158,160,164,-1,164,160,208,-1,164,208,153,-1,153,208,209,-1,153,209,155,-1,118,127,126,-1,210,211,212,-1,212,211,213,-1,214,215,216,-1,216,215,212,-1,216,212,217,-1,217,212,213,-1,217,213,126,-1,118,126,117,-1,218,219,220,-1,220,219,120,-1,221,222,213,-1,213,222,220,-1,213,220,126,-1,126,220,120,-1,126,120,117,-1,187,136,218,-1,218,136,219,-1,186,187,220,-1,220,187,218,-1,151,146,100,-1,100,146,93,-1,144,151,99,-1,99,151,100,-1,122,144,101,-1,101,144,99,-1,136,119,219,-1,219,119,120,-1,182,183,221,-1,221,183,222,-1,181,182,213,-1,213,182,221,-1,18,145,10,-1,10,145,90,-1,146,17,93,-1,93,17,24,-1,183,186,222,-1,222,186,220,-1,174,175,210,-1,210,175,211,-1,175,181,211,-1,211,181,213,-1,145,148,90,-1,90,148,91,-1,148,147,91,-1,91,147,92,-1,147,152,92,-1,92,152,94,-1,173,174,212,-1,212,174,210,-1,167,215,158,-1,158,215,214,-1,158,214,159,-1,167,173,215,-1,215,173,212,-1,152,154,94,-1,94,154,95,-1,156,97,157,-1,157,97,95,-1,157,95,154,-1,156,155,97,-1,97,155,98,-1,223,96,98,-1,208,160,224,-1,224,160,216,-1,224,216,217,-1,98,155,223,-1,223,155,209,-1,223,209,225,-1,225,209,208,-1,225,208,226,-1,226,208,224,-1,160,159,216,-1,216,159,214,-1,227,87,228,-1,228,87,96,-1,228,96,229,-1,229,96,223,-1,227,230,87,-1,87,230,231,-1,87,231,125,-1,132,125,231,-1,132,232,130,-1,130,232,233,-1,130,233,128,-1,128,233,234,-1,235,236,237,-1,237,236,234,-1,237,234,238,-1,238,234,233,-1,238,233,239,-1,239,233,240,-1,239,240,235,-1,235,240,236,-1,241,240,242,-1,242,240,233,-1,242,233,243,-1,243,233,232,-1,243,232,244,-1,244,232,245,-1,244,245,241,-1,241,245,240,-1,246,247,248,-1,248,247,236,-1,248,236,249,-1,249,236,240,-1,249,240,250,-1,250,240,251,-1,250,251,246,-1,246,251,247,-1,252,251,253,-1,253,251,240,-1,253,240,254,-1,254,240,245,-1,254,245,255,-1,255,245,256,-1,255,256,252,-1,252,256,251,-1,257,258,259,-1,259,258,247,-1,259,247,260,-1,260,247,251,-1,260,251,261,-1,261,251,262,-1,261,262,257,-1,257,262,258,-1,263,262,264,-1,264,262,251,-1,264,251,265,-1,265,251,256,-1,265,256,266,-1,266,256,267,-1,266,267,263,-1,263,267,262,-1,268,269,270,-1,270,269,258,-1,270,258,271,-1,271,258,262,-1,271,262,272,-1,272,262,273,-1,272,273,268,-1,268,273,269,-1,274,273,275,-1,275,273,262,-1,275,262,276,-1,276,262,267,-1,276,267,277,-1,277,267,278,-1,277,278,274,-1,274,278,273,-1,279,224,280,-1,280,224,269,-1,280,269,281,-1,281,269,273,-1,281,273,282,-1,282,273,226,-1,282,226,279,-1,279,226,224,-1,283,226,284,-1,284,226,273,-1,284,273,285,-1,285,273,278,-1,285,278,286,-1,286,278,225,-1,286,225,283,-1,283,225,226,-1,132,231,232,-1,232,231,230,-1,232,230,245,-1,245,230,227,-1,245,227,256,-1,256,227,228,-1,256,228,267,-1,267,228,229,-1,267,229,278,-1,278,229,223,-1,278,223,225,-1,269,224,217,-1,126,128,234,-1,234,236,126,-1,126,236,247,-1,126,247,217,-1,217,247,258,-1,217,258,269,-1,
        ]
    }
}
Shape{
    appearance Appearance {
        material  Material 	{
            diffuseColor 1.0 1.0 0.0
            specularColor 0.5019607843137255 0.5019607843137255 0.0
            ambientIntensity 0.886
            transparency 0.0
            shininess 0.5
        }
    }
    geometry IndexedFaceSet {
        ccw TRUE
        solid FALSE
        coord DEF co Coordinate {
            point [
                -0.126 1.9094 0.3661, 0.126 1.9094 0.3661, -0.126 1.8993 0.3648, 0.126 1.8993 0.3648, -0.126 1.8898 0.3609, 0.126 1.8898 0.3609, -0.126 1.3185 0.0316, 0.126 1.3185 0.0316, 0.126 1.2616 0.008, -0.126 1.2616 0.008, 0.126 1.2006 0.0, -0.126 1.2006 0.0, -0.126 0.752 0.0, 0.126 0.752 0.0, 0.0732 0.5551 0.0527, 0.0732 0.5551 0.1992, -0.0732 0.5551 0.0527, -0.0732 0.5551 0.1992, 0.126 0.752 0.252, 0.126 1.1963 0.252, -0.126 0.752 0.252, -0.126 1.1963 0.252, -0.126 1.7639 0.5792, 0.126 1.7639 0.5792, 0.126 1.8341 0.6082, -0.126 1.8341 0.6082, 0.126 1.9094 0.6181, -0.126 1.9094 0.6181, 0.126 2.2244 0.3661, 0.126 2.2244 0.6181, -0.126 2.2244 0.6181, -0.126 2.2244 0.3661, -0.126 5.2559 0.6181, -0.126 3.0905 0.6181, 0.126 5.2559 0.6181, 0.126 3.0905 0.6181, 0.0732 5.4528 0.5654, 0.0732 5.4528 0.4189, -0.0732 5.4528 0.5654, -0.0732 5.4528 0.4189, 0.126 5.2559 0.3661, 0.126 3.0905 0.3661, -0.126 5.2559 0.3661, -0.126 3.0905 0.3661, -0.126 0.7452 1.3661, 0.126 0.7452 1.3661, -0.126 0.7373 1.3653, 0.126 0.7373 1.3653, -0.126 0.7297 1.363, 0.126 0.7297 1.363, -0.126 0.7227 1.3591, 0.126 0.7227 1.3591, -0.126 0.7167 1.3539, 0.126 0.7167 1.3539, -0.126 -0.501 0.0734, 0.126 -0.501 0.0734, 0.126 -0.5373 0.0423, -0.126 -0.5373 0.0423, 0.126 -0.5791 0.0191, -0.126 -0.5791 0.0191, 0.126 -0.6247 0.0048, -0.126 -0.6247 0.0048, 0.126 -0.6722 0.0, -0.126 -0.6722 0.0, -0.126 -1.0827 0.0, 0.126 -1.0827 0.0, 0.0732 -1.2795 0.0527, 0.0732 -1.2795 0.1992, -0.0732 -1.2795 0.0527, -0.0732 -1.2795 0.1992, 0.126 -1.0827 0.252, 0.126 -0.679 0.252, -0.126 -1.0827 0.252, -0.126 -0.679 0.252, -0.126 0.5341 1.5275, 0.126 0.5341 1.5275, 0.126 0.5788 1.5659, -0.126 0.5788 1.5659, 0.126 0.6304 1.5945, -0.126 0.6304 1.5945, 0.126 0.6866 1.6121, -0.126 0.6866 1.6121, 0.126 0.7452 1.6181, -0.126 0.7452 1.6181, 0.126 2.2244 1.3661, 0.126 2.2244 1.6181, -0.126 2.2244 1.6181, -0.126 2.2244 1.3661, -0.126 5.2559 1.6181, -0.126 3.0905 1.6181, 0.126 5.2559 1.6181, 0.126 3.0905 1.6181, 0.0732 5.4528 1.5654, 0.0732 5.4528 1.4189, -0.0732 5.4528 1.5654, -0.0732 5.4528 1.4189, 0.126 5.2559 1.3661, 0.126 3.0905 1.3661, -0.126 5.2559 1.3661, -0.126 3.0905 1.3661, -1.126 1.9094 0.3661, -0.874 1.9094 0.3661, -1.126 1.8993 0.3648, -0.874 1.8993 0.3648, -1.126 1.8898 0.3609, -0.874 1.8898 0.3609, -1.126 1.3185 0.0316, -0.874 1.3185 0.0316, -0.874 1.2616 0.008, -1.126 1.2616 0.008, -0.874 1.2006 0.0, -1.126 1.2006 0.0, -1.126 0.752 0.0, -0.874 0.752 0.0, -0.9268 0.5551 0.0527, -0.9268 0.5551 0.1992, -1.0732 0.5551 0.0527, -1.0732 0.5551 0.1992, -0.874 0.752 0.252, -0.874 1.1963 0.252, -1.126 0.752 0.252, -1.126 1.1963 0.252, -1.126 1.7639 0.5792, -0.874 1.7639 0.5792, -0.874 1.8341 0.6082, -1.126 1.8341 0.6082, -0.874 1.9094 0.6181, -1.126 1.9094 0.6181, -0.874 2.2244 0.3661, -0.874 2.2244 0.6181, -1.126 2.2244 0.6181, -1.126 2.2244 0.3661, -1.126 5.2559 0.6181, -1.126 3.0905 0.6181, -0.874 5.2559 0.6181, -0.874 3.0905 0.6181, -0.9268 5.4528 0.5654, -0.9268 5.4528 0.4189, -1.0732 5.4528 0.5654, -1.0732 5.4528 0.4189, -0.874 5.2559 0.3661, -0.874 3.0905 0.3661, -1.126 5.2559 0.3661, -1.126 3.0905 0.3661, -2.126 1.9094 0.3661, -1.874 1.9094 0.3661, -2.126 1.8993 0.3648, -1.874 1.8993 0.3648, -2.126 1.8898 0.3609, -1.874 1.8898 0.3609, -2.126 1.3185 0.0316, -1.874 1.3185 0.0316, -1.874 1.2616 0.008, -2.126 1.2616 0.008, -1.874 1.2006 0.0, -2.126 1.2006 0.0, -2.126 0.752 0.0, -1.874 0.752 0.0, -1.9268 0.5551 0.0527, -1.9268 0.5551 0.1992, -2.0732 0.5551 0.0527, -2.0732 0.5551 0.1992, -1.874 0.752 0.252, -1.874 1.1963 0.252, -2.126 0.752 0.252, -2.126 1.1963 0.252, -2.126 1.7639 0.5792, -1.874 1.7639 0.5792, -1.874 1.8341 0.6082, -2.126 1.8341 0.6082, -1.874 1.9094 0.6181, -2.126 1.9094 0.6181, -1.874 2.2244 0.3661, -1.874 2.2244 0.6181, -2.126 2.2244 0.6181, -2.126 2.2244 0.3661, -2.126 5.2559 0.6181, -2.126 3.0905 0.6181, -1.874 5.2559 0.6181, -1.874 3.0905 0.6181, -1.9268 5.4528 0.5654, -1.9268 5.4528 0.4189, -2.0732 5.4528 0.5654, -2.0732 5.4528 0.4189, -1.874 5.2559 0.3661, -1.874 3.0905 0.3661, -2.126 5.2559 0.3661, -2.126 3.0905 0.3661, 0.874 1.9094 0.3661, 1.126 1.9094 0.3661, 0.874 1.8993 0.3648, 1.126 1.8993 0.3648, 0.874 1.8898 0.3609, 1.126 1.8898 0.3609, 0.874 1.3185 0.0316, 1.126 1.3185 0.0316, 1.126 1.2616 0.008, 0.874 1.2616 0.008, 1.126 1.2006 0.0, 0.874 1.2006 0.0, 0.874 0.752 0.0, 1.126 0.752 0.0, 1.0732 0.5551 0.0527, 1.0732 0.5551 0.1992, 0.9268 0.5551 0.0527, 0.9268 0.5551 0.1992, 1.126 0.752 0.252, 1.126 1.1963 0.252, 0.874 0.752 0.252, 0.874 1.1963 0.252, 0.874 1.7639 0.5792, 1.126 1.7639 0.5792, 1.126 1.8341 0.6082, 0.874 1.8341 0.6082, 1.126 1.9094 0.6181, 0.874 1.9094 0.6181, 1.126 2.2244 0.3661, 1.126 2.2244 0.6181, 0.874 2.2244 0.6181, 0.874 2.2244 0.3661, 0.874 5.2559 0.6181, 0.874 3.0905 0.6181, 1.126 5.2559 0.6181, 1.126 3.0905 0.6181, 1.0732 5.4528 0.5654, 1.0732 5.4528 0.4189, 0.9268 5.4528 0.5654, 0.9268 5.4528 0.4189, 1.126 5.2559 0.3661, 1.126 3.0905 0.3661, 0.874 5.2559 0.3661, 0.874 3.0905 0.3661, 1.874 1.9094 0.3661, 2.126 1.9094 0.3661, 1.874 1.8993 0.3648, 2.126 1.8993 0.3648, 1.874 1.8898 0.3609, 2.126 1.8898 0.3609, 1.874 1.3185 0.0316, 2.126 1.3185 0.0316, 2.126 1.2616 0.008, 1.874 1.2616 0.008, 2.126 1.2006 0.0, 1.874 1.2006 0.0, 1.874 0.752 0.0, 2.126 0.752 0.0, 2.0732 0.5551 0.0527, 2.0732 0.5551 0.1992, 1.9268 0.5551 0.0527, 1.9268 0.5551 0.1992, 2.126 0.752 0.252, 2.126 1.1963 0.252, 1.874 0.752 0.252, 1.874 1.1963 0.252, 1.874 1.7639 0.5792, 2.126 1.7639 0.5792, 2.126 1.8341 0.6082, 1.874 1.8341 0.6082, 2.126 1.9094 0.6181, 1.874 1.9094 0.6181, 2.126 2.2244 0.3661, 2.126 2.2244 0.6181, 1.874 2.2244 0.6181, 1.874 2.2244 0.3661, 1.874 5.2559 0.6181, 1.874 3.0905 0.6181, 2.126 5.2559 0.6181, 2.126 3.0905 0.6181, 2.0732 5.4528 0.5654, 2.0732 5.4528 0.4189, 1.9268 5.4528 0.5654, 1.9268 5.4528 0.4189, 2.126 5.2559 0.3661, 2.126 3.0905 0.3661, 1.874 5.2559 0.3661, 1.874 3.0905 0.3661, -1.126 0.7452 1.3661, -0.874 0.7452 1.3661, -1.126 0.7373 1.3653, -0.874 0.7373 1.3653, -1.126 0.7297 1.363, -0.874 0.7297 1.363, -1.126 0.7227 1.3591, -0.874 0.7227 1.3591, -1.126 0.7167 1.3539, -0.874 0.7167 1.3539, -1.126 -0.501 0.0734, -0.874 -0.501 0.0734, -0.874 -0.5373 0.0423, -1.126 -0.5373 0.0423, -0.874 -0.5791 0.0191, -1.126 -0.5791 0.0191, -0.874 -0.6247 0.0048, -1.126 -0.6247 0.0048, -0.874 -0.6722 0.0, -1.126 -0.6722 0.0, -1.126 -1.0827 0.0, -0.874 -1.0827 0.0, -0.9268 -1.2795 0.0527, -0.9268 -1.2795 0.1992, -1.0732 -1.2795 0.0527, -1.0732 -1.2795 0.1992, -0.874 -1.0827 0.252, -0.874 -0.679 0.252, -1.126 -1.0827 0.252, -1.126 -0.679 0.252, -1.126 0.5341 1.5275, -0.874 0.5341 1.5275, -0.874 0.5788 1.5659, -1.126 0.5788 1.5659, -0.874 0.6304 1.5945, -1.126 0.6304 1.5945, -0.874 0.6866 1.6121, -1.126 0.6866 1.6121, -0.874 0.7452 1.6181, -1.126 0.7452 1.6181, -0.874 2.2244 1.3661, -0.874 2.2244 1.6181, -1.126 2.2244 1.6181, -1.126 2.2244 1.3661, -1.126 5.2559 1.6181, -1.126 3.0905 1.6181, -0.874 5.2559 1.6181, -0.874 3.0905 1.6181, -0.9268 5.4528 1.5654, -0.9268 5.4528 1.4189, -1.0732 5.4528 1.5654, -1.0732 5.4528 1.4189, -0.874 5.2559 1.3661, -0.874 3.0905 1.3661, -1.126 5.2559 1.3661, -1.126 3.0905 1.3661, -2.126 0.7452 1.3661, -1.874 0.7452 1.3661, -2.126 0.7373 1.3653, -1.874 0.7373 1.3653, -2.126 0.7297 1.363, -1.874 0.7297 1.363, -2.126 0.7227 1.3591, -1.874 0.7227 1.3591, -2.126 0.7167 1.3539, -1.874 0.7167 1.3539, -2.126 -0.501 0.0734, -1.874 -0.501 0.0734, -1.874 -0.5373 0.0423, -2.126 -0.5373 0.0423, -1.874 -0.5791 0.0191, -2.126 -0.5791 0.0191, -1.874 -0.6247 0.0048, -2.126 -0.6247 0.0048, -1.874 -0.6722 0.0, -2.126 -0.6722 0.0, -2.126 -1.0827 0.0, -1.874 -1.0827 0.0, -1.9268 -1.2795 0.0527, -1.9268 -1.2795 0.1992, -2.0732 -1.2795 0.0527, -2.0732 -1.2795 0.1992, -1.874 -1.0827 0.252, -1.874 -0.679 0.252, -2.126 -1.0827 0.252, -2.126 -0.679 0.252, -2.126 0.5341 1.5275, -1.874 0.5341 1.5275, -1.874 0.5788 1.5659, -2.126 0.5788 1.5659, -1.874 0.6304 1.5945, -2.126 0.6304 1.5945, -1.874 0.6866 1.6121, -2.126 0.6866 1.6121, -1.874 0.7452 1.6181, -2.126 0.7452 1.6181, -1.874 2.2244 1.3661, -1.874 2.2244 1.6181, -2.126 2.2244 1.6181, -2.126 2.2244 1.3661, -2.126 5.2559 1.6181, -2.126 3.0905 1.6181, -1.874 5.2559 1.6181, -1.874 3.0905 1.6181, -1.9268 5.4528 1.5654, -1.9268 5.4528 1.4189, -2.0732 5.4528 1.5654, -2.0732 5.4528 1.4189, -1.874 5.2559 1.3661, -1.874 3.0905 1.3661, -2.126 5.2559 1.3661, -2.126 3.0905 1.3661, 0.874 0.7452 1.3661, 1.126 0.7452 1.3661, 0.874 0.7373 1.3653, 1.126 0.7373 1.3653, 0.874 0.7297 1.363, 1.126 0.7297 1.363, 0.874 0.7227 1.3591, 1.126 0.7227 1.3591, 0.874 0.7167 1.3539, 1.126 0.7167 1.3539, 0.874 -0.501 0.0734, 1.126 -0.501 0.0734, 1.126 -0.5373 0.0423, 0.874 -0.5373 0.0423, 1.126 -0.5791 0.0191, 0.874 -0.5791 0.0191, 1.126 -0.6247 0.0048, 0.874 -0.6247 0.0048, 1.126 -0.6722 0.0, 0.874 -0.6722 0.0, 0.874 -1.0827 0.0, 1.126 -1.0827 0.0, 1.0732 -1.2795 0.0527, 1.0732 -1.2795 0.1992, 0.9268 -1.2795 0.0527, 0.9268 -1.2795 0.1992, 1.126 -1.0827 0.252, 1.126 -0.679 0.252, 0.874 -1.0827 0.252, 0.874 -0.679 0.252, 0.874 0.5341 1.5275, 1.126 0.5341 1.5275, 1.126 0.5788 1.5659, 0.874 0.5788 1.5659, 1.126 0.6304 1.5945, 0.874 0.6304 1.5945, 1.126 0.6866 1.6121, 0.874 0.6866 1.6121, 1.126 0.7452 1.6181, 0.874 0.7452 1.6181, 1.126 2.2244 1.3661, 1.126 2.2244 1.6181, 0.874 2.2244 1.6181, 0.874 2.2244 1.3661, 0.874 5.2559 1.6181, 0.874 3.0905 1.6181, 1.126 5.2559 1.6181, 1.126 3.0905 1.6181, 1.0732 5.4528 1.5654, 1.0732 5.4528 1.4189, 0.9268 5.4528 1.5654, 0.9268 5.4528 1.4189, 1.126 5.2559 1.3661, 1.126 3.0905 1.3661, 0.874 5.2559 1.3661, 0.874 3.0905 1.3661, 1.874 0.7452 1.3661, 2.126 0.7452 1.3661, 1.874 0.7373 1.3653, 2.126 0.7373 1.3653, 1.874 0.7297 1.363, 2.126 0.7297 1.363, 1.874 0.7227 1.3591, 2.126 0.7227 1.3591, 1.874 0.7167 1.3539, 2.126 0.7167 1.3539, 1.874 -0.501 0.0734, 2.126 -0.501 0.0734, 2.126 -0.5373 0.0423, 1.874 -0.5373 0.0423, 2.126 -0.5791 0.0191, 1.874 -0.5791 0.0191, 2.126 -0.6247 0.0048, 1.874 -0.6247 0.0048, 2.126 -0.6722 0.0, 1.874 -0.6722 0.0, 1.874 -1.0827 0.0, 2.126 -1.0827 0.0, 2.0732 -1.2795 0.0527, 2.0732 -1.2795 0.1992, 1.9268 -1.2795 0.0527, 1.9268 -1.2795 0.1992, 2.126 -1.0827 0.252, 2.126 -0.679 0.252, 1.874 -1.0827 0.252, 1.874 -0.679 0.252, 1.874 0.5341 1.5275, 2.126 0.5341 1.5275, 2.126 0.5788 1.5659, 1.874 0.5788 1.5659, 2.126 0.6304 1.5945, 1.874 0.6304 1.5945, 2.126 0.6866 1.6121, 1.874 0.6866 1.6121, 2.126 0.7452 1.6181, 1.874 0.7452 1.6181, 2.126 2.2244 1.3661, 2.126 2.2244 1.6181, 1.874 2.2244 1.6181, 1.874 2.2244 1.3661, 1.874 5.2559 1.6181, 1.874 3.0905 1.6181, 2.126 5.2559 1.6181, 2.126 3.0905 1.6181, 2.0732 5.4528 1.5654, 2.0732 5.4528 1.4189, 1.9268 5.4528 1.5654, 1.9268 5.4528 1.4189, 2.126 5.2559 1.3661, 2.126 3.0905 1.3661, 1.874 5.2559 1.3661, 1.874 3.0905 1.3661
            ]
        }
        coordIndex [
            0,1,2,-1,2,1,3,-1,2,3,4,-1,4,3,5,-1,6,4,7,-1,7,4,5,-1,6,7,8,-1,6,8,9,-1,9,8,10,-1,9,10,11,-1,12,11,13,-1,13,11,10,-1,14,15,16,-1,16,15,17,-1,18,19,20,-1,20,19,21,-1,22,21,23,-1,23,21,19,-1,22,23,24,-1,22,24,25,-1,25,24,26,-1,25,26,27,-1,13,10,18,-1,18,10,19,-1,28,29,1,-1,1,29,26,-1,1,26,3,-1,3,26,24,-1,3,24,5,-1,5,24,23,-1,5,23,7,-1,7,23,19,-1,7,19,8,-1,8,19,10,-1,12,20,11,-1,11,20,21,-1,30,31,27,-1,27,31,0,-1,27,0,25,-1,25,0,2,-1,25,2,22,-1,2,4,22,-1,22,4,6,-1,22,6,21,-1,21,6,9,-1,21,9,11,-1,28,1,31,-1,31,1,0,-1,27,26,30,-1,30,26,29,-1,32,33,34,-1,34,33,35,-1,36,37,38,-1,38,37,39,-1,40,41,42,-1,42,41,43,-1,42,43,32,-1,32,43,33,-1,34,35,40,-1,40,35,41,-1,44,45,46,-1,46,45,47,-1,46,47,48,-1,48,47,49,-1,48,49,50,-1,50,49,51,-1,50,51,52,-1,52,51,53,-1,54,52,55,-1,55,52,53,-1,54,55,56,-1,54,56,57,-1,57,56,58,-1,57,58,59,-1,59,58,60,-1,59,60,61,-1,61,60,62,-1,61,62,63,-1,64,63,65,-1,65,63,62,-1,66,67,68,-1,68,67,69,-1,70,71,72,-1,72,71,73,-1,74,73,75,-1,75,73,71,-1,74,75,76,-1,74,76,77,-1,77,76,78,-1,77,78,79,-1,79,78,80,-1,79,80,81,-1,81,80,82,-1,81,82,83,-1,71,70,65,-1,65,62,71,-1,71,62,60,-1,71,60,58,-1,84,85,45,-1,45,85,82,-1,45,82,47,-1,47,82,80,-1,47,80,49,-1,49,80,78,-1,49,78,51,-1,51,78,76,-1,51,76,53,-1,53,76,75,-1,53,75,55,-1,55,75,71,-1,55,71,56,-1,56,71,58,-1,57,59,73,-1,64,72,63,-1,63,72,73,-1,63,73,61,-1,61,73,59,-1,86,87,83,-1,83,87,44,-1,83,44,81,-1,81,44,46,-1,81,46,79,-1,79,46,48,-1,79,48,77,-1,77,48,50,-1,77,50,74,-1,74,50,52,-1,74,52,73,-1,73,52,54,-1,73,54,57,-1,84,45,87,-1,87,45,44,-1,83,82,86,-1,86,82,85,-1,88,89,90,-1,90,89,91,-1,92,93,94,-1,94,93,95,-1,96,97,98,-1,98,97,99,-1,98,99,88,-1,88,99,89,-1,90,91,96,-1,96,91,97,-1,42,39,40,-1,40,39,37,-1,32,38,42,-1,42,38,39,-1,36,34,37,-1,37,34,40,-1,34,36,32,-1,32,36,38,-1,20,17,18,-1,18,17,15,-1,12,16,20,-1,20,16,17,-1,14,13,15,-1,15,13,18,-1,13,14,12,-1,12,14,16,-1,98,95,96,-1,96,95,93,-1,88,94,98,-1,98,94,95,-1,92,90,93,-1,93,90,96,-1,90,92,88,-1,88,92,94,-1,72,69,70,-1,70,69,67,-1,64,68,72,-1,72,68,69,-1,66,65,67,-1,67,65,70,-1,65,66,64,-1,64,66,68,-1,100,101,102,-1,102,101,103,-1,102,103,104,-1,104,103,105,-1,106,104,107,-1,107,104,105,-1,106,107,108,-1,106,108,109,-1,109,108,110,-1,109,110,111,-1,112,111,113,-1,113,111,110,-1,114,115,116,-1,116,115,117,-1,118,119,120,-1,120,119,121,-1,122,121,123,-1,123,121,119,-1,122,123,124,-1,122,124,125,-1,125,124,126,-1,125,126,127,-1,113,110,118,-1,118,110,119,-1,128,129,101,-1,101,129,126,-1,101,126,103,-1,103,126,124,-1,103,124,105,-1,105,124,123,-1,105,123,107,-1,107,123,119,-1,107,119,108,-1,108,119,110,-1,112,120,111,-1,111,120,121,-1,130,131,127,-1,127,131,100,-1,127,100,125,-1,125,100,102,-1,125,102,122,-1,102,104,122,-1,122,104,106,-1,122,106,121,-1,121,106,109,-1,121,109,111,-1,128,101,131,-1,131,101,100,-1,127,126,130,-1,130,126,129,-1,132,133,134,-1,134,133,135,-1,136,137,138,-1,138,137,139,-1,140,141,142,-1,142,141,143,-1,142,143,132,-1,132,143,133,-1,134,135,140,-1,140,135,141,-1,144,145,146,-1,146,145,147,-1,146,147,148,-1,148,147,149,-1,150,148,151,-1,151,148,149,-1,150,151,152,-1,150,152,153,-1,153,152,154,-1,153,154,155,-1,156,155,157,-1,157,155,154,-1,158,159,160,-1,160,159,161,-1,162,163,164,-1,164,163,165,-1,166,165,167,-1,167,165,163,-1,166,167,168,-1,166,168,169,-1,169,168,170,-1,169,170,171,-1,157,154,162,-1,162,154,163,-1,172,173,145,-1,145,173,170,-1,145,170,147,-1,147,170,168,-1,147,168,149,-1,149,168,167,-1,149,167,151,-1,151,167,163,-1,151,163,152,-1,152,163,154,-1,156,164,155,-1,155,164,165,-1,174,175,171,-1,171,175,144,-1,171,144,169,-1,169,144,146,-1,169,146,166,-1,146,148,166,-1,166,148,150,-1,166,150,165,-1,165,150,153,-1,165,153,155,-1,172,145,175,-1,175,145,144,-1,171,170,174,-1,174,170,173,-1,176,177,178,-1,178,177,179,-1,180,181,182,-1,182,181,183,-1,184,185,186,-1,186,185,187,-1,186,187,176,-1,176,187,177,-1,178,179,184,-1,184,179,185,-1,188,189,190,-1,190,189,191,-1,190,191,192,-1,192,191,193,-1,194,192,195,-1,195,192,193,-1,194,195,196,-1,194,196,197,-1,197,196,198,-1,197,198,199,-1,200,199,201,-1,201,199,198,-1,202,203,204,-1,204,203,205,-1,206,207,208,-1,208,207,209,-1,210,209,211,-1,211,209,207,-1,210,211,212,-1,210,212,213,-1,213,212,214,-1,213,214,215,-1,201,198,206,-1,206,198,207,-1,216,217,189,-1,189,217,214,-1,189,214,191,-1,191,214,212,-1,191,212,193,-1,193,212,211,-1,193,211,195,-1,195,211,207,-1,195,207,196,-1,196,207,198,-1,200,208,199,-1,199,208,209,-1,218,219,215,-1,215,219,188,-1,215,188,213,-1,213,188,190,-1,213,190,210,-1,190,192,210,-1,210,192,194,-1,210,194,209,-1,209,194,197,-1,209,197,199,-1,216,189,219,-1,219,189,188,-1,215,214,218,-1,218,214,217,-1,220,221,222,-1,222,221,223,-1,224,225,226,-1,226,225,227,-1,228,229,230,-1,230,229,231,-1,230,231,220,-1,220,231,221,-1,222,223,228,-1,228,223,229,-1,232,233,234,-1,234,233,235,-1,234,235,236,-1,236,235,237,-1,238,236,239,-1,239,236,237,-1,238,239,240,-1,238,240,241,-1,241,240,242,-1,241,242,243,-1,244,243,245,-1,245,243,242,-1,246,247,248,-1,248,247,249,-1,250,251,252,-1,252,251,253,-1,254,253,255,-1,255,253,251,-1,254,255,256,-1,254,256,257,-1,257,256,258,-1,257,258,259,-1,245,242,250,-1,250,242,251,-1,260,261,233,-1,233,261,258,-1,233,258,235,-1,235,258,256,-1,235,256,237,-1,237,256,255,-1,237,255,239,-1,239,255,251,-1,239,251,240,-1,240,251,242,-1,244,252,243,-1,243,252,253,-1,262,263,259,-1,259,263,232,-1,259,232,257,-1,257,232,234,-1,257,234,254,-1,234,236,254,-1,254,236,238,-1,254,238,253,-1,253,238,241,-1,253,241,243,-1,260,233,263,-1,263,233,232,-1,259,258,262,-1,262,258,261,-1,264,265,266,-1,266,265,267,-1,268,269,270,-1,270,269,271,-1,272,273,274,-1,274,273,275,-1,274,275,264,-1,264,275,265,-1,266,267,272,-1,272,267,273,-1,276,277,278,-1,278,277,279,-1,278,279,280,-1,280,279,281,-1,280,281,282,-1,282,281,283,-1,282,283,284,-1,284,283,285,-1,286,284,287,-1,287,284,285,-1,286,287,288,-1,286,288,289,-1,289,288,290,-1,289,290,291,-1,291,290,292,-1,291,292,293,-1,293,292,294,-1,293,294,295,-1,296,295,297,-1,297,295,294,-1,298,299,300,-1,300,299,301,-1,302,303,304,-1,304,303,305,-1,306,305,307,-1,307,305,303,-1,306,307,308,-1,306,308,309,-1,309,308,310,-1,309,310,311,-1,311,310,312,-1,311,312,313,-1,313,312,314,-1,313,314,315,-1,303,302,297,-1,297,294,303,-1,303,294,292,-1,303,292,290,-1,316,317,277,-1,277,317,314,-1,277,314,279,-1,279,314,312,-1,279,312,281,-1,281,312,310,-1,281,310,283,-1,283,310,308,-1,283,308,285,-1,285,308,307,-1,285,307,287,-1,287,307,303,-1,287,303,288,-1,288,303,290,-1,289,291,305,-1,296,304,295,-1,295,304,305,-1,295,305,293,-1,293,305,291,-1,318,319,315,-1,315,319,276,-1,315,276,313,-1,313,276,278,-1,313,278,311,-1,311,278,280,-1,311,280,309,-1,309,280,282,-1,309,282,306,-1,306,282,284,-1,306,284,305,-1,305,284,286,-1,305,286,289,-1,316,277,319,-1,319,277,276,-1,315,314,318,-1,318,314,317,-1,320,321,322,-1,322,321,323,-1,324,325,326,-1,326,325,327,-1,328,329,330,-1,330,329,331,-1,330,331,320,-1,320,331,321,-1,322,323,328,-1,328,323,329,-1,332,333,334,-1,334,333,335,-1,334,335,336,-1,336,335,337,-1,336,337,338,-1,338,337,339,-1,338,339,340,-1,340,339,341,-1,342,340,343,-1,343,340,341,-1,342,343,344,-1,342,344,345,-1,345,344,346,-1,345,346,347,-1,347,346,348,-1,347,348,349,-1,349,348,350,-1,349,350,351,-1,352,351,353,-1,353,351,350,-1,354,355,356,-1,356,355,357,-1,358,359,360,-1,360,359,361,-1,362,361,363,-1,363,361,359,-1,362,363,364,-1,362,364,365,-1,365,364,366,-1,365,366,367,-1,367,366,368,-1,367,368,369,-1,369,368,370,-1,369,370,371,-1,359,358,353,-1,353,350,359,-1,359,350,348,-1,359,348,346,-1,372,373,333,-1,333,373,370,-1,333,370,335,-1,335,370,368,-1,335,368,337,-1,337,368,366,-1,337,366,339,-1,339,366,364,-1,339,364,341,-1,341,364,363,-1,341,363,343,-1,343,363,359,-1,343,359,344,-1,344,359,346,-1,345,347,361,-1,352,360,351,-1,351,360,361,-1,351,361,349,-1,349,361,347,-1,374,375,371,-1,371,375,332,-1,371,332,369,-1,369,332,334,-1,369,334,367,-1,367,334,336,-1,367,336,365,-1,365,336,338,-1,365,338,362,-1,362,338,340,-1,362,340,361,-1,361,340,342,-1,361,342,345,-1,372,333,375,-1,375,333,332,-1,371,370,374,-1,374,370,373,-1,376,377,378,-1,378,377,379,-1,380,381,382,-1,382,381,383,-1,384,385,386,-1,386,385,387,-1,386,387,376,-1,376,387,377,-1,378,379,384,-1,384,379,385,-1,388,389,390,-1,390,389,391,-1,390,391,392,-1,392,391,393,-1,392,393,394,-1,394,393,395,-1,394,395,396,-1,396,395,397,-1,398,396,399,-1,399,396,397,-1,398,399,400,-1,398,400,401,-1,401,400,402,-1,401,402,403,-1,403,402,404,-1,403,404,405,-1,405,404,406,-1,405,406,407,-1,408,407,409,-1,409,407,406,-1,410,411,412,-1,412,411,413,-1,414,415,416,-1,416,415,417,-1,418,417,419,-1,419,417,415,-1,418,419,420,-1,418,420,421,-1,421,420,422,-1,421,422,423,-1,423,422,424,-1,423,424,425,-1,425,424,426,-1,425,426,427,-1,415,414,409,-1,409,406,415,-1,415,406,404,-1,415,404,402,-1,428,429,389,-1,389,429,426,-1,389,426,391,-1,391,426,424,-1,391,424,393,-1,393,424,422,-1,393,422,395,-1,395,422,420,-1,395,420,397,-1,397,420,419,-1,397,419,399,-1,399,419,415,-1,399,415,400,-1,400,415,402,-1,401,403,417,-1,408,416,407,-1,407,416,417,-1,407,417,405,-1,405,417,403,-1,430,431,427,-1,427,431,388,-1,427,388,425,-1,425,388,390,-1,425,390,423,-1,423,390,392,-1,423,392,421,-1,421,392,394,-1,421,394,418,-1,418,394,396,-1,418,396,417,-1,417,396,398,-1,417,398,401,-1,428,389,431,-1,431,389,388,-1,427,426,430,-1,430,426,429,-1,432,433,434,-1,434,433,435,-1,436,437,438,-1,438,437,439,-1,440,441,442,-1,442,441,443,-1,442,443,432,-1,432,443,433,-1,434,435,440,-1,440,435,441,-1,444,445,446,-1,446,445,447,-1,446,447,448,-1,448,447,449,-1,448,449,450,-1,450,449,451,-1,450,451,452,-1,452,451,453,-1,454,452,455,-1,455,452,453,-1,454,455,456,-1,454,456,457,-1,457,456,458,-1,457,458,459,-1,459,458,460,-1,459,460,461,-1,461,460,462,-1,461,462,463,-1,464,463,465,-1,465,463,462,-1,466,467,468,-1,468,467,469,-1,470,471,472,-1,472,471,473,-1,474,473,475,-1,475,473,471,-1,474,475,476,-1,474,476,477,-1,477,476,478,-1,477,478,479,-1,479,478,480,-1,479,480,481,-1,481,480,482,-1,481,482,483,-1,471,470,465,-1,465,462,471,-1,471,462,460,-1,471,460,458,-1,484,485,445,-1,445,485,482,-1,445,482,447,-1,447,482,480,-1,447,480,449,-1,449,480,478,-1,449,478,451,-1,451,478,476,-1,451,476,453,-1,453,476,475,-1,453,475,455,-1,455,475,471,-1,455,471,456,-1,456,471,458,-1,457,459,473,-1,464,472,463,-1,463,472,473,-1,463,473,461,-1,461,473,459,-1,486,487,483,-1,483,487,444,-1,483,444,481,-1,481,444,446,-1,481,446,479,-1,479,446,448,-1,479,448,477,-1,477,448,450,-1,477,450,474,-1,474,450,452,-1,474,452,473,-1,473,452,454,-1,473,454,457,-1,484,445,487,-1,487,445,444,-1,483,482,486,-1,486,482,485,-1,488,489,490,-1,490,489,491,-1,492,493,494,-1,494,493,495,-1,496,497,498,-1,498,497,499,-1,498,499,488,-1,488,499,489,-1,490,491,496,-1,496,491,497,-1,142,139,140,-1,140,139,137,-1,132,138,142,-1,142,138,139,-1,136,134,137,-1,137,134,140,-1,134,136,132,-1,132,136,138,-1,120,117,118,-1,118,117,115,-1,112,116,120,-1,120,116,117,-1,114,113,115,-1,115,113,118,-1,113,114,112,-1,112,114,116,-1,330,327,328,-1,328,327,325,-1,320,326,330,-1,330,326,327,-1,324,322,325,-1,325,322,328,-1,322,324,320,-1,320,324,326,-1,304,301,302,-1,302,301,299,-1,296,300,304,-1,304,300,301,-1,298,297,299,-1,299,297,302,-1,297,298,296,-1,296,298,300,-1,186,183,184,-1,184,183,181,-1,176,182,186,-1,186,182,183,-1,180,178,181,-1,181,178,184,-1,178,180,176,-1,176,180,182,-1,164,161,162,-1,162,161,159,-1,156,160,164,-1,164,160,161,-1,158,157,159,-1,159,157,162,-1,157,158,156,-1,156,158,160,-1,386,383,384,-1,384,383,381,-1,376,382,386,-1,386,382,383,-1,380,378,381,-1,381,378,384,-1,378,380,376,-1,376,380,382,-1,360,357,358,-1,358,357,355,-1,352,356,360,-1,360,356,357,-1,354,353,355,-1,355,353,358,-1,353,354,352,-1,352,354,356,-1,230,227,228,-1,228,227,225,-1,220,226,230,-1,230,226,227,-1,224,222,225,-1,225,222,228,-1,222,224,220,-1,220,224,226,-1,208,205,206,-1,206,205,203,-1,200,204,208,-1,208,204,205,-1,202,201,203,-1,203,201,206,-1,201,202,200,-1,200,202,204,-1,442,439,440,-1,440,439,437,-1,432,438,442,-1,442,438,439,-1,436,434,437,-1,437,434,440,-1,434,436,432,-1,432,436,438,-1,416,413,414,-1,414,413,411,-1,408,412,416,-1,416,412,413,-1,410,409,411,-1,411,409,414,-1,409,410,408,-1,408,410,412,-1,274,271,272,-1,272,271,269,-1,264,270,274,-1,274,270,271,-1,268,266,269,-1,269,266,272,-1,266,268,264,-1,264,268,270,-1,252,249,250,-1,250,249,247,-1,244,248,252,-1,252,248,249,-1,246,245,247,-1,247,245,250,-1,245,246,244,-1,244,246,248,-1,498,495,496,-1,496,495,493,-1,488,494,498,-1,498,494,495,-1,492,490,493,-1,493,490,496,-1,490,492,488,-1,488,492,494,-1,472,469,470,-1,470,469,467,-1,464,468,472,-1,472,468,469,-1,466,465,467,-1,467,465,470,-1,465,466,464,-1,464,466,468,-1,
        ]
    }
}
Shape{
    appearance Appearance {
        material  Material 	{
            diffuseColor 1.0 1.0 1.0
            specularColor 0.5019607843137255 0.5019607843137255 0.5019607843137255
            ambientIntensity 1.0
            transparency 0.0
            shininess 0.5
        }
    }
    geometry IndexedFaceSet {
        ccw TRUE
        solid FALSE
        coord DEF co Coordinate {
            point [
                0.2576 2.2638 0.0118, 0.2576 2.2638 0.0079, 0.2576 2.1063 0.0118, 0.2576 2.1063 0.0079, 0.2365 2.2638 0.0118, 0.2365 2.2638 0.0079, 0.2365 2.1236 0.0118, 0.2365 2.1236 0.0079, 0.177 2.1236 0.0118, 0.177 2.1236 0.0079, 0.177 2.1063 0.0118, 0.177 2.1063 0.0079, 0.1424 2.1834 0.0118, 0.1424 2.1834 0.0079, 0.1417 2.1956 0.0079, 0.1417 2.1956 0.0118, 0.1375 2.2125 0.0079, 0.1375 2.2125 0.0118, 0.131 2.2246 0.0079, 0.131 2.2246 0.0118, 0.1215 2.2351 0.0079, 0.1215 2.2351 0.0118, 0.1106 2.2424 0.0079, 0.1106 2.2424 0.0118, 0.0988 2.2467 0.0079, 0.0988 2.2467 0.0118, 0.0833 2.2484 0.0079, 0.0833 2.2484 0.0118, 0.0641 2.2459 0.0079, 0.0641 2.2459 0.0118, 0.0464 2.2383 0.0079, 0.0464 2.2383 0.0118, 0.0464 2.2595 0.0079, 0.0464 2.2595 0.0118, 0.0646 2.2644 0.0079, 0.0646 2.2644 0.0118, 0.0834 2.2657 0.0079, 0.0834 2.2657 0.0118, 0.0993 2.2644 0.0079, 0.0993 2.2644 0.0118, 0.1168 2.2593 0.0079, 0.1168 2.2593 0.0118, 0.1318 2.2507 0.0079, 0.1318 2.2507 0.0118, 0.146 2.237 0.0079, 0.146 2.237 0.0118, 0.1552 2.2223 0.0079, 0.1552 2.2223 0.0118, 0.1613 2.2045 0.0079, 0.1613 2.2045 0.0118, 0.1635 2.1821 0.0079, 0.1635 2.1821 0.0118, 0.1621 2.1643 0.0079, 0.1621 2.1643 0.0118, 0.1574 2.1476 0.0079, 0.1574 2.1476 0.0118, 0.1492 2.1326 0.0079, 0.1492 2.1326 0.0118, 0.1382 2.1207 0.0079, 0.1382 2.1207 0.0118, 0.1257 2.1123 0.0079, 0.1257 2.1123 0.0118, 0.1087 2.1063 0.0079, 0.1087 2.1063 0.0118, 0.0686 2.1063 0.0118, 0.0686 2.1063 0.0079, 0.0572 2.1094 0.0079, 0.0572 2.1094 0.0118, 0.0464 2.1145 0.0079, 0.0464 2.1145 0.0118, 0.0464 2.1317 0.0079, 0.0464 2.1317 0.0118, 0.0492 2.1302 0.0079, 0.0492 2.1302 0.0118, 0.0659 2.124 0.0079, 0.0659 2.124 0.0118, 0.0868 2.1217 0.0079, 0.0868 2.1217 0.0118, 0.1015 2.1233 0.0079, 0.1015 2.1233 0.0118, 0.113 2.1275 0.0079, 0.113 2.1275 0.0118, 0.1226 2.134 0.0079, 0.1226 2.134 0.0118, 0.13 2.1418 0.0079, 0.13 2.1418 0.0118, 0.1365 2.1528 0.0079, 0.1365 2.1528 0.0118, 0.1408 2.1663 0.0079, 0.1408 2.1663 0.0118, 0.0157 2.2638 0.0118, 0.0157 2.2638 0.0079, 0.0157 2.1063 0.0118, 0.0157 2.1063 0.0079, -0.065 2.2638 0.0118, -0.065 2.2638 0.0079, -0.065 2.2465 0.0118, -0.065 2.2465 0.0079, -0.0055 2.2465 0.0118, -0.0055 2.2465 0.0079, -0.0055 2.1946 0.0118, -0.0055 2.1946 0.0079, -0.0612 2.1946 0.0118, -0.0612 2.1946 0.0079, -0.0612 2.1774 0.0118, -0.0612 2.1774 0.0079, -0.0055 2.1774 0.0118, -0.0055 2.1774 0.0079, -0.0055 2.1236 0.0118, -0.0055 2.1236 0.0079, -0.0688 2.1236 0.0118, -0.0688 2.1236 0.0079, -0.0688 2.1063 0.0118, -0.0688 2.1063 0.0079, -0.144 2.2638 0.0118, -0.144 2.2638 0.0079, -0.0996 2.2638 0.0118, -0.0996 2.2638 0.0079, -0.2263 2.187 0.0118, -0.2263 2.187 0.0079, -0.2252 2.2018 0.0079, -0.2252 2.2018 0.0118, -0.221 2.2173 0.0079, -0.221 2.2173 0.0118, -0.2136 2.2309 0.0079, -0.2136 2.2309 0.0118, -0.2025 2.2432 0.0079, -0.2025 2.2432 0.0118, -0.2023 2.2434 0.0079, -0.2023 2.2434 0.0118, -0.1852 2.2549 0.0079, -0.1852 2.2549 0.0118, -0.1668 2.2613 0.0079, -0.1668 2.2613 0.0118, -0.1424 2.1063 0.0118, -0.1424 2.1063 0.0079, -0.1619 2.108 0.0079, -0.1619 2.108 0.0118, -0.18 2.1134 0.0079, -0.18 2.1134 0.0118, -0.1965 2.123 0.0079, -0.1965 2.123 0.0118, -0.2094 2.1354 0.0079, -0.2094 2.1354 0.0118, -0.2185 2.1495 0.0079, -0.2185 2.1495 0.0118, -0.2241 2.1659 0.0079, -0.2241 2.1659 0.0118, -0.0996 2.1063 0.0118, -0.0996 2.1063 0.0079, -0.1947 2.2244 0.0118, -0.1871 2.2325 0.0118, -0.1756 2.24 0.0118, -0.1626 2.2445 0.0118, -0.1439 2.2465 0.0118, -0.1207 2.2465 0.0118, -0.1207 2.1236 0.0118, -0.1431 2.1236 0.0118, -0.1597 2.1251 0.0118, -0.1729 2.1293 0.0118, -0.1837 2.1356 0.0118, -0.1925 2.1444 0.0118, -0.1991 2.1552 0.0118, -0.2038 2.17 0.0118, -0.2052 2.1866 0.0118, -0.2039 2.2022 0.0118, -0.2002 2.2147 0.0118, -0.1431 2.1236 0.0079, -0.1207 2.1236 0.0079, -0.2052 2.1866 0.0079, -0.2038 2.17 0.0079, -0.1991 2.1552 0.0079, -0.1925 2.1444 0.0079, -0.1837 2.1356 0.0079, -0.1729 2.1293 0.0079, -0.1597 2.1251 0.0079, -0.1439 2.2465 0.0079, -0.1626 2.2445 0.0079, -0.1756 2.24 0.0079, -0.1871 2.2325 0.0079, -0.1947 2.2244 0.0079, -0.2002 2.2147 0.0079, -0.2039 2.2022 0.0079, -0.1207 2.2465 0.0079, -0.341 2.1505 0.0118, -0.341 2.1505 0.0079, -0.3569 2.1063 0.0118, -0.3569 2.1063 0.0079, -0.2759 2.1505 0.0118, -0.2759 2.1505 0.0079, -0.2609 2.1063 0.0118, -0.2609 2.1063 0.0079, -0.2974 2.2638 0.0118, -0.2974 2.2638 0.0079, -0.2379 2.1063 0.0118, -0.2379 2.1063 0.0079, -0.3185 2.2638 0.0118, -0.3185 2.2638 0.0079, -0.38 2.1063 0.0118, -0.38 2.1063 0.0079, -0.2812 2.1678 0.0118, -0.3047 2.2335 0.0118, -0.3063 2.239 0.0118, -0.3073 2.2446 0.0118, -0.3078 2.2446 0.0118, -0.3088 2.239 0.0118, -0.3102 2.2335 0.0118, -0.3339 2.1678 0.0118, -0.3078 2.2446 0.0079, -0.3088 2.239 0.0079, -0.3102 2.2335 0.0079, -0.3073 2.2446 0.0079, -0.3047 2.2335 0.0079, -0.3063 2.239 0.0079, -0.2812 2.1678 0.0079, -0.3339 2.1678 0.0079
            ]
        }
        coordIndex [
            0,1,2,-1,2,1,3,-1,4,5,0,-1,0,5,1,-1,6,7,4,-1,4,7,5,-1,8,9,6,-1,6,9,7,-1,10,11,8,-1,8,11,9,-1,4,0,6,-1,6,0,2,-1,6,2,8,-1,8,2,10,-1,12,13,14,-1,12,14,15,-1,15,14,16,-1,15,16,17,-1,17,16,18,-1,17,18,19,-1,19,18,20,-1,19,20,21,-1,21,20,22,-1,21,22,23,-1,23,22,24,-1,23,24,25,-1,25,24,26,-1,25,26,27,-1,27,26,28,-1,27,28,29,-1,29,28,30,-1,29,30,31,-1,32,33,30,-1,30,33,31,-1,33,32,34,-1,33,34,35,-1,35,34,36,-1,35,36,37,-1,37,36,38,-1,37,38,39,-1,39,38,40,-1,39,40,41,-1,41,40,42,-1,41,42,43,-1,43,42,44,-1,43,44,45,-1,45,44,46,-1,45,46,47,-1,47,46,48,-1,47,48,49,-1,49,48,50,-1,49,50,51,-1,51,50,52,-1,51,52,53,-1,53,52,54,-1,53,54,55,-1,55,54,56,-1,55,56,57,-1,57,56,58,-1,57,58,59,-1,59,58,60,-1,59,60,61,-1,61,60,62,-1,61,62,63,-1,64,65,66,-1,64,66,67,-1,67,66,68,-1,67,68,69,-1,70,71,68,-1,68,71,69,-1,71,70,72,-1,71,72,73,-1,73,72,74,-1,73,74,75,-1,75,74,76,-1,75,76,77,-1,77,76,78,-1,77,78,79,-1,79,78,80,-1,79,80,81,-1,81,80,82,-1,81,82,83,-1,83,82,84,-1,83,84,85,-1,85,84,86,-1,85,86,87,-1,87,86,88,-1,87,88,89,-1,89,88,13,-1,89,13,12,-1,31,33,29,-1,29,33,35,-1,29,35,27,-1,27,35,37,-1,27,37,25,-1,25,37,39,-1,25,39,23,-1,23,39,41,-1,23,41,21,-1,21,41,43,-1,21,43,19,-1,19,43,45,-1,19,45,17,-1,17,45,47,-1,17,47,15,-1,15,47,49,-1,15,49,12,-1,12,49,51,-1,12,51,89,-1,89,51,53,-1,89,53,87,-1,87,53,55,-1,87,55,85,-1,85,55,57,-1,85,57,83,-1,83,57,59,-1,83,59,81,-1,81,59,61,-1,81,61,79,-1,79,61,63,-1,79,63,77,-1,77,63,64,-1,77,64,75,-1,75,64,67,-1,75,67,73,-1,73,67,69,-1,73,69,71,-1,90,91,92,-1,92,91,93,-1,94,95,90,-1,90,95,91,-1,96,97,94,-1,94,97,95,-1,98,99,96,-1,96,99,97,-1,100,101,98,-1,98,101,99,-1,102,103,100,-1,100,103,101,-1,104,105,102,-1,102,105,103,-1,106,107,104,-1,104,107,105,-1,108,109,106,-1,106,109,107,-1,110,111,108,-1,108,111,109,-1,112,113,110,-1,110,113,111,-1,92,112,110,-1,110,108,92,-1,92,108,106,-1,92,106,90,-1,96,94,98,-1,98,94,90,-1,98,90,100,-1,100,90,106,-1,100,106,102,-1,102,106,104,-1,114,115,116,-1,116,115,117,-1,118,119,120,-1,118,120,121,-1,121,120,122,-1,121,122,123,-1,123,122,124,-1,123,124,125,-1,125,124,126,-1,125,126,127,-1,127,126,128,-1,127,128,129,-1,129,128,130,-1,129,130,131,-1,131,130,132,-1,131,132,133,-1,133,132,115,-1,133,115,114,-1,134,135,136,-1,134,136,137,-1,137,136,138,-1,137,138,139,-1,139,138,140,-1,139,140,141,-1,141,140,142,-1,141,142,143,-1,143,142,144,-1,143,144,145,-1,145,144,146,-1,145,146,147,-1,147,146,119,-1,147,119,118,-1,148,116,149,-1,149,116,117,-1,123,125,150,-1,150,125,127,-1,150,127,151,-1,151,127,129,-1,151,129,152,-1,152,129,131,-1,152,131,153,-1,153,131,133,-1,153,133,154,-1,154,133,114,-1,154,114,155,-1,155,114,116,-1,155,116,156,-1,156,116,148,-1,156,148,157,-1,157,148,134,-1,157,134,158,-1,158,134,137,-1,158,137,159,-1,159,137,139,-1,159,139,160,-1,160,139,141,-1,160,141,161,-1,161,141,143,-1,161,143,162,-1,162,143,145,-1,162,145,163,-1,163,145,147,-1,163,147,164,-1,164,147,118,-1,164,118,165,-1,165,118,121,-1,165,121,166,-1,166,121,123,-1,166,123,150,-1,157,167,156,-1,156,167,168,-1,164,169,170,-1,164,170,163,-1,163,170,171,-1,163,171,162,-1,162,171,172,-1,162,172,161,-1,161,172,173,-1,161,173,160,-1,160,173,174,-1,160,174,159,-1,159,174,175,-1,159,175,158,-1,158,175,167,-1,158,167,157,-1,154,176,177,-1,154,177,153,-1,153,177,178,-1,153,178,152,-1,152,178,179,-1,152,179,151,-1,151,179,180,-1,151,180,150,-1,150,180,181,-1,150,181,166,-1,166,181,182,-1,166,182,165,-1,165,182,169,-1,165,169,164,-1,155,183,154,-1,154,183,176,-1,168,183,156,-1,156,183,155,-1,184,185,186,-1,186,185,187,-1,188,189,184,-1,184,189,185,-1,190,191,188,-1,188,191,189,-1,192,193,194,-1,194,193,195,-1,196,197,192,-1,192,197,193,-1,198,199,196,-1,196,199,197,-1,200,201,192,-1,194,190,188,-1,201,202,192,-1,192,202,203,-1,192,203,196,-1,196,203,204,-1,196,204,205,-1,205,206,196,-1,196,206,207,-1,196,207,198,-1,186,198,184,-1,184,198,207,-1,184,207,188,-1,188,207,200,-1,188,200,194,-1,194,200,192,-1,204,208,209,-1,204,209,205,-1,205,209,210,-1,205,210,206,-1,203,211,204,-1,204,211,208,-1,201,212,213,-1,201,213,202,-1,202,213,211,-1,202,211,203,-1,200,214,201,-1,201,214,212,-1,207,215,200,-1,200,215,214,-1,210,215,206,-1,206,215,207,-1,
        ]
    }
}
Shape{
    appearance Appearance {
        material  Material 	{
            diffuseColor 0.2235294117647059 0.2235294117647059 0.2235294117647059
            specularColor 0.11372549019607843 0.11372549019607843 0.11372549019607843
            ambientIntensity 0.2235
            transparency 0.0
            shininess 0.5
        }
    }
    geometry IndexedFaceSet {
        ccw TRUE
        solid FALSE
        coord DEF co Coordinate {
            point [
                -0.1207 2.2465 0.0079, -0.1207 2.1236 0.0079, -0.1439 2.2465 0.0079, -0.1431 2.1236 0.0079, -0.1597 2.1251 0.0079, -0.2052 2.1866 0.0079, -0.2039 2.2022 0.0079, -0.2002 2.2147 0.0079, -0.1626 2.2445 0.0079, -0.1729 2.1293 0.0079, -0.1837 2.1356 0.0079, -0.1925 2.1444 0.0079, -0.1991 2.1552 0.0079, -0.2038 2.17 0.0079, -0.1947 2.2244 0.0079, -0.1871 2.2325 0.0079, -0.1756 2.24 0.0079, -0.2812 2.1678 0.0079, -0.3339 2.1678 0.0079, -0.3047 2.2335 0.0079, -0.3102 2.2335 0.0079, -0.3063 2.239 0.0079, -0.3088 2.239 0.0079, -0.3073 2.2446 0.0079, -0.3078 2.2446 0.0079
            ]
        }
        coordIndex [
            0,1,2,-1,2,1,3,-1,2,3,4,-1,5,6,2,-1,2,6,7,-1,2,7,8,-1,4,9,2,-1,2,9,10,-1,2,10,11,-1,11,12,2,-1,2,12,13,-1,2,13,5,-1,14,15,7,-1,7,15,16,-1,7,16,8,-1,17,18,19,-1,19,18,20,-1,19,20,21,-1,21,20,22,-1,21,22,23,-1,23,22,24,-1,
        ]
    }
}